<?xml version="1.0" standalone="no"?>
<!DOCTYPE svg PUBLIC "-//W3C//DTD SVG 1.1//EN" "http://www.w3.org/Graphics/SVG/1.1/DTD/svg11.dtd" >
<svg xmlns="http://www.w3.org/2000/svg" xmlns:xlink="http://www.w3.org/1999/xlink" version="1.1">
<metadata>
Created by FontForge 20170910 at Tue Oct 12 15:36:02 1999
 By Jimmy Wärting
Copyright (C) 1992 Monotype Corporation plc. All rights reserved. Portions (c) 1992 Microsoft Corp. All rights reserved.
</metadata>
<defs>
<font id="Castellar" horiz-adv-x="1665" >
  <font-face 
    font-family="Castellar"
    font-weight="400"
    font-stretch="normal"
    units-per-em="2048"
    panose-1="2 10 4 2 6 4 6 1 3 1"
    ascent="1638"
    descent="-410"
    cap-height="1464"
    bbox="-369 -571 2468 1878"
    underline-thickness="102"
    underline-position="-256"
    unicode-range="U+0020-F002"
  />
<missing-glyph horiz-adv-x="1024" 
d="M0 1365h860v-1365h-860v1365zM41 1324v-1283h778v1283h-778z" />
    <glyph glyph-name=".notdef" horiz-adv-x="1024" 
d="M0 1365h860v-1365h-860v1365zM41 1324v-1283h778v1283h-778z" />
    <glyph glyph-name="glyph1" horiz-adv-x="0" 
 />
    <glyph glyph-name="space" unicode=" " horiz-adv-x="737" 
 />
    <glyph glyph-name="exclam" unicode="!" horiz-adv-x="492" 
d="M258 569v871q-53 -3 -75 -35.5t-15 -104.5l82 -731h8zM268 322h-20q0 66 -19 232t-40 325.5t-40.5 306.5t-19.5 170q0 50 34.5 86.5t98.5 36.5q33 0 60.5 -15t45 -45t17.5 -71q0 -15 -18.5 -153.5t-46 -355.5t-40 -333.5t-12.5 -183.5zM258 16v183q-36 -2 -62 -28
t-26 -67q0 -31 25.5 -58t62.5 -30zM260 229q50 0 85.5 -34.5t35.5 -85.5t-36 -87t-85 -36t-86 36t-37 87t36.5 85.5t86.5 34.5z" />
    <glyph glyph-name="quotedbl" unicode="&#x22;" horiz-adv-x="836" 
d="M211 803l-53 297q-18 97 -20.5 115t-2.5 55q0 116 98 116q48 0 74.5 -29.5t26.5 -86.5q0 -31 -6 -72l-19 -100l-55 -295h-43zM578 803l-54 293l-20 102q-4 32 -4 53q0 70 24.5 102.5t77.5 32.5q48 0 73 -29.5t25 -86.5q0 -39 -4 -72q-11 -88 -14 -102l-57 -293h-47z
M234 855v505q-43 3 -58 -31t-12 -105l58 -369h12zM598 853l1 506q-43 3 -58 -31t-12 -105l58 -369z" />
    <glyph glyph-name="numbersign" unicode="#" horiz-adv-x="1024" 
d="M424 954h256l57 424h97l-58 -424h209l-12 -94h-211l-49 -373h211l-13 -94h-213l-57 -426h-96l57 426h-254l-59 -426h-96l59 426h-211l12 94h211l51 373h-204l12 94h205l59 424h96zM666 860h-254l-52 -373h256z" />
    <glyph glyph-name="dollar" unicode="$" horiz-adv-x="981" 
d="M664 1409l6 6q-53 35 -135 35q-121 0 -205 -51.5t-125 -129t-41 -147.5q0 -60 34.5 -138t106.5 -150q62 -61 158 -139t144 -123t80 -104.5t32 -137.5q0 -122 -93 -199.5t-218 -77.5q-58 0 -121 21l-2 -8q50 -23 93 -32t73 -9q101 0 179 47.5t119.5 121.5t41.5 150
q0 53 -21.5 121t-107.5 153q-44 45 -161 142t-159.5 136.5t-82.5 102t-40 129.5q0 82 44 152t117.5 111t154.5 41q93 0 129 -23zM547 1501v-28q76 -3 136.5 -36.5t102 -89t66.5 -130.5h-16q-57 87 -132.5 135.5t-162.5 44.5q-11 -283 -11 -346v-179q104 -84 165.5 -141
t103.5 -111t63 -112.5t21 -128.5q0 -117 -57 -200t-136 -128.5t-143 -54.5l4 -90h-115l4 82q-70 0 -135 30.5t-113.5 83.5t-68.5 107l12 2q124 -147 309 -135q7 146 7 336v254q-100 80 -168.5 149.5t-108 145.5t-39.5 159q0 105 71 206.5t228 137.5v37h113zM532 594v-252
q0 -38 4 -116.5t5 -119.5q59 27 103 85t44 133q0 86 -45.5 154.5t-110.5 115.5zM449 940v182q0 48 -9 250q-64 -25 -102.5 -82.5t-38.5 -118.5q0 -126 150 -231z" />
    <glyph glyph-name="percent" unicode="%" horiz-adv-x="1962" 
d="M1503 645q-62 0 -110.5 -39t-74.5 -112t-26 -172q0 -105 24.5 -178.5t70.5 -109.5t106 -36q105 0 162 89t57 239q0 168 -57 243.5t-152 75.5zM1532 678v-16q86 -25 144.5 -104.5t58.5 -223.5q0 -149 -55 -244t-164 -106v-21q65 9 120 41t91.5 81t55.5 114t19 139
q0 123 -73 218t-197 122zM1464 -37v17q-117 25 -181 112.5t-64 237.5q-1 89 30.5 162t91 118.5t142.5 59.5v16q-121 -8 -227 -98.5t-105 -265.5q0 -99 40 -176.5t111 -124.5t162 -58zM1507 698q118 0 204 -52t130.5 -136.5t44.5 -175.5q0 -96 -47.5 -185.5t-136 -144.5
t-201.5 -55q-105 0 -190.5 48t-135 133.5t-49.5 193.5q0 107 48 192.5t135 133.5t198 48zM481 1427q-63 0 -111 -39.5t-73 -111.5t-25 -172q0 -158 54 -241t147 -83q106 0 162.5 88.5t56.5 239.5q0 170 -58 244.5t-153 74.5zM512 1458v-14q84 -24 142.5 -105t58.5 -223
q0 -98 -23.5 -173.5t-73 -122.5t-122.5 -56v-19q134 18 210 119.5t76 253.5q0 122 -73 218.5t-195 121.5zM444 745v15q-118 27 -182 114.5t-65 237.5q0 137 71.5 228t194.5 112v16q-122 -8 -228 -98t-106 -266q2 -75 25 -137.5t64.5 -109t99 -75.5t126.5 -37zM487 1481
q115 0 201 -52t131 -137.5t45 -175.5q0 -71 -25.5 -139t-76 -124.5t-123.5 -90t-158 -33.5q-106 0 -191.5 49t-134.5 134.5t-49 193.5t48 193t134.5 133.5t198.5 48.5zM1440 1481h63l-954 -1534h-62z" />
    <glyph glyph-name="ampersand" unicode="&#x26;" horiz-adv-x="1579" 
d="M1434 707l-168 -33q-27 -99 -27 -182q0 -65 -5 -111.5t-40 -108.5q73 -65 111 -96.5t86 -60.5t84 -29q19 0 38 10t27 31h12q-6 -69 -55.5 -106t-114.5 -37q-75 0 -133.5 28.5t-158.5 112.5q-73 -64 -166 -102.5t-222 -38.5q-153 0 -261.5 40t-172.5 103t-91 132.5
t-27 129.5q0 150 84.5 244t242.5 184q-32 58 -51.5 98.5t-32 93.5t-12.5 121q0 107 47.5 186t129 120t177.5 41q135 0 209 -70.5t74 -177.5q0 -131 -94.5 -214t-253.5 -159q76 -111 162.5 -209.5t226.5 -240.5v90q0 100 -27 178l-119 35v10h521v-12zM694 1411
q-70 0 -121 -52t-51 -145q0 -65 31 -146.5t80 -152.5q68 39 115 93.5t71.5 116t24.5 122.5q0 55 -20.5 92.5t-54 54.5t-75.5 17zM1087 680v-256q0 -102 -24 -154q-296 279 -455 505.5t-159 406.5q0 58 14 99.5t37 76.5h-13q-38 -38 -59.5 -99.5t-21.5 -134.5
q0 -122 81 -270.5t218.5 -304.5t330.5 -338q-77 -124 -229 -172l2 -10q84 21 145 55.5t117 93.5q105 -89 169 -130.5t140 -41.5q31 0 76 17v10h-26q-48 0 -95.5 22.5t-93 59t-133.5 114.5q47 89 47 215v236h-68zM772 1427v-8q29 -11 54 -37t39 -61.5t14 -75.5
q0 -96 -63.5 -193t-172.5 -159l6 -10q129 66 207 158t78 186q0 82 -50 133.5t-112 66.5zM512 758q-57 -34 -104.5 -109t-47.5 -182q0 -87 29.5 -164t80 -133.5t115 -87.5t130.5 -31q79 0 156.5 42t127.5 114q-160 155 -275.5 279.5t-211.5 271.5zM492 786l-7 13
q-125 -76 -190.5 -145t-88 -132.5t-22.5 -128.5q0 -105 61.5 -191.5t177 -140t259.5 -57.5v12q-128 9 -225.5 69t-151 151t-53.5 186q0 59 21.5 122t77 127.5t141.5 114.5z" />
    <glyph glyph-name="quotesingle" unicode="'" horiz-adv-x="369" 
d="M162 803l-56 297l-18 100q-4 34 -4 53q0 70 23.5 101.5t74.5 31.5q49 0 76 -30.5t27 -85.5q0 -35 -9 -70l-18 -102l-53 -295h-43zM185 854v505q-43 3 -58 -31t-12 -105l58 -369h12z" />
    <glyph glyph-name="parenleft" unicode="(" horiz-adv-x="492" 
d="M326 1309h-13q-153 -263 -153 -570q0 -142 39.5 -293t113.5 -288h13q-99 245 -99 563q0 103 10.5 210.5t32 206t56.5 171.5zM451 -33h-9q-68 73 -123 148.5t-99.5 170.5t-70.5 207t-26 242q0 160 38.5 297t111 253t169.5 216h9q-127 -270 -127 -766q0 -242 28 -419.5
t99 -348.5z" />
    <glyph glyph-name="parenright" unicode=")" horiz-adv-x="492" 
d="M166 1315h-10q23 -79 39.5 -179.5t24 -201t7.5 -205.5q0 -94 -6.5 -198.5t-21 -197.5t-39.5 -175h10q32 74 56.5 148t39 139.5t23 144t8.5 153.5q0 139 -36.5 294t-94.5 278zM78 -33h-8q123 295 123 748q0 113 -6.5 223.5t-20 205t-37 184.5t-59.5 173h8
q181 -194 248 -389.5t67 -374.5q0 -132 -25.5 -244t-69 -206.5t-97.5 -170t-123 -149.5z" />
    <glyph glyph-name="asterisk" unicode="*" horiz-adv-x="897" 
d="M457 1436h-62q35 -116 51 -262h11v262zM348 1470h219q-90 -145 -102 -340q184 90 278 216l74 -213q-65 14 -131 14q-49 0 -107.5 -8t-103.5 -21q136 -153 275 -209l-172 -133q-17 160 -121 330q-84 -154 -105 -330l-186 127q148 67 276 217q-107 21 -188 21
q-93 0 -156 -19l64 211q63 -67 130.5 -112t151.5 -82q-3 86 -28 172t-68 159zM754 1225l-248 -84l2 -13q127 38 266 35zM178 1276l-18 -62l248 -79l4 16q-127 45 -234 125zM489 1083l-10 -8q79 -130 115 -239l49 36zM426 1077l-10 8q-65 -72 -101 -106.5t-92 -73.5l58 -39z
" />
    <glyph glyph-name="plus" unicode="+" horiz-adv-x="1124" 
d="M506 1092h112v-482h486v-112h-486v-498h-112v498h-486v112h486v482z" />
    <glyph glyph-name="comma" unicode="," horiz-adv-x="492" 
d="M260 23v180q-90 -9 -90 -94q0 -33 23 -57.5t67 -28.5zM188 -180l-10 10q74 74 80 162q-54 0 -87.5 35.5t-33.5 81.5q0 53 32 90t91 37q61 0 91 -46t30 -96q0 -102 -64.5 -173t-128.5 -101z" />
    <glyph glyph-name="hyphen" unicode="-" horiz-adv-x="1174" 
d="M1059 825l-60 -141h-727q-71 0 -139 -35l62 139h708q105 0 156 37z" />
    <glyph glyph-name="period" unicode="." horiz-adv-x="492" 
d="M256 23v182q-42 -4 -65 -30.5t-23 -61.5q0 -34 23.5 -60.5t64.5 -29.5zM258 236q52 0 87.5 -36.5t35.5 -88.5q0 -50 -36.5 -85.5t-88.5 -35.5t-87.5 35.5t-35.5 85.5q0 52 36.5 88.5t88.5 36.5z" />
    <glyph glyph-name="slash" unicode="/" horiz-adv-x="788" 
d="M596 1468h186v-10q-70 -6 -112 -133l-443 -1321h-192v12q41 9 68.5 41.5t50.5 100.5z" />
    <glyph glyph-name="zero" unicode="0" horiz-adv-x="1473" 
d="M764 1481q139 0 279 -67t239.5 -237t99.5 -456q0 -193 -53.5 -334t-143 -228.5t-201 -130t-228.5 -42.5q-152 0 -295 71.5t-237.5 237.5t-94.5 426q0 222 61.5 375t157 235.5t203.5 116t213 33.5zM754 1413q-134 0 -242 -106q-45 -45 -75.5 -99t-50.5 -125.5t-30 -162.5
t-10 -205q0 -143 19 -246.5t54.5 -176.5t92.5 -130q107 -107 242 -107q139 0 250 111q55 55 91 138.5t52 189.5t16 239q0 225 -41.5 359t-128.5 219q-102 102 -239 102zM705 1444v16q-77 -12 -160.5 -42t-173 -108t-149.5 -225.5t-60 -371.5q0 -199 68.5 -353.5t191.5 -243
t285 -106.5v13q-129 26 -220 88t-147 156.5t-80 207t-24 252.5q0 353 134 517t335 200zM803 1448v-16q158 -34 245 -138.5t118.5 -251t31.5 -323.5q0 -208 -43 -349t-130 -223t-220 -114l-2 -15q160 26 258 110t143 194.5t56.5 211t11.5 201.5q0 253 -66 402.5t-167.5 215.5
t-235.5 95z" />
    <glyph glyph-name="one" unicode="1" horiz-adv-x="788" 
d="M367 41h67v1384l-67 -32v-1352zM463 1481h102q-15 -75 -20.5 -288.5t-5.5 -440.5v-273q0 -218 26 -432l207 -35v-10h-729v12l260 35q16 115 25.5 317.5t9.5 323.5v246q0 76 -6.5 195.5t-18.5 199.5l-247 -37v11z" />
    <glyph glyph-name="two" unicode="2" horiz-adv-x="1087" 
d="M1071 362l-47 -362h-987v55q48 36 98 72.5t100 76t122 104.5t122 116q149 147 237.5 290t88.5 271q0 95 -46.5 172.5t-121 122.5t-148.5 45q-131 0 -213 -83t-92 -191h-18q0 3 -1.5 31t-2.5 40q0 115 51 197t137.5 122t194.5 40q94 0 178 -32.5t146 -90t97 -133
t35 -162.5q0 -96 -38 -192.5t-102.5 -185t-151.5 -175.5q-84 -84 -215.5 -188.5t-286.5 -217.5q27 -6 64 -14t91.5 -15t125.5 -11.5t165 -4.5q198 0 301 27l105 276h12zM360 285l9 -15q149 121 246.5 216t161.5 182.5t96 173t32 166.5q0 122 -61.5 212t-152.5 136.5
t-173 46.5q-210 0 -315 -203h10q43 70 110.5 112t163.5 42t176 -49.5t126.5 -134.5t46.5 -185q0 -103 -54 -214.5t-159 -232.5t-263 -253z" />
    <glyph glyph-name="three" unicode="3" horiz-adv-x="1087" 
d="M606 780l8 -8q117 57 182.5 133t65.5 191q0 103 -46.5 179t-126 116.5t-167.5 40.5q-84 0 -155.5 -33.5t-112.5 -95.5l6 -5q105 93 248 93q71 0 136.5 -33.5t106 -99t40.5 -154.5q0 -208 -185 -324zM612 743l-8 -12q76 -29 126.5 -76.5t74.5 -108t24 -130.5
q0 -84 -38 -165t-117 -134.5t-191 -53.5q-47 0 -83 6t-65.5 16t-60.5 21v-10q69 -33 126 -48t118 -15q101 0 189.5 49.5t141 136.5t52.5 189q0 81 -39 151t-103.5 116t-146.5 68zM190 1149v47q0 64 36.5 129.5t116.5 110.5t200 45q139 0 233.5 -53t140.5 -133.5t46 -161.5
q0 -73 -29.5 -140.5t-96 -127t-173.5 -103.5v-4q152 -22 249 -116t97 -247q0 -101 -55 -195.5t-162.5 -154t-257.5 -59.5q-111 0 -205.5 36.5t-169 113t-121.5 190.5l10 4q80 -108 190.5 -176t237.5 -68q81 0 154 37.5t118.5 113t45.5 177.5q0 113 -71.5 205t-229.5 120v13
q122 45 193 136t71 212q0 93 -41.5 154t-100.5 86.5t-112 25.5q-47 0 -110.5 -18.5t-116.5 -66t-70 -132.5h-17z" />
    <glyph glyph-name="four" unicode="4" horiz-adv-x="1174" 
d="M791 1397l-70 -80v-1276h70v1356zM487 549h-460v45l774 889h104q-1 -27 -2.5 -73t-3.5 -92t-2 -73v-420q0 -91 4 -207q26 -6 86 -6q65 0 106.5 9t69.5 28h8l-32 -102h-119q-61 0 -117 -6q-8 -75 -8 -193q0 -172 31 -301l243 -31v-14h-753v14l241 31q18 76 27.5 168
t9.5 180q0 82 -6 146q-130 8 -201 8zM694 813q0 129 -4.5 251t-13.5 187q-107 -101 -279.5 -305t-255.5 -325q113 -9 303 -9q124 0 244 6q6 74 6 195z" />
    <glyph glyph-name="five" unicode="5" horiz-adv-x="981" 
d="M412 1427h-66l-162 -544l70 14zM881 1403h-369q-53 -156 -88 -278t-57 -218h79q124 0 214.5 -36.5t144.5 -95.5t78 -128.5t24 -140.5q0 -106 -49 -201.5t-133.5 -168t-184 -111.5t-198.5 -39q-83 0 -165 18.5t-148 50.5l8 11q63 -21 137 -21q110 0 204.5 35t164 98.5
t107.5 147.5t38 180q0 94 -39 161t-101 106.5t-135.5 57t-146.5 17.5q-50 0 -125 -10q41 135 62.5 205.5t46 153.5t44 151.5t30.5 117.5h407q115 0 176 41h6zM379 868l-2 -8q71 -9 136 -36.5t112 -73.5t72.5 -108.5t25.5 -143.5q0 -79 -30.5 -159t-92 -147t-153 -111.5
t-209.5 -53.5v-11h53q126 0 244 67t190 180t72 243q0 90 -32.5 160t-85.5 113.5t-121.5 66t-141.5 22.5h-37z" />
    <glyph glyph-name="six" unicode="6" horiz-adv-x="1174" 
d="M317 692v-129q0 -150 42.5 -266t112.5 -177t149 -61q71 0 133.5 53t100.5 153.5t38 228.5q0 133 -42 216t-102.5 116.5t-125.5 33.5q-93 0 -168.5 -45.5t-137.5 -122.5zM1171 1430l-4 -15q-72 23 -149 23q-105 0 -218 -44.5t-209.5 -130.5t-166.5 -217.5t-96 -302.5l4 -4
q69 104 167 166t210 62q96 0 170 -36t126.5 -99.5t78.5 -146t26 -173.5q0 -117 -41 -214t-111 -167t-150.5 -105.5t-162.5 -35.5q-173 0 -297.5 91.5t-187 239t-62.5 310.5t58 319.5t163 277t243 189t298 68.5q84 0 168 -14.5t143 -40.5zM524 872v-6q36 21 103 21
q92 0 159 -45.5t103.5 -136t36.5 -220.5q0 -128 -38.5 -223t-96.5 -148.5t-115 -68.5v-10q91 19 165.5 81.5t116 160.5t41.5 225q0 140 -45 232t-118.5 134.5t-159.5 42.5q-33 0 -80 -11t-72 -28zM578 14v13q-109 16 -194 98t-131 210.5t-46 282.5q0 162 52.5 306.5
t146 258.5t219 185t262.5 86v10q-147 0 -283.5 -65t-242.5 -179t-167 -265t-61 -314q0 -167 59 -305t160.5 -222.5t225.5 -99.5z" />
    <glyph glyph-name="seven" unicode="7" horiz-adv-x="1087" 
d="M928 1434h-76l-356 -1182q-27 -88 -57.5 -157t-69.5 -103l8 -6q135 86 192 272zM238 1473h833q-55 -107 -125 -332l-229 -750q-47 -158 -98.5 -249.5t-134.5 -140.5t-218 -58v12q73 19 120 102.5t81 200.5l235 770q18 55 34.5 118.5t30.5 121.5t21 110q-129 31 -309 31
q-94 0 -173.5 -3.5t-158.5 -14.5l-75 -236h-13l25 332q66 -14 154 -14z" />
    <glyph glyph-name="eight" unicode="8" horiz-adv-x="1280" 
d="M664 1481q133 0 232.5 -46t151.5 -128.5t52 -184.5q0 -115 -77.5 -208.5t-215.5 -129.5v-4q141 -59 217.5 -101.5t130 -119t53.5 -190.5q0 -146 -112 -258q-65 -65 -160.5 -95t-273.5 -30q-159 0 -271 32.5t-182 102.5q-100 99 -100 248q0 87 40 165.5t118.5 134
t193.5 74.5q-73 45 -126.5 100t-84.5 123.5t-31 145.5q0 63 21.5 125t73.5 118.5t140 91t210 34.5zM737 25v-9q133 7 213.5 57.5t115 124.5t34.5 158q0 119 -82 201q-44 44 -107 76.5t-177.5 82.5t-183.5 87.5t-122 89.5q-55 55 -84 116t-29 119q0 63 30 132.5t99 122
t179 63.5v12q-78 0 -164.5 -39t-146.5 -118t-60 -193q0 -59 29 -125.5t84 -120.5q65 -63 137.5 -104.5t188 -92t170.5 -78.5t93 -67q76 -75 76 -188q0 -119 -78 -205t-215 -102zM668 1423q-70 0 -131 -35t-95 -95.5t-34 -133.5q0 -46 17.5 -91t54 -88t98 -83.5t141.5 -77.5
q77 21 135.5 99t58.5 194q0 146 -72.5 228.5t-172.5 82.5zM715 1454v-12q122 -28 177.5 -124.5t55.5 -205.5q0 -66 -21.5 -126t-64.5 -107t-108 -74l12 -6q246 92 246 311q0 140 -82.5 231.5t-214.5 112.5zM535 700q-91 -18 -158.5 -107.5t-67.5 -217.5q0 -93 43.5 -169
t124.5 -119.5t193 -43.5q111 0 186 47.5t108 113.5t33 122q0 82 -39 135.5t-97 86t-168 79t-158 73.5zM496 721l-7 6q-103 -17 -182 -67t-122.5 -126t-43.5 -165q0 -93 51.5 -172.5t145.5 -129t217 -55.5v11q-111 10 -190.5 63.5t-119.5 131t-40 157.5q0 101 72.5 204
t218.5 142z" />
    <glyph glyph-name="nine" unicode="9" horiz-adv-x="1174" 
d="M580 1413q-73 0 -135.5 -55t-100 -153.5t-37.5 -221.5q0 -172 73.5 -271.5t201.5 -99.5q70 0 159 43t140 119q2 29 2 105q0 128 -25 230t-69.5 169.5t-98 101t-110.5 33.5zM29 39l6 12q83 -18 145 -18q191 0 344 106t243.5 268t104.5 316l-4 4q-78 -112 -180.5 -167.5
t-200.5 -55.5q-113 0 -204.5 58t-142 163t-50.5 240q0 124 59.5 243.5t167 196t244.5 76.5q152 0 274.5 -81t193.5 -229.5t71 -341.5q0 -141 -52.5 -292t-151.5 -275t-244 -200t-324 -76q-71 0 -124.5 8t-97.5 20.5t-77 24.5zM686 582v14q-69 -33 -147 -33q-82 0 -145 30.5
t-107 88t-67 133.5t-23 162q0 122 46 225t122 165.5t163 76.5v16q-114 -17 -207.5 -92t-144.5 -186t-51 -234q0 -113 48 -209.5t131 -153.5t185 -57q53 0 96 13.5t101 40.5zM623 1444v-14q91 -21 157.5 -97t102 -195.5t35.5 -265.5q0 -194 -59 -349.5t-152.5 -262
t-197.5 -164.5t-192 -67v-13q197 15 350.5 133.5t237.5 302.5t84 388q0 114 -28.5 218.5t-80 188.5t-118.5 136t-139 61z" />
    <glyph glyph-name="colon" unicode=":" horiz-adv-x="492" 
d="M260 655v183q-44 -4 -67 -29.5t-23 -60.5t24.5 -62.5t65.5 -30.5zM260 868q51 0 87 -36t36 -87q0 -50 -36 -86t-87 -36q-49 0 -86 36t-37 86q0 51 37 87t86 36zM258 20v183q-41 -4 -64.5 -29t-23.5 -61q0 -35 23 -62t65 -31zM258 233q51 0 88 -36t37 -86q0 -53 -37 -88
t-88 -35q-52 0 -87.5 35.5t-35.5 87.5q0 50 36 86t87 36z" />
    <glyph glyph-name="semicolon" unicode=";" horiz-adv-x="492" 
d="M258 655v183q-42 -4 -65 -29.5t-23 -60.5q0 -36 24 -63t64 -30zM258 868q51 0 88 -36t37 -87t-37.5 -86.5t-87.5 -35.5q-51 0 -87 36t-36 86q0 51 36 87t87 36zM260 16v183q-90 -9 -90 -95q0 -34 23 -58t67 -30zM188 -184l-10 10q74 74 80 162q-54 0 -87.5 35.5
t-33.5 80.5q0 52 32.5 88.5t90.5 36.5q61 0 91 -45t30 -94q0 -103 -65.5 -175t-127.5 -99z" />
    <glyph glyph-name="less" unicode="&#x3c;" horiz-adv-x="1124" 
d="M53 471v127l1018 471v-127l-887 -407l887 -408v-127z" />
    <glyph glyph-name="equal" unicode="=" horiz-adv-x="1124" 
d="M1100 799v-113h-1077v113h1077zM1100 401v-112h-1077v112h1077z" />
    <glyph glyph-name="greater" unicode="&#x3e;" horiz-adv-x="1124" 
d="M1071 598v-127l-1018 -471v127l887 408l-887 407v127z" />
    <glyph glyph-name="question" unicode="?" horiz-adv-x="598" 
d="M90 1395l-6 8q78 78 184 78q70 0 131 -35.5t95 -97.5t34 -136q0 -96 -44 -181.5t-131 -201t-127 -183.5t-40 -142q0 -68 42 -115t100 -53v-14q-101 0 -171.5 83.5t-70.5 206.5q0 93 34 177t97 185t91 155.5t28 115.5q0 49 -18 89t-53.5 63.5t-82.5 23.5q-20 0 -44.5 -6.5
t-47.5 -19.5zM248 20v181q-39 -3 -64.5 -29.5t-25.5 -67.5q0 -29 25 -55t65 -29zM272 1427v-6q95 -66 95 -188q0 -61 -29.5 -120t-94 -164t-97.5 -184.5t-33 -170.5q0 -46 12.5 -82.5t38.5 -81.5l10 6q-29 39 -29 117q0 85 36 164t103.5 181.5t101.5 169t34 136.5
q0 39 -10 73.5t-30 65.5t-47.5 53t-60.5 31zM248 231q50 0 85.5 -35.5t35.5 -86.5q0 -52 -35.5 -87.5t-85.5 -35.5q-51 0 -87 36t-36 87q0 50 36 86t87 36z" />
    <glyph glyph-name="at" unicode="@" horiz-adv-x="1886" 
d="M1413 958l-117 -399l-61 -215q-27 -105 -33 -160v-4q0 -34 22 -56t56 -22q55 0 126 42.5t122 103.5q81 101 127.5 234.5t46.5 267.5t-47 248t-132 197.5t-201 129t-253 45.5q-152 0 -286.5 -46.5t-245 -137.5t-191.5 -225q-73 -122 -111 -262t-38 -285q0 -227 99.5 -409
t277.5 -284t399 -102q277 0 486 143t323 410h57q-43 -136 -126 -249.5t-198 -195.5t-251.5 -125.5t-286.5 -43.5q-185 0 -346 65.5t-281 185.5t-185 281.5t-65 349.5q0 206 72.5 385.5t202 314t305.5 209t379 74.5t364 -87t249.5 -244.5t88.5 -356.5q0 -141 -42.5 -268.5
t-117.5 -225.5t-174.5 -154t-207.5 -56q-85 0 -123.5 34t-38.5 109q0 48 18 137l-4 4q-89 -112 -160 -176q-54 -48 -115.5 -78t-111.5 -30q-80 0 -132 67t-52 174q0 81 32.5 176t90 188t129.5 167q79 79 156 120.5t145 41.5q139 0 168 -140h4l30 111zM1061 918
q-70 0 -148 -76.5t-149 -214.5q-47 -88 -77 -180.5t-30 -143.5q0 -67 33.5 -109t85.5 -42q39 0 87 25t87 65q42 40 85 97.5t65 100.5q35 68 69 205q17 73 17 119q0 48 -15.5 82t-44.5 53t-65 19z" />
    <glyph glyph-name="A" unicode="A" 
d="M784 1282l519 -1243h67l-553 1327zM768 1198q-27 -53 -71.5 -155t-80.5 -191t-75 -189.5t-52 -132.5q59 -8 137.5 -11t149.5 -3q175 0 287 14q-38 113 -129 321.5t-166 346.5zM874 1479l433 -1033q84 -202 196 -401l166 -35v-10h-706v10l272 35q-15 99 -55.5 215.5
t-89.5 202.5h-627q-40 -101 -64.5 -166t-47 -135t-29.5 -117l262 -35v-10h-559v10l184 35q67 116 123 256l463 1178h79z" />
    <glyph glyph-name="A" unicode="a" 
d="M784 1282l519 -1243h67l-553 1327zM768 1198q-27 -53 -71.5 -155t-80.5 -191t-75 -189.5t-52 -132.5q59 -8 137.5 -11t149.5 -3q175 0 287 14q-38 113 -129 321.5t-166 346.5zM874 1479l433 -1033q84 -202 196 -401l166 -35v-10h-706v10l272 35q-15 99 -55.5 215.5
t-89.5 202.5h-627q-40 -101 -64.5 -166t-47 -135t-29.5 -117l262 -35v-10h-559v10l184 35q67 116 123 256l463 1178h79z" />
    <glyph glyph-name="B" unicode="B" horiz-adv-x="1366" 
d="M23 10l251 37q17 82 27 281.5t10 310.5v322q0 136 -7 260.5t-19 197.5l-260 35v10h743q160 0 254 -51.5t132 -128.5t38 -162q0 -152 -101.5 -240.5t-246.5 -101.5v-4q150 -7 255.5 -62t159.5 -141.5t54 -185.5q0 -84 -41.5 -172t-151 -151.5t-293.5 -63.5h-804v10z
M655 1409q-77 0 -116 -12q-25 -160 -25 -379q0 -160 6 -205q44 -18 119 -18q100 0 178 36.5t123 108t45 176.5q0 81 -34 147.5t-108 106t-188 39.5zM657 741q-98 0 -137 -14q-8 -73 -8 -238q0 -196 14 -376q57 -32 102.5 -44t112.5 -12q106 0 185 36.5t123.5 109.5t44.5 178
t-50.5 186t-149 127.5t-237.5 46.5zM340 1427v-1388h70v1388h-70zM682 1440v-8q109 -3 185.5 -44.5t114.5 -113t38 -164.5q0 -88 -33.5 -154.5t-85.5 -104.5t-108 -52v-11q139 19 216.5 110.5t77.5 217.5q0 78 -25.5 139t-73 103.5t-108.5 64t-139 21.5q-19 0 -59 -4z
M793 760v-8q88 -16 165 -62.5t123.5 -125t46.5 -187.5q0 -89 -38.5 -166.5t-125 -127.5t-216.5 -50v-8q16 -5 59 -5q126 0 216 50.5t134.5 132.5t44.5 174q0 110 -47 195t-139.5 134.5t-222.5 53.5z" />
    <glyph glyph-name="B" unicode="b" horiz-adv-x="1366" 
d="M23 10l251 37q17 82 27 281.5t10 310.5v322q0 136 -7 260.5t-19 197.5l-260 35v10h743q160 0 254 -51.5t132 -128.5t38 -162q0 -152 -101.5 -240.5t-246.5 -101.5v-4q150 -7 255.5 -62t159.5 -141.5t54 -185.5q0 -84 -41.5 -172t-151 -151.5t-293.5 -63.5h-804v10z
M655 1409q-77 0 -116 -12q-25 -160 -25 -379q0 -160 6 -205q44 -18 119 -18q100 0 178 36.5t123 108t45 176.5q0 81 -34 147.5t-108 106t-188 39.5zM657 741q-98 0 -137 -14q-8 -73 -8 -238q0 -196 14 -376q57 -32 102.5 -44t112.5 -12q106 0 185 36.5t123.5 109.5t44.5 178
t-50.5 186t-149 127.5t-237.5 46.5zM340 1427v-1388h70v1388h-70zM682 1440v-8q109 -3 185.5 -44.5t114.5 -113t38 -164.5q0 -88 -33.5 -154.5t-85.5 -104.5t-108 -52v-11q139 19 216.5 110.5t77.5 217.5q0 78 -25.5 139t-73 103.5t-108.5 64t-139 21.5q-19 0 -59 -4z
M793 760v-8q88 -16 165 -62.5t123.5 -125t46.5 -187.5q0 -89 -38.5 -166.5t-125 -127.5t-216.5 -50v-8q16 -5 59 -5q126 0 216 50.5t134.5 132.5t44.5 174q0 110 -47 195t-139.5 134.5t-222.5 53.5z" />
    <glyph glyph-name="C" unicode="C" horiz-adv-x="1579" 
d="M1069 1460h-117q-174 0 -319.5 -57.5t-246 -160t-152.5 -236.5t-52 -287q0 -140 53.5 -267.5t158 -227t249.5 -155t324 -55.5q80 0 102 2v13q-199 -4 -354.5 52.5t-256.5 158t-150.5 229.5t-49.5 260q0 130 43 256t132.5 231t231.5 167.5t334 62.5h70v14zM1522 270
l-148 -274q-96 8 -139 8q-53 0 -143 -8t-140 -8q-202 0 -357.5 62.5t-256.5 169t-150 235t-49 260.5q0 169 57.5 311.5t162.5 245t245 157t301 54.5q42 0 53 -0.5t48 -2t75 -3.5q135 -9 207 -9q160 0 209 9l12 -336h-12l-67 223q-30 7 -106 20t-148.5 21t-151.5 8
q-206 0 -352.5 -82.5t-220.5 -234t-74 -348.5q0 -153 53 -281.5t148 -219t216.5 -137.5t256.5 -47q134 0 251 45.5t209 165.5z" />
    <glyph glyph-name="C" unicode="c" horiz-adv-x="1579" 
d="M1069 1460h-117q-174 0 -319.5 -57.5t-246 -160t-152.5 -236.5t-52 -287q0 -140 53.5 -267.5t158 -227t249.5 -155t324 -55.5q80 0 102 2v13q-199 -4 -354.5 52.5t-256.5 158t-150.5 229.5t-49.5 260q0 130 43 256t132.5 231t231.5 167.5t334 62.5h70v14zM1522 270
l-148 -274q-96 8 -139 8q-53 0 -143 -8t-140 -8q-202 0 -357.5 62.5t-256.5 169t-150 235t-49 260.5q0 169 57.5 311.5t162.5 245t245 157t301 54.5q42 0 53 -0.5t48 -2t75 -3.5q135 -9 207 -9q160 0 209 9l12 -336h-12l-67 223q-30 7 -106 20t-148.5 21t-151.5 8
q-206 0 -352.5 -82.5t-220.5 -234t-74 -348.5q0 -153 53 -281.5t148 -219t216.5 -137.5t256.5 -47q134 0 251 45.5t209 165.5z" />
    <glyph glyph-name="D" unicode="D" horiz-adv-x="1772" 
d="M35 1464h823q230 0 391.5 -66.5t255 -173.5t134 -233t40.5 -256q0 -158 -52.5 -293.5t-151 -235t-232 -153t-293.5 -53.5h-921v10l243 35q17 85 27 281.5t10 308.5v262q0 291 -26 520l-248 37v10zM510 963v-584q0 -129 14 -262q64 -30 145 -44t162 -14q112 0 221 42.5
t196.5 125.5t140.5 211.5t53 294.5q0 174 -56 301.5t-154.5 209t-225.5 120.5t-267 39q-113 0 -204 -25q-6 -38 -11.5 -108.5t-9.5 -165.5t-4 -141zM338 1425v-1386h70v1386h-70zM700 1440v-10q145 0 260.5 -25t194 -68t135.5 -100q59 -59 101.5 -136t67 -171t24.5 -199
q0 -233 -100 -391t-246 -231.5t-277 -73.5h-76v-10h76q218 0 377.5 95.5t241.5 257t82 349.5q0 168 -58.5 299.5t-146.5 218.5q-189 195 -596 195h-60z" />
    <glyph glyph-name="D" unicode="d" horiz-adv-x="1772" 
d="M35 1464h823q230 0 391.5 -66.5t255 -173.5t134 -233t40.5 -256q0 -158 -52.5 -293.5t-151 -235t-232 -153t-293.5 -53.5h-921v10l243 35q17 85 27 281.5t10 308.5v262q0 291 -26 520l-248 37v10zM510 963v-584q0 -129 14 -262q64 -30 145 -44t162 -14q112 0 221 42.5
t196.5 125.5t140.5 211.5t53 294.5q0 174 -56 301.5t-154.5 209t-225.5 120.5t-267 39q-113 0 -204 -25q-6 -38 -11.5 -108.5t-9.5 -165.5t-4 -141zM338 1425v-1386h70v1386h-70zM700 1440v-10q145 0 260.5 -25t194 -68t135.5 -100q59 -59 101.5 -136t67 -171t24.5 -199
q0 -233 -100 -391t-246 -231.5t-277 -73.5h-76v-10h76q218 0 377.5 95.5t241.5 257t82 349.5q0 168 -58.5 299.5t-146.5 218.5q-189 195 -596 195h-60z" />
    <glyph glyph-name="E" unicode="E" horiz-adv-x="1174" 
d="M324 1425v-1386h69v1386h-69zM20 1454v10h1065l25 -311h-16l-72 244q-85 6 -191 6q-193 0 -311 -27q-20 -162 -20 -370q0 -130 8 -211q158 -9 201 -9q113 0 233 13l45 170h17v-426h-17l-47 180q-87 10 -192 10q-132 0 -240 -12q-13 -116 -8 -227q2 -142 5 -234.5
t11 -159.5q122 -37 320 -37q114 0 192 9l80 241h14l-22 -313h-1077v10l239 35q8 41 14.5 125t11.5 188.5t7 175t2 123.5v252q0 48 -3 136.5t-9 183.5t-17 190z" />
    <glyph glyph-name="E" unicode="e" horiz-adv-x="1174" 
d="M324 1425v-1386h69v1386h-69zM20 1454v10h1065l25 -311h-16l-72 244q-85 6 -191 6q-193 0 -311 -27q-20 -162 -20 -370q0 -130 8 -211q158 -9 201 -9q113 0 233 13l45 170h17v-426h-17l-47 180q-87 10 -192 10q-132 0 -240 -12q-13 -116 -8 -227q2 -142 5 -234.5
t11 -159.5q122 -37 320 -37q114 0 192 9l80 241h14l-22 -313h-1077v10l239 35q8 41 14.5 125t11.5 188.5t7 175t2 123.5v252q0 48 -3 136.5t-9 183.5t-17 190z" />
    <glyph glyph-name="F" unicode="F" horiz-adv-x="1174" 
d="M326 1425v-1388h69v1388h-69zM23 1464h1069l20 -317h-14l-72 252q-111 6 -186 6q-189 0 -318 -29q-8 -69 -15 -190t-7 -185q0 -70 8 -204q93 -11 217 -11q131 0 217 11l49 172h13v-428h-13l-49 182q-57 6 -109.5 8t-109.5 2q-54 0 -217 -10q-6 -105 -6 -215
q0 -77 8 -228.5t20 -234.5l250 -35v-10h-755v10l241 35q15 105 24 283t9 299v278q0 52 -3.5 153.5t-9 198t-16.5 160.5l-245 37v10z" />
    <glyph glyph-name="F" unicode="f" horiz-adv-x="1174" 
d="M326 1425v-1388h69v1388h-69zM23 1464h1069l20 -317h-14l-72 252q-111 6 -186 6q-189 0 -318 -29q-8 -69 -15 -190t-7 -185q0 -70 8 -204q93 -11 217 -11q131 0 217 11l49 172h13v-428h-13l-49 182q-57 6 -109.5 8t-109.5 2q-54 0 -217 -10q-6 -105 -6 -215
q0 -77 8 -228.5t20 -234.5l250 -35v-10h-755v10l241 35q15 105 24 283t9 299v278q0 52 -3.5 153.5t-9 198t-16.5 160.5l-245 37v10z" />
    <glyph glyph-name="G" unicode="G" 
d="M1307 522v-391l67 25v366h-67zM1667 551l-160 -37q-13 -73 -21 -187t-7 -204q-115 -45 -187.5 -69t-173 -43t-219.5 -19q-197 0 -347 62t-247.5 166.5t-144.5 232.5t-47 258q0 153 52 292.5t153 249t247.5 172t331.5 62.5q29 0 45.5 -1t41.5 -2t67 -3q122 -8 231 -8
q101 0 164 6l14 -334h-14l-64 223q-38 10 -95 20.5t-128.5 18.5t-154.5 8q-175 0 -304 -56.5t-207.5 -152t-114.5 -211.5t-36 -237q0 -137 50.5 -259t143 -216t215.5 -146.5t261 -52.5q36 0 74 4t78.5 10.5t92.5 14.5q21 89 21 188q0 137 -21 215l-258 35v12h668v-12z
M1018 1450v8q-67 6 -121 6q-162 0 -298.5 -56t-236 -157.5t-154 -241t-54.5 -298.5q0 -186 93 -345.5t267 -253.5t410 -94q44 0 120 9v8q-220 -1 -378 60t-255 166t-140.5 230t-43.5 250q0 154 49.5 284t144.5 225t238.5 147.5t323.5 52.5h35z" />
    <glyph glyph-name="G" unicode="g" 
d="M1307 522v-391l67 25v366h-67zM1667 551l-160 -37q-13 -73 -21 -187t-7 -204q-115 -45 -187.5 -69t-173 -43t-219.5 -19q-197 0 -347 62t-247.5 166.5t-144.5 232.5t-47 258q0 153 52 292.5t153 249t247.5 172t331.5 62.5q29 0 45.5 -1t41.5 -2t67 -3q122 -8 231 -8
q101 0 164 6l14 -334h-14l-64 223q-38 10 -95 20.5t-128.5 18.5t-154.5 8q-175 0 -304 -56.5t-207.5 -152t-114.5 -211.5t-36 -237q0 -137 50.5 -259t143 -216t215.5 -146.5t261 -52.5q36 0 74 4t78.5 10.5t92.5 14.5q21 89 21 188q0 137 -21 215l-258 35v12h668v-12z
M1018 1450v8q-67 6 -121 6q-162 0 -298.5 -56t-236 -157.5t-154 -241t-54.5 -298.5q0 -186 93 -345.5t267 -253.5t410 -94q44 0 120 9v8q-220 -1 -378 60t-255 166t-140.5 230t-43.5 250q0 154 49.5 284t144.5 225t238.5 147.5t323.5 52.5h35z" />
    <glyph glyph-name="H" unicode="H" horiz-adv-x="1855" 
d="M1446 1427v-1388h70v1388h-70zM289 1425v-1386h69v1386h-69zM27 1464h727v-10l-265 -35q-11 -55 -18.5 -194t-7.5 -236q0 -84 6 -207q146 -28 438 -28q145 0 272 6t232 22q8 97 8 232q0 80 -4.5 160.5t-9.5 129.5t-14 117l-265 33v10h727v-10l-204 -33
q-16 -74 -23.5 -249.5t-7.5 -340.5v-335q0 -301 31 -451l206 -35v-10h-729v10l260 35q28 170 33 373q2 52 0 126.5t-8 155.5h-944q-4 -75 -4 -235q0 -95 6.5 -221.5t22.5 -198.5l262 -35v-10h-729v10l202 35q7 40 15 143.5t13 233t5 217.5v369q0 16 -3 105.5t-10.5 178
t-15.5 129.5l-204 33v10z" />
    <glyph glyph-name="H" unicode="h" horiz-adv-x="1855" 
d="M1446 1427v-1388h70v1388h-70zM289 1425v-1386h69v1386h-69zM27 1464h727v-10l-265 -35q-11 -55 -18.5 -194t-7.5 -236q0 -84 6 -207q146 -28 438 -28q145 0 272 6t232 22q8 97 8 232q0 80 -4.5 160.5t-9.5 129.5t-14 117l-265 33v10h727v-10l-204 -33
q-16 -74 -23.5 -249.5t-7.5 -340.5v-335q0 -301 31 -451l206 -35v-10h-729v10l260 35q28 170 33 373q2 52 0 126.5t-8 155.5h-944q-4 -75 -4 -235q0 -95 6.5 -221.5t22.5 -198.5l262 -35v-10h-729v10l202 35q7 40 15 143.5t13 233t5 217.5v369q0 16 -3 105.5t-10.5 178
t-15.5 129.5l-204 33v10z" />
    <glyph glyph-name="I" unicode="I" horiz-adv-x="788" 
d="M340 1425v-1386h70v1386h-70zM791 0h-756v10l244 37q17 125 25.5 301.5t8.5 345.5v168q0 343 -30 557l-248 35v10h756v-10l-250 -35q-11 -97 -16 -175.5t-9 -190t-4 -209.5v-221q0 -61 4.5 -199.5t12 -234.5t14.5 -144l248 -35v-10z" />
    <glyph glyph-name="I" unicode="&#x131;" horiz-adv-x="788" 
d="M340 1425v-1386h70v1386h-70zM791 0h-756v10l244 37q17 125 25.5 301.5t8.5 345.5v168q0 343 -30 557l-248 35v10h756v-10l-250 -35q-11 -97 -16 -175.5t-9 -190t-4 -209.5v-221q0 -61 4.5 -199.5t12 -234.5t14.5 -144l248 -35v-10z" />
    <glyph glyph-name="I" unicode="i" horiz-adv-x="788" 
d="M340 1425v-1386h70v1386h-70zM791 0h-756v10l244 37q17 125 25.5 301.5t8.5 345.5v168q0 343 -30 557l-248 35v10h756v-10l-250 -35q-11 -97 -16 -175.5t-9 -190t-4 -209.5v-221q0 -61 4.5 -199.5t12 -234.5t14.5 -144l248 -35v-10z" />
    <glyph glyph-name="J" unicode="J" horiz-adv-x="1087" 
d="M680 1425v-1046q0 -72 -27 -153.5t-94.5 -140.5t-179.5 -60l4 -11q136 7 217 62t115.5 149t34.5 226v974h-70zM854 946v-452q0 -249 -123.5 -378.5t-329.5 -129.5q-34 0 -88 5.5t-109.5 15.5t-107.5 28l-41 327h15l102 -251q97 -64 199 -64q108 0 195 83.5t87 287.5v489
q0 109 -8 269t-20 243l-265 35v10h727v-10l-208 -37q-25 -228 -25 -471z" />
    <glyph glyph-name="J" unicode="j" horiz-adv-x="1087" 
d="M680 1425v-1046q0 -72 -27 -153.5t-94.5 -140.5t-179.5 -60l4 -11q136 7 217 62t115.5 149t34.5 226v974h-70zM854 946v-452q0 -249 -123.5 -378.5t-329.5 -129.5q-34 0 -88 5.5t-109.5 15.5t-107.5 28l-41 327h15l102 -251q97 -64 199 -64q108 0 195 83.5t87 287.5v489
q0 109 -8 269t-20 243l-265 35v10h727v-10l-208 -37q-25 -228 -25 -471z" />
    <glyph glyph-name="K" unicode="K" 
d="M315 1425v-1388h72v1388h-72zM651 844l-45 -45l627 -762h84zM774 10v-10h-749v10l227 31q12 83 20 200t12.5 227t4.5 200v282q0 119 -8.5 255.5t-20.5 211.5l-235 37v10h751v-10l-260 -37q-10 -72 -17 -193t-7 -175v-258q68 47 153 121.5t191 174.5q215 205 319 330
l-235 37v10h571v-10l-197 -35q-25 -17 -84 -70t-142 -131t-180 -168t-147 -135q59 -100 181 -243l221 -271q196 -236 338 -356l184 -35v-10h-700v10l190 35q-61 102 -159.5 233t-209 262.5t-202.5 229.5l-95 -88v-219q0 -58 8 -204.5t19 -213.5z" />
    <glyph glyph-name="K" unicode="k" 
d="M315 1425v-1388h72v1388h-72zM651 844l-45 -45l627 -762h84zM774 10v-10h-749v10l227 31q12 83 20 200t12.5 227t4.5 200v282q0 119 -8.5 255.5t-20.5 211.5l-235 37v10h751v-10l-260 -37q-10 -72 -17 -193t-7 -175v-258q68 47 153 121.5t191 174.5q215 205 319 330
l-235 37v10h571v-10l-197 -35q-25 -17 -84 -70t-142 -131t-180 -168t-147 -135q59 -100 181 -243l221 -271q196 -236 338 -356l184 -35v-10h-700v10l190 35q-61 102 -159.5 233t-209 262.5t-202.5 229.5l-95 -88v-219q0 -58 8 -204.5t19 -213.5z" />
    <glyph glyph-name="L" unicode="L" horiz-adv-x="1280" 
d="M340 1427v-1388h70v1388h-70zM37 1454v10h756v-10l-248 -35q-13 -97 -22 -261.5t-9 -287.5v-430q0 -155 16 -323q171 -54 353 -54q88 0 162 10t104 19l104 273h15l-47 -365h-1186v10l239 35q12 48 20.5 171t13.5 254t5 185v252q0 83 -4 190.5t-9.5 188.5t-14.5 133z" />
    <glyph glyph-name="L" unicode="l" horiz-adv-x="1280" 
d="M340 1427v-1388h70v1388h-70zM37 1454v10h756v-10l-248 -35q-13 -97 -22 -261.5t-9 -287.5v-430q0 -155 16 -323q171 -54 353 -54q88 0 162 10t104 19l104 273h15l-47 -365h-1186v10l239 35q12 48 20.5 171t13.5 254t5 185v252q0 83 -4 190.5t-9.5 188.5t-14.5 133z" />
    <glyph glyph-name="M" unicode="M" horiz-adv-x="2154" 
d="M276 1425l723 -1335l35 68l-688 1267h-70zM1733 1360l-58 -117l88 -1204h72l-98 1321h-4zM27 1464h430q54 -120 92 -196t92 -178l281 -521q104 -188 174 -282q58 94 184 336l256 481q110 209 168 360h428v-10l-266 -37q-6 -88 -6 -176q0 -92 17.5 -376.5t42.5 -530
t46 -289.5l184 -35v-10h-686v10l238 35q8 76 8 205q0 71 -5 185.5t-15.5 263t-25.5 274.5t-28 170q-47 -75 -98 -172l-389 -729q-92 -179 -123 -256h-14q-21 46 -72 147t-82 158l-326 604q-83 154 -137 246q-7 -40 -21 -182t-26.5 -308t-19 -283t-6.5 -184q0 -47 4 -137
l190 -37v-10h-491v10l190 37q14 42 38 277t42 483.5t18 359.5q0 39 -4 121q-29 60 -112 129l-170 37v10z" />
    <glyph glyph-name="M" unicode="m" horiz-adv-x="2154" 
d="M276 1425l723 -1335l35 68l-688 1267h-70zM1733 1360l-58 -117l88 -1204h72l-98 1321h-4zM27 1464h430q54 -120 92 -196t92 -178l281 -521q104 -188 174 -282q58 94 184 336l256 481q110 209 168 360h428v-10l-266 -37q-6 -88 -6 -176q0 -92 17.5 -376.5t42.5 -530
t46 -289.5l184 -35v-10h-686v10l238 35q8 76 8 205q0 71 -5 185.5t-15.5 263t-25.5 274.5t-28 170q-47 -75 -98 -172l-389 -729q-92 -179 -123 -256h-14q-21 46 -72 147t-82 158l-326 604q-83 154 -137 246q-7 -40 -21 -182t-26.5 -308t-19 -283t-6.5 -184q0 -47 4 -137
l190 -37v-10h-491v10l190 37q14 42 38 277t42 483.5t18 359.5q0 39 -4 121q-29 60 -112 129l-170 37v10z" />
    <glyph glyph-name="N" unicode="N" horiz-adv-x="1855" 
d="M25 1454v10h505q50 -68 129.5 -164t141.5 -165l448 -498q89 -97 138.5 -150t128.5 -129q6 69 8 129t2 113v432q0 233 -23 385l-243 37v10h595v-10l-243 -39q-19 -140 -19 -358v-1096h-10q-153 194 -303 363l-612 682q-136 145 -232 231q-14 -136 -14 -254v-633
q0 -127 20 -303l254 -37v-10h-608v10l246 35q12 72 17 205t5 237v490q0 87 -3 172.5t-11 169.5l-133 98zM324 1427l1208 -1343v94l-1124 1249h-84z" />
    <glyph glyph-name="N" unicode="n" horiz-adv-x="1855" 
d="M25 1454v10h505q50 -68 129.5 -164t141.5 -165l448 -498q89 -97 138.5 -150t128.5 -129q6 69 8 129t2 113v432q0 233 -23 385l-243 37v10h595v-10l-243 -39q-19 -140 -19 -358v-1096h-10q-153 194 -303 363l-612 682q-136 145 -232 231q-14 -136 -14 -254v-633
q0 -127 20 -303l254 -37v-10h-608v10l246 35q12 72 17 205t5 237v490q0 87 -3 172.5t-11 169.5l-133 98zM324 1427l1208 -1343v94l-1124 1249h-84z" />
    <glyph glyph-name="O" unicode="O" horiz-adv-x="1772" 
d="M893 1485q213 0 369 -71t255.5 -186t146 -244.5t46.5 -248.5q0 -136 -52.5 -267t-155 -239.5t-254 -173.5t-337.5 -65q-269 0 -456 116.5t-276 288.5t-89 336q0 145 56.5 281t164 243.5t257.5 168.5t325 61zM899 1415q-155 0 -286.5 -81t-209 -234t-77.5 -361
q0 -224 84.5 -378.5t217 -229t273.5 -74.5q115 0 218 44t184 128.5t126.5 208t45.5 275.5q0 208 -48 332t-141 217q-79 79 -179.5 116t-207.5 37zM950 1456v-10q97 -7 195 -45.5t183.5 -120t137.5 -219.5t52 -332q0 -127 -30.5 -243t-98 -214t-176.5 -162t-261 -79v-11
q128 6 243 55t204.5 140.5t141.5 223.5t52 294q0 177 -54 312.5t-147 225.5t-206.5 136t-235.5 49zM852 1446v10q-140 -1 -273 -60t-234 -160t-157.5 -230t-56.5 -271q0 -174 94.5 -338.5t261.5 -267.5t367 -109v11q-194 17 -343 121t-226.5 258t-77.5 319q0 136 45 261
t130 223t205.5 159t264.5 74z" />
    <glyph glyph-name="O" unicode="o" horiz-adv-x="1772" 
d="M893 1485q213 0 369 -71t255.5 -186t146 -244.5t46.5 -248.5q0 -136 -52.5 -267t-155 -239.5t-254 -173.5t-337.5 -65q-269 0 -456 116.5t-276 288.5t-89 336q0 145 56.5 281t164 243.5t257.5 168.5t325 61zM899 1415q-155 0 -286.5 -81t-209 -234t-77.5 -361
q0 -224 84.5 -378.5t217 -229t273.5 -74.5q115 0 218 44t184 128.5t126.5 208t45.5 275.5q0 208 -48 332t-141 217q-79 79 -179.5 116t-207.5 37zM950 1456v-10q97 -7 195 -45.5t183.5 -120t137.5 -219.5t52 -332q0 -127 -30.5 -243t-98 -214t-176.5 -162t-261 -79v-11
q128 6 243 55t204.5 140.5t141.5 223.5t52 294q0 177 -54 312.5t-147 225.5t-206.5 136t-235.5 49zM852 1446v10q-140 -1 -273 -60t-234 -160t-157.5 -230t-56.5 -271q0 -174 94.5 -338.5t261.5 -267.5t367 -109v11q-194 17 -343 121t-226.5 258t-77.5 319q0 136 45 261
t130 223t205.5 159t264.5 74z" />
    <glyph glyph-name="P" unicode="P" horiz-adv-x="1280" 
d="M35 1468h694q167 0 261 -30.5t155 -91.5q51 -51 78.5 -125.5t27.5 -153.5q0 -118 -61.5 -218.5t-173 -161t-254.5 -60.5q-113 0 -205 18v10q21 -2 64 -2q112 0 207.5 38.5t153.5 120t58 204.5q0 143 -89 269t-263 126q-84 0 -149 -16q-7 -40 -15 -199t-8 -223v-477
q0 -30 4.5 -135.5t9.5 -182.5t15 -129l250 -37l-11 -12h-749l4 14l242 35q11 84 17 178t10.5 226.5t4.5 197.5v240q0 127 -8 284.5t-20 245.5l-248 35zM340 1430v-1389h70v1389h-70zM741 1444h-36v-10q113 -6 197.5 -64.5t127.5 -151.5t43 -200q0 -122 -52 -202t-124 -116
t-143 -43v-12h18q56 0 142.5 30.5t158.5 117.5t72 241q0 95 -39 190t-130.5 157.5t-234.5 62.5z" />
    <glyph glyph-name="P" unicode="p" horiz-adv-x="1280" 
d="M35 1468h694q167 0 261 -30.5t155 -91.5q51 -51 78.5 -125.5t27.5 -153.5q0 -118 -61.5 -218.5t-173 -161t-254.5 -60.5q-113 0 -205 18v10q21 -2 64 -2q112 0 207.5 38.5t153.5 120t58 204.5q0 143 -89 269t-263 126q-84 0 -149 -16q-7 -40 -15 -199t-8 -223v-477
q0 -30 4.5 -135.5t9.5 -182.5t15 -129l250 -37l-11 -12h-749l4 14l242 35q11 84 17 178t10.5 226.5t4.5 197.5v240q0 127 -8 284.5t-20 245.5l-248 35zM340 1430v-1389h70v1389h-70zM741 1444h-36v-10q113 -6 197.5 -64.5t127.5 -151.5t43 -200q0 -122 -52 -202t-124 -116
t-143 -43v-12h18q56 0 142.5 30.5t158.5 117.5t72 241q0 95 -39 190t-130.5 157.5t-234.5 62.5z" />
    <glyph glyph-name="Q" unicode="Q" horiz-adv-x="1855" 
d="M1835 242l14 -6q-39 -111 -118.5 -177.5t-202.5 -66.5q-68 0 -131.5 16.5t-155.5 50.5q-85 -37 -176 -52t-166 -15q-204 0 -361.5 69t-259 182.5t-149 241.5t-47.5 246q0 144 56 280t163 244t256 169t326 61q213 0 370 -71.5t255 -184t146 -244t48 -250.5
q0 -148 -66.5 -293.5t-183.5 -251.5q88 -40 176 -40q70 0 126 25.5t81 66.5zM1307 248q37 39 74 107t61 160.5t24 197.5q0 144 -23 245t-64 171.5t-103 132.5q-154 153 -387 153q-155 0 -286 -81t-209.5 -235.5t-78.5 -359.5q0 -151 37.5 -264t90.5 -184t104 -109
q81 93 158.5 136.5t185.5 43.5q151 0 416 -114zM942 1456v-10q105 -13 203 -53t179.5 -119t132 -215.5t50.5 -329.5q0 -270 -140.5 -473.5t-432.5 -222.5v-13q107 0 220.5 43t211.5 131.5t158.5 224.5t60.5 314q0 179 -56 315.5t-150.5 225t-209 133t-227.5 49.5zM844 1446
v10q-137 -1 -270 -60.5t-234.5 -160t-160 -230.5t-58.5 -270q0 -132 53.5 -258.5t153 -228.5t233.5 -163t291 -65v13q-152 13 -275.5 76t-208 162t-127 217t-42.5 241q0 181 79.5 338.5t226.5 258.5t339 120zM1161 129l72 47q-85 38 -129.5 57t-78.5 31t-77.5 20.5
t-87.5 8.5q-111 0 -198 -47l2 -10q53 18 112 18q68 0 150.5 -28t234.5 -97zM559 170q158 -111 340 -111q117 0 213 47q-253 119 -379 119q-107 0 -174 -55zM1368 125l-76 -43q117 -55 246 -55q150 0 242 110h-13q-68 -58 -176 -61q-91 0 -223 49z" />
    <glyph glyph-name="Q" unicode="q" horiz-adv-x="1855" 
d="M1835 242l14 -6q-39 -111 -118.5 -177.5t-202.5 -66.5q-68 0 -131.5 16.5t-155.5 50.5q-85 -37 -176 -52t-166 -15q-204 0 -361.5 69t-259 182.5t-149 241.5t-47.5 246q0 144 56 280t163 244t256 169t326 61q213 0 370 -71.5t255 -184t146 -244t48 -250.5
q0 -148 -66.5 -293.5t-183.5 -251.5q88 -40 176 -40q70 0 126 25.5t81 66.5zM1307 248q37 39 74 107t61 160.5t24 197.5q0 144 -23 245t-64 171.5t-103 132.5q-154 153 -387 153q-155 0 -286 -81t-209.5 -235.5t-78.5 -359.5q0 -151 37.5 -264t90.5 -184t104 -109
q81 93 158.5 136.5t185.5 43.5q151 0 416 -114zM942 1456v-10q105 -13 203 -53t179.5 -119t132 -215.5t50.5 -329.5q0 -270 -140.5 -473.5t-432.5 -222.5v-13q107 0 220.5 43t211.5 131.5t158.5 224.5t60.5 314q0 179 -56 315.5t-150.5 225t-209 133t-227.5 49.5zM844 1446
v10q-137 -1 -270 -60.5t-234.5 -160t-160 -230.5t-58.5 -270q0 -132 53.5 -258.5t153 -228.5t233.5 -163t291 -65v13q-152 13 -275.5 76t-208 162t-127 217t-42.5 241q0 181 79.5 338.5t226.5 258.5t339 120zM1161 129l72 47q-85 38 -129.5 57t-78.5 31t-77.5 20.5
t-87.5 8.5q-111 0 -198 -47l2 -10q53 18 112 18q68 0 150.5 -28t234.5 -97zM559 170q158 -111 340 -111q117 0 213 47q-253 119 -379 119q-107 0 -174 -55zM1368 125l-76 -43q117 -55 246 -55q150 0 242 110h-13q-68 -58 -176 -61q-91 0 -223 49z" />
    <glyph glyph-name="R" unicode="R" horiz-adv-x="1579" 
d="M309 596v309q0 119 -8 272.5t-20 241.5l-240 35v10h657q187 0 298.5 -74.5t154.5 -170t43 -164.5q0 -95 -43 -169.5t-112.5 -118.5t-141.5 -52v-4q68 -27 113 -72q35 -35 80 -98.5t119 -173.5t119 -172t83 -101q84 -84 166 -84v-10h-174q-146 0 -232 88
q-34 34 -67.5 80.5t-106 152.5t-122 175t-78.5 98q-43 43 -78.5 57.5t-104.5 14.5q-63 0 -98 -7q-6 -54 -6 -120v-185q0 -117 25 -309l249 -35v-10h-743v10l235 35q15 101 24 284t9 267zM508 1053v-164q0 -87 6 -162q39 -6 113 -6q128 0 206.5 44t112 114.5t33.5 154.5
q0 83 -32.5 153t-84 118.5t-115 75t-124.5 26.5q-58 0 -91 -8q-9 -58 -16.5 -166t-7.5 -180zM868 557l217 -315q78 -111 139 -158.5t144 -48.5v10q-79 23 -203 203l-174 250q-56 82 -105 124t-120 56l-4 -8q56 -36 106 -113zM334 1425v-1386h72v1386h-72zM608 1442v-10
q137 -3 229.5 -66.5t134.5 -155.5t42 -182q0 -200 -174 -289l6 -4q102 26 168.5 111t66.5 203q0 92 -36 166.5t-97.5 124.5t-137.5 76t-153 26h-49z" />
    <glyph glyph-name="R" unicode="r" horiz-adv-x="1579" 
d="M309 596v309q0 119 -8 272.5t-20 241.5l-240 35v10h657q187 0 298.5 -74.5t154.5 -170t43 -164.5q0 -95 -43 -169.5t-112.5 -118.5t-141.5 -52v-4q68 -27 113 -72q35 -35 80 -98.5t119 -173.5t119 -172t83 -101q84 -84 166 -84v-10h-174q-146 0 -232 88
q-34 34 -67.5 80.5t-106 152.5t-122 175t-78.5 98q-43 43 -78.5 57.5t-104.5 14.5q-63 0 -98 -7q-6 -54 -6 -120v-185q0 -117 25 -309l249 -35v-10h-743v10l235 35q15 101 24 284t9 267zM508 1053v-164q0 -87 6 -162q39 -6 113 -6q128 0 206.5 44t112 114.5t33.5 154.5
q0 83 -32.5 153t-84 118.5t-115 75t-124.5 26.5q-58 0 -91 -8q-9 -58 -16.5 -166t-7.5 -180zM868 557l217 -315q78 -111 139 -158.5t144 -48.5v10q-79 23 -203 203l-174 250q-56 82 -105 124t-120 56l-4 -8q56 -36 106 -113zM334 1425v-1386h72v1386h-72zM608 1442v-10
q137 -3 229.5 -66.5t134.5 -155.5t42 -182q0 -200 -174 -289l6 -4q102 26 168.5 111t66.5 203q0 92 -36 166.5t-97.5 124.5t-137.5 76t-153 26h-49z" />
    <glyph glyph-name="S" unicode="S" horiz-adv-x="981" 
d="M571 1462h-32q-110 0 -203 -44t-147 -125t-54 -183q0 -127 111 -238q49 -47 91.5 -79t128.5 -90.5t137.5 -96t84.5 -71.5q90 -90 90 -201q0 -76 -41.5 -146.5t-120 -115t-184.5 -45.5v-11q122 -4 217.5 43t146 124t50.5 159q0 71 -23 129t-84 119q-35 35 -126 97.5
t-184 126t-136 104.5q-105 104 -105 229q0 110 95.5 205t287.5 100v10zM82 350l76 -246q57 -26 133.5 -42t132.5 -15q75 0 137.5 26t102 66t60.5 90.5t21 98.5q0 99 -67 167t-224.5 174t-228.5 177q-61 63 -91 126.5t-30 141.5q0 86 47 171t145 141.5t241 56.5
q65 0 138 -6.5t101 -6.5q24 1 45 1.5t33.5 2t26.5 3.5l6 -342h-13l-63 231q-139 61 -242 61q-86 0 -154.5 -32.5t-106.5 -89t-38 -127.5q0 -74 51 -135.5t139.5 -120.5t190 -125t162.5 -127q119 -119 119 -275q0 -88 -46 -181.5t-155 -158.5t-282 -65q-61 0 -148.5 7
t-128.5 7q-19 0 -29.5 -1t-32.5 -3t-26 -2l-16 352h14z" />
    <glyph glyph-name="S" unicode="s" horiz-adv-x="981" 
d="M571 1462h-32q-110 0 -203 -44t-147 -125t-54 -183q0 -127 111 -238q49 -47 91.5 -79t128.5 -90.5t137.5 -96t84.5 -71.5q90 -90 90 -201q0 -76 -41.5 -146.5t-120 -115t-184.5 -45.5v-11q122 -4 217.5 43t146 124t50.5 159q0 71 -23 129t-84 119q-35 35 -126 97.5
t-184 126t-136 104.5q-105 104 -105 229q0 110 95.5 205t287.5 100v10zM82 350l76 -246q57 -26 133.5 -42t132.5 -15q75 0 137.5 26t102 66t60.5 90.5t21 98.5q0 99 -67 167t-224.5 174t-228.5 177q-61 63 -91 126.5t-30 141.5q0 86 47 171t145 141.5t241 56.5
q65 0 138 -6.5t101 -6.5q24 1 45 1.5t33.5 2t26.5 3.5l6 -342h-13l-63 231q-139 61 -242 61q-86 0 -154.5 -32.5t-106.5 -89t-38 -127.5q0 -74 51 -135.5t139.5 -120.5t190 -125t162.5 -127q119 -119 119 -275q0 -88 -46 -181.5t-155 -158.5t-282 -65q-61 0 -148.5 7
t-128.5 7q-19 0 -29.5 -1t-32.5 -3t-26 -2l-16 352h14z" />
    <glyph glyph-name="T" unicode="T" horiz-adv-x="1473" 
d="M676 1427v-1388h67v1388h-67zM244 1464h868q79 0 145 4.5t170 14.5l23 -324h-12l-74 236q-91 16 -190 16q-85 0 -155 -9t-151 -30q-8 -93 -12 -179.5t-6 -160t-2 -100.5v-332q0 -131 9 -293.5t22 -259.5l247 -37v-10h-755v10l243 37q31 221 31 535v362q0 112 -5 221
t-17 207q-58 16 -135 25.5t-146 11.5q-109 0 -215 -18l-72 -238h-14l22 328q30 -2 87 -9.5t94 -7.5z" />
    <glyph glyph-name="T" unicode="t" horiz-adv-x="1473" 
d="M676 1427v-1388h67v1388h-67zM244 1464h868q79 0 145 4.5t170 14.5l23 -324h-12l-74 236q-91 16 -190 16q-85 0 -155 -9t-151 -30q-8 -93 -12 -179.5t-6 -160t-2 -100.5v-332q0 -131 9 -293.5t22 -259.5l247 -37v-10h-755v10l243 37q31 221 31 535v362q0 112 -5 221
t-17 207q-58 16 -135 25.5t-146 11.5q-109 0 -215 -18l-72 -238h-14l22 328q30 -2 87 -9.5t94 -7.5z" />
    <glyph glyph-name="U" unicode="U" horiz-adv-x="1772" 
d="M971 25v-13q118 7 204 38.5t142.5 88t84.5 141.5t28 197v950h-70v-948q0 -200 -92 -316t-297 -138zM840 12v13q-141 8 -246.5 56.5t-165 144t-59.5 233.5v968h-70v-1003q0 -185 129.5 -292.5t411.5 -119.5zM270 424v557q0 186 -24 440l-209 33v10h729v-10l-264 -33
q-10 -70 -16 -168t-10.5 -209t-4.5 -178v-411q0 -147 59.5 -236.5t157 -126.5t215.5 -37q201 0 315.5 102t114.5 330v428q0 114 -8 269.5t-20 236.5l-263 33v10h725v-10l-204 -33q-14 -65 -21.5 -216.5t-7.5 -254.5v-485q0 -113 -27 -192t-84 -136q-39 -39 -82 -66t-109 -47
t-144 -29t-193 -9q-188 0 -327 42t-218.5 140t-79.5 256z" />
    <glyph glyph-name="U" unicode="u" horiz-adv-x="1772" 
d="M971 25v-13q118 7 204 38.5t142.5 88t84.5 141.5t28 197v950h-70v-948q0 -200 -92 -316t-297 -138zM840 12v13q-141 8 -246.5 56.5t-165 144t-59.5 233.5v968h-70v-1003q0 -185 129.5 -292.5t411.5 -119.5zM270 424v557q0 186 -24 440l-209 33v10h729v-10l-264 -33
q-10 -70 -16 -168t-10.5 -209t-4.5 -178v-411q0 -147 59.5 -236.5t157 -126.5t215.5 -37q201 0 315.5 102t114.5 330v428q0 114 -8 269.5t-20 236.5l-263 33v10h725v-10l-204 -33q-14 -65 -21.5 -216.5t-7.5 -254.5v-485q0 -113 -27 -192t-84 -136q-39 -39 -82 -66t-109 -47
t-144 -29t-193 -9q-188 0 -327 42t-218.5 140t-79.5 256z" />
    <glyph glyph-name="V" unicode="V" 
d="M254 1425l573 -1339l35 82l-536 1257h-72zM723 1454l-262 -37q56 -198 176 -477l139 -324q46 -111 137 -284q36 63 85.5 168t86.5 196l156 371q91 223 127 350l-303 37v10h594v-8l-182 -39q-59 -91 -172 -360l-340 -807q-72 -169 -109 -291h-14q-58 165 -123 313
l-318 742q-89 209 -200 405l-176 35v10h698v-10z" />
    <glyph glyph-name="V" unicode="v" 
d="M254 1425l573 -1339l35 82l-536 1257h-72zM723 1454l-262 -37q56 -198 176 -477l139 -324q46 -111 137 -284q36 63 85.5 168t86.5 196l156 371q91 223 127 350l-303 37v10h594v-8l-182 -39q-59 -91 -172 -360l-340 -807q-72 -169 -109 -291h-14q-58 165 -123 313
l-318 742q-89 209 -200 405l-176 35v10h698v-10z" />
    <glyph glyph-name="W" unicode="W" horiz-adv-x="2261" 
d="M262 1425l373 -1308h4l33 96l-344 1212h-66zM1163 1264l-30 -82l485 -1073l29 90zM764 1454l-285 -37q0 -72 24.5 -207t55.5 -243l96 -330q32 -114 80 -238q92 195 146 330l172 428q91 235 114 322h19q12 -28 48 -120t66 -163l242 -530q56 -129 141 -291q32 80 99 299
l114 403q24 80 42 172t26 172l-291 33v10h588v-10l-178 -35q-33 -77 -64 -166t-61 -196l-178 -615q-44 -154 -79.5 -285.5t-47.5 -195.5h-17q-10 29 -29 80t-30 80t-29 71.5t-37 81.5l-280 625q-86 177 -111 223q-21 -32 -60.5 -125t-45.5 -112l-234 -578
q-24 -59 -42.5 -109.5t-39 -107t-45.5 -129.5h-16q-18 101 -92 369l-189 665q-66 232 -147 424l-174 35v10h729v-10z" />
    <glyph glyph-name="W" unicode="w" horiz-adv-x="2261" 
d="M262 1425l373 -1308h4l33 96l-344 1212h-66zM1163 1264l-30 -82l485 -1073l29 90zM764 1454l-285 -37q0 -72 24.5 -207t55.5 -243l96 -330q32 -114 80 -238q92 195 146 330l172 428q91 235 114 322h19q12 -28 48 -120t66 -163l242 -530q56 -129 141 -291q32 80 99 299
l114 403q24 80 42 172t26 172l-291 33v10h588v-10l-178 -35q-33 -77 -64 -166t-61 -196l-178 -615q-44 -154 -79.5 -285.5t-47.5 -195.5h-17q-10 29 -29 80t-30 80t-29 71.5t-37 81.5l-280 625q-86 177 -111 223q-21 -32 -60.5 -125t-45.5 -112l-234 -578
q-24 -59 -42.5 -109.5t-39 -107t-45.5 -129.5h-16q-18 101 -92 369l-189 665q-66 232 -147 424l-174 35v10h729v-10z" />
    <glyph glyph-name="X" unicode="X" horiz-adv-x="1855" 
d="M299 1430l1133 -1391h81l-1130 1391h-84zM23 1464h837v-10l-319 -33q54 -84 100.5 -150t102 -135.5t121.5 -146.5t136 -158q78 80 180.5 196.5t182.5 218.5t125 175l-305 33v10h669v-10l-235 -31q-63 -58 -143.5 -147.5t-170.5 -198t-156 -194t-89 -123.5
q60 -80 157 -202.5t175 -216t149 -172t125 -126.5l186 -33v-10h-813v10l318 35q-82 139 -215.5 306t-259.5 304q-102 -105 -199 -218t-177 -216.5t-128 -175.5l305 -35v-10h-664v10l230 35q143 140 309.5 340.5t267.5 341.5q-97 129 -198.5 256.5t-206.5 250.5t-174 187
l-223 33v10z" />
    <glyph glyph-name="X" unicode="x" horiz-adv-x="1855" 
d="M299 1430l1133 -1391h81l-1130 1391h-84zM23 1464h837v-10l-319 -33q54 -84 100.5 -150t102 -135.5t121.5 -146.5t136 -158q78 80 180.5 196.5t182.5 218.5t125 175l-305 33v10h669v-10l-235 -31q-63 -58 -143.5 -147.5t-170.5 -198t-156 -194t-89 -123.5
q60 -80 157 -202.5t175 -216t149 -172t125 -126.5l186 -33v-10h-813v10l318 35q-82 139 -215.5 306t-259.5 304q-102 -105 -199 -218t-177 -216.5t-128 -175.5l305 -35v-10h-664v10l230 35q143 140 309.5 340.5t267.5 341.5q-97 129 -198.5 256.5t-206.5 250.5t-174 187
l-223 33v10z" />
    <glyph glyph-name="Y" unicode="Y" 
d="M766 39h68v625l-476 763h-73l481 -770v-618zM227 1419l-202 35v10h778v-10l-299 -35q67 -148 189 -345t218 -320q105 116 248 325t213 340l-293 35v10h582v-12l-172 -33q-59 -70 -114 -144t-142 -198t-137 -198.5t-150 -227.5q-8 -123 -8 -274q0 -206 31 -332l248 -35
v-10h-758v10l243 35q16 63 25.5 172t9.5 205q0 72 -6 225q-58 106 -147.5 251.5t-184.5 285t-172 235.5z" />
    <glyph glyph-name="Y" unicode="y" 
d="M766 39h68v625l-476 763h-73l481 -770v-618zM227 1419l-202 35v10h778v-10l-299 -35q67 -148 189 -345t218 -320q105 116 248 325t213 340l-293 35v10h582v-12l-172 -33q-59 -70 -114 -144t-142 -198t-137 -198.5t-150 -227.5q-8 -123 -8 -274q0 -206 31 -332l248 -35
v-10h-758v10l243 35q16 63 25.5 172t9.5 205q0 72 -6 225q-58 106 -147.5 251.5t-184.5 285t-172 235.5z" />
    <glyph glyph-name="Z" unicode="Z" horiz-adv-x="1366" 
d="M1122 1423l-1026 -1382h80l1024 1382h-78zM111 1135l45 346q89 -9 112 -11q56 -6 103 -6h950v-41l-649 -874q-63 -87 -151 -216t-138 -222q50 -15 178 -31.5t207 -16.5h143q34 0 127 8t152 19l106 256h15l-51 -346h-1199v39l674 911q156 210 269 404q-38 15 -145 33
t-212 18h-155q-54 0 -150 -9t-131 -18l-86 -243h-14z" />
    <glyph glyph-name="Z" unicode="z" horiz-adv-x="1366" 
d="M1122 1423l-1026 -1382h80l1024 1382h-78zM111 1135l45 346q89 -9 112 -11q56 -6 103 -6h950v-41l-649 -874q-63 -87 -151 -216t-138 -222q50 -15 178 -31.5t207 -16.5h143q34 0 127 8t152 19l106 256h15l-51 -346h-1199v39l674 911q156 210 269 404q-38 15 -145 33
t-212 18h-155q-54 0 -150 -9t-131 -18l-86 -243h-14z" />
    <glyph glyph-name="bracketleft" unicode="[" horiz-adv-x="682" 
d="M131 1430v-1389h70v1389h-70zM102 174v1061q0 135 -8 235h584v-14l-344 -35q-31 -198 -31 -594v-233q0 -107 8 -277t23 -268l346 -35v-12h-584q6 59 6 172z" />
    <glyph glyph-name="backslash" unicode="\" horiz-adv-x="788" 
d="M222 1468l442 -1310q25 -69 52 -101t67 -41v-12h-192l-443 1321q-42 127 -112 133v10h186z" />
    <glyph glyph-name="bracketright" unicode="]" horiz-adv-x="788" 
d="M535 1430v-1391h69v1391h-69zM709 1231v-1069q0 -54 8 -160h-586v14l340 31q11 54 17.5 136.5t11 178.5t6.5 163.5t2 133.5v224q0 142 -6.5 279t-22.5 261l-346 35v12h584q-8 -89 -8 -239z" />
    <glyph glyph-name="asciicircum" unicode="^" horiz-adv-x="961" 
d="M498 1384l426 -716h-93l-350 585l-350 -585h-94l432 716h29z" />
    <glyph glyph-name="underscore" unicode="_" horiz-adv-x="1024" 
d="M-12 -256v105h1048v-105h-1048z" />
    <glyph glyph-name="grave" unicode="`" horiz-adv-x="682" 
d="M111 1737h200l254 -181h-22z" />
    <glyph glyph-name="braceleft" unicode="{" horiz-adv-x="981" 
d="M840 -158v-35q-164 23 -269.5 132.5t-105.5 255.5q0 76 20 155q25 110 25 154q0 55 -28.5 99.5t-80 75.5t-118.5 40v41q101 12 164 71t63 142q0 48 -25 153q-20 80 -20 156q0 98 48 181t134.5 138t192.5 70v-35q-110 -27 -168 -87.5t-58 -149.5q0 -26 7.5 -72.5
t17.5 -85.5q20 -98 20 -156q0 -75 -35 -140.5t-101.5 -118t-157.5 -85.5q87 -32 154.5 -86.5t103.5 -123t36 -140.5q0 -57 -20 -155q-25 -100 -25 -158q0 -89 58 -149t168 -87z" />
    <glyph glyph-name="bar" unicode="|" horiz-adv-x="410" 
d="M133 1378h143v-1740h-143v1740z" />
    <glyph glyph-name="braceright" unicode="}" horiz-adv-x="981" 
d="M178 1626v35q109 -15 193.5 -69.5t133 -137t48.5 -180.5q0 -64 -21 -158q-24 -94 -24 -151q0 -82 63.5 -142t163.5 -73v-41q-100 -13 -163.5 -73t-63.5 -142q0 -56 24 -152q21 -89 21 -156q0 -97 -48.5 -180.5t-134 -138.5t-192.5 -70v35q225 56 225 238q0 49 -24 157
q-21 87 -21 156q0 111 78.5 203.5t216.5 140.5q-135 51 -215 146t-80 202q0 70 21 158q24 105 24 158q0 89 -57.5 148.5t-167.5 86.5z" />
    <glyph glyph-name="asciitilde" unicode="~" horiz-adv-x="1366" 
d="M1171 793h43q-2 -78 -32.5 -140.5t-85 -97.5t-119.5 -35q-32 0 -60 4.5t-62 15.5t-89 33l-166 68q-93 38 -139.5 51t-81.5 13q-148 0 -184 -183h-43q5 132 71 203q31 32 74 51t82 19q72 0 219 -56q85 -32 164 -67q61 -26 100 -40t68 -20t53 -6q83 0 131 49t57 138z" />
    <glyph glyph-name="Adieresis" unicode="&#xc4;" 
d="M784 1282l519 -1243h67l-553 1327zM768 1198q-27 -53 -71.5 -155t-80.5 -191t-75 -189.5t-52 -132.5q59 -8 137.5 -11t149.5 -3q175 0 287 14q-38 113 -129 321.5t-166 346.5zM874 1479l433 -1033q84 -202 196 -401l166 -35v-10h-706v10l272 35q-15 99 -55.5 215.5
t-89.5 202.5h-627q-40 -101 -64.5 -166t-47 -135t-29.5 -117l262 -35v-10h-559v10l184 35q67 116 123 256l463 1178h79zM648 1669q22 0 39.5 -16.5t17.5 -40.5t-17 -41t-40 -17q-26 0 -42 16t-16 42t16.5 41.5t41.5 15.5zM1004 1669q24 0 40.5 -17.5t16.5 -39.5
q0 -25 -15.5 -41.5t-41.5 -16.5q-25 0 -41 17t-16 41q0 21 17 39t40 18z" />
    <glyph glyph-name="Adieresis" unicode="&#xe4;" 
d="M784 1282l519 -1243h67l-553 1327zM768 1198q-27 -53 -71.5 -155t-80.5 -191t-75 -189.5t-52 -132.5q59 -8 137.5 -11t149.5 -3q175 0 287 14q-38 113 -129 321.5t-166 346.5zM874 1479l433 -1033q84 -202 196 -401l166 -35v-10h-706v10l272 35q-15 99 -55.5 215.5
t-89.5 202.5h-627q-40 -101 -64.5 -166t-47 -135t-29.5 -117l262 -35v-10h-559v10l184 35q67 116 123 256l463 1178h79zM648 1669q22 0 39.5 -16.5t17.5 -40.5t-17 -41t-40 -17q-26 0 -42 16t-16 42t16.5 41.5t41.5 15.5zM1004 1669q24 0 40.5 -17.5t16.5 -39.5
q0 -25 -15.5 -41.5t-41.5 -16.5q-25 0 -41 17t-16 41q0 21 17 39t40 18z" />
    <glyph glyph-name="Aring" unicode="&#xc5;" 
d="M784 1282l519 -1243h67l-553 1327zM768 1198q-27 -53 -71.5 -155t-80.5 -191t-75 -189.5t-52 -132.5q59 -8 137.5 -11t149.5 -3q175 0 287 14q-38 113 -129 321.5t-166 346.5zM874 1479l433 -1033q84 -202 196 -401l166 -35v-10h-706v10l272 35q-15 99 -55.5 215.5
t-89.5 202.5h-627q-40 -101 -64.5 -166t-47 -135t-29.5 -117l262 -35v-10h-559v10l184 35q67 116 123 256l463 1178h79zM838 1782q57 0 96 -40t39 -95q0 -57 -39.5 -97.5t-95.5 -40.5t-96.5 40.5t-40.5 97.5q0 55 40 95t97 40zM836 1757q-46 0 -78.5 -32.5t-32.5 -79.5
q0 -46 32.5 -78.5t78.5 -32.5q48 0 80.5 31.5t32.5 79.5q0 49 -32.5 80.5t-80.5 31.5z" />
    <glyph glyph-name="Aring" unicode="&#xe5;" 
d="M784 1282l519 -1243h67l-553 1327zM768 1198q-27 -53 -71.5 -155t-80.5 -191t-75 -189.5t-52 -132.5q59 -8 137.5 -11t149.5 -3q175 0 287 14q-38 113 -129 321.5t-166 346.5zM874 1479l433 -1033q84 -202 196 -401l166 -35v-10h-706v10l272 35q-15 99 -55.5 215.5
t-89.5 202.5h-627q-40 -101 -64.5 -166t-47 -135t-29.5 -117l262 -35v-10h-559v10l184 35q67 116 123 256l463 1178h79zM838 1782q57 0 96 -40t39 -95q0 -57 -39.5 -97.5t-95.5 -40.5t-96.5 40.5t-40.5 97.5q0 55 40 95t97 40zM836 1757q-46 0 -78.5 -32.5t-32.5 -79.5
q0 -46 32.5 -78.5t78.5 -32.5q48 0 80.5 31.5t32.5 79.5q0 49 -32.5 80.5t-80.5 31.5z" />
    <glyph glyph-name="Ccedilla" unicode="&#xc7;" horiz-adv-x="1579" 
d="M1069 1460h-117q-174 0 -319.5 -57.5t-246 -160t-152.5 -236.5t-52 -287q0 -140 53.5 -267.5t158 -227t249.5 -155t324 -55.5q80 0 102 2v13q-199 -4 -354.5 52.5t-256.5 158t-150.5 229.5t-49.5 260q0 130 43 256t132.5 231t231.5 167.5t334 62.5h70v14zM1522 270
l-148 -274q-96 8 -139 8q-53 0 -143 -8t-140 -8q-202 0 -357.5 62.5t-256.5 169t-150 235t-49 260.5q0 169 57.5 311.5t162.5 245t245 157t301 54.5q42 0 53 -0.5t48 -2t75 -3.5q135 -9 207 -9q160 0 209 9l12 -336h-12l-67 223q-30 7 -106 20t-148.5 21t-151.5 8
q-206 0 -352.5 -82.5t-220.5 -234t-74 -348.5q0 -153 53 -281.5t148 -219t216.5 -137.5t256.5 -47q134 0 251 45.5t209 165.5zM801 14l-12 -61h35q25 0 43 -18t18 -41q0 -78 -153 -78q-20 0 -80 6l2 12h55q37 0 71 14t34 41q0 42 -62 35l21 90h28z" />
    <glyph glyph-name="Ccedilla" unicode="&#xe7;" horiz-adv-x="1579" 
d="M1069 1460h-117q-174 0 -319.5 -57.5t-246 -160t-152.5 -236.5t-52 -287q0 -140 53.5 -267.5t158 -227t249.5 -155t324 -55.5q80 0 102 2v13q-199 -4 -354.5 52.5t-256.5 158t-150.5 229.5t-49.5 260q0 130 43 256t132.5 231t231.5 167.5t334 62.5h70v14zM1522 270
l-148 -274q-96 8 -139 8q-53 0 -143 -8t-140 -8q-202 0 -357.5 62.5t-256.5 169t-150 235t-49 260.5q0 169 57.5 311.5t162.5 245t245 157t301 54.5q42 0 53 -0.5t48 -2t75 -3.5q135 -9 207 -9q160 0 209 9l12 -336h-12l-67 223q-30 7 -106 20t-148.5 21t-151.5 8
q-206 0 -352.5 -82.5t-220.5 -234t-74 -348.5q0 -153 53 -281.5t148 -219t216.5 -137.5t256.5 -47q134 0 251 45.5t209 165.5zM801 14l-12 -61h35q25 0 43 -18t18 -41q0 -78 -153 -78q-20 0 -80 6l2 12h55q37 0 71 14t34 41q0 42 -62 35l21 90h28z" />
    <glyph glyph-name="Eacute" unicode="&#xc9;" horiz-adv-x="1174" 
d="M324 1425v-1386h69v1386h-69zM20 1454v10h1065l25 -311h-16l-72 244q-85 6 -191 6q-193 0 -311 -27q-20 -162 -20 -370q0 -130 8 -211q158 -9 201 -9q113 0 233 13l45 170h17v-426h-17l-47 180q-87 10 -192 10q-132 0 -240 -12q-13 -116 -8 -227q2 -142 5 -234.5
t11 -159.5q122 -37 320 -37q114 0 192 9l80 241h14l-22 -313h-1077v10l239 35q8 41 14.5 125t11.5 188.5t7 175t2 123.5v252q0 48 -3 136.5t-9 183.5t-17 190zM631 1737h209l-434 -181h-25z" />
    <glyph glyph-name="Eacute" unicode="&#xe9;" horiz-adv-x="1174" 
d="M324 1425v-1386h69v1386h-69zM20 1454v10h1065l25 -311h-16l-72 244q-85 6 -191 6q-193 0 -311 -27q-20 -162 -20 -370q0 -130 8 -211q158 -9 201 -9q113 0 233 13l45 170h17v-426h-17l-47 180q-87 10 -192 10q-132 0 -240 -12q-13 -116 -8 -227q2 -142 5 -234.5
t11 -159.5q122 -37 320 -37q114 0 192 9l80 241h14l-22 -313h-1077v10l239 35q8 41 14.5 125t11.5 188.5t7 175t2 123.5v252q0 48 -3 136.5t-9 183.5t-17 190zM631 1737h209l-434 -181h-25z" />
    <glyph glyph-name="Ntilde" unicode="&#xd1;" horiz-adv-x="1855" 
d="M25 1454v10h505q50 -68 129.5 -164t141.5 -165l448 -498q89 -97 138.5 -150t128.5 -129q6 69 8 129t2 113v432q0 233 -23 385l-243 37v10h595v-10l-243 -39q-19 -140 -19 -358v-1096h-10q-153 194 -303 363l-612 682q-136 145 -232 231q-14 -136 -14 -254v-633
q0 -127 20 -303l254 -37v-10h-608v10l246 35q12 72 17 205t5 237v490q0 87 -3 172.5t-11 169.5l-133 98zM324 1427l1208 -1343v94l-1124 1249h-84zM438 1536l-10 10q56 92 159.5 141.5t193.5 49.5q63 0 206 -51q95 -31 132.5 -41.5t78.5 -10.5q67 0 114 20.5t83 78.5l20 -11
q-61 -86 -151.5 -134t-190.5 -48q-43 0 -86.5 13t-117.5 40q-70 26 -119 39t-99 13q-72 0 -122.5 -25.5t-90.5 -83.5z" />
    <glyph glyph-name="Ntilde" unicode="&#xf1;" horiz-adv-x="1855" 
d="M25 1454v10h505q50 -68 129.5 -164t141.5 -165l448 -498q89 -97 138.5 -150t128.5 -129q6 69 8 129t2 113v432q0 233 -23 385l-243 37v10h595v-10l-243 -39q-19 -140 -19 -358v-1096h-10q-153 194 -303 363l-612 682q-136 145 -232 231q-14 -136 -14 -254v-633
q0 -127 20 -303l254 -37v-10h-608v10l246 35q12 72 17 205t5 237v490q0 87 -3 172.5t-11 169.5l-133 98zM324 1427l1208 -1343v94l-1124 1249h-84zM438 1536l-10 10q56 92 159.5 141.5t193.5 49.5q63 0 206 -51q95 -31 132.5 -41.5t78.5 -10.5q67 0 114 20.5t83 78.5l20 -11
q-61 -86 -151.5 -134t-190.5 -48q-43 0 -86.5 13t-117.5 40q-70 26 -119 39t-99 13q-72 0 -122.5 -25.5t-90.5 -83.5z" />
    <glyph glyph-name="Odieresis" unicode="&#xd6;" horiz-adv-x="1772" 
d="M893 1485q213 0 369 -71t255.5 -186t146 -244.5t46.5 -248.5q0 -136 -52.5 -267t-155 -239.5t-254 -173.5t-337.5 -65q-269 0 -456 116.5t-276 288.5t-89 336q0 145 56.5 281t164 243.5t257.5 168.5t325 61zM899 1415q-155 0 -286.5 -81t-209 -234t-77.5 -361
q0 -224 84.5 -378.5t217 -229t273.5 -74.5q115 0 218 44t184 128.5t126.5 208t45.5 275.5q0 208 -48 332t-141 217q-79 79 -179.5 116t-207.5 37zM950 1456v-10q97 -7 195 -45.5t183.5 -120t137.5 -219.5t52 -332q0 -127 -30.5 -243t-98 -214t-176.5 -162t-261 -79v-11
q128 6 243 55t204.5 140.5t141.5 223.5t52 294q0 177 -54 312.5t-147 225.5t-206.5 136t-235.5 49zM852 1446v10q-140 -1 -273 -60t-234 -160t-157.5 -230t-56.5 -271q0 -174 94.5 -338.5t261.5 -267.5t367 -109v11q-194 17 -343 121t-226.5 258t-77.5 319q0 136 45 261
t130 223t205.5 159t264.5 74zM701 1669q22 0 39.5 -16.5t17.5 -40.5t-17 -41t-40 -17q-26 0 -42 16t-16 42t16.5 41.5t41.5 15.5zM1057 1669q24 0 40.5 -17.5t16.5 -39.5q0 -25 -15.5 -41.5t-41.5 -16.5q-25 0 -41 17t-16 41q0 21 17 39t40 18z" />
    <glyph glyph-name="Odieresis" unicode="&#xf6;" horiz-adv-x="1772" 
d="M893 1485q213 0 369 -71t255.5 -186t146 -244.5t46.5 -248.5q0 -136 -52.5 -267t-155 -239.5t-254 -173.5t-337.5 -65q-269 0 -456 116.5t-276 288.5t-89 336q0 145 56.5 281t164 243.5t257.5 168.5t325 61zM899 1415q-155 0 -286.5 -81t-209 -234t-77.5 -361
q0 -224 84.5 -378.5t217 -229t273.5 -74.5q115 0 218 44t184 128.5t126.5 208t45.5 275.5q0 208 -48 332t-141 217q-79 79 -179.5 116t-207.5 37zM950 1456v-10q97 -7 195 -45.5t183.5 -120t137.5 -219.5t52 -332q0 -127 -30.5 -243t-98 -214t-176.5 -162t-261 -79v-11
q128 6 243 55t204.5 140.5t141.5 223.5t52 294q0 177 -54 312.5t-147 225.5t-206.5 136t-235.5 49zM852 1446v10q-140 -1 -273 -60t-234 -160t-157.5 -230t-56.5 -271q0 -174 94.5 -338.5t261.5 -267.5t367 -109v11q-194 17 -343 121t-226.5 258t-77.5 319q0 136 45 261
t130 223t205.5 159t264.5 74zM701 1669q22 0 39.5 -16.5t17.5 -40.5t-17 -41t-40 -17q-26 0 -42 16t-16 42t16.5 41.5t41.5 15.5zM1057 1669q24 0 40.5 -17.5t16.5 -39.5q0 -25 -15.5 -41.5t-41.5 -16.5q-25 0 -41 17t-16 41q0 21 17 39t40 18z" />
    <glyph glyph-name="Udieresis" unicode="&#xdc;" horiz-adv-x="1772" 
d="M971 25v-13q118 7 204 38.5t142.5 88t84.5 141.5t28 197v950h-70v-948q0 -200 -92 -316t-297 -138zM840 12v13q-141 8 -246.5 56.5t-165 144t-59.5 233.5v968h-70v-1003q0 -185 129.5 -292.5t411.5 -119.5zM270 424v557q0 186 -24 440l-209 33v10h729v-10l-264 -33
q-10 -70 -16 -168t-10.5 -209t-4.5 -178v-411q0 -147 59.5 -236.5t157 -126.5t215.5 -37q201 0 315.5 102t114.5 330v428q0 114 -8 269.5t-20 236.5l-263 33v10h725v-10l-204 -33q-14 -65 -21.5 -216.5t-7.5 -254.5v-485q0 -113 -27 -192t-84 -136q-39 -39 -82 -66t-109 -47
t-144 -29t-193 -9q-188 0 -327 42t-218.5 140t-79.5 256zM701 1669q22 0 39.5 -16.5t17.5 -40.5t-17 -41t-40 -17q-26 0 -42 16t-16 42t16.5 41.5t41.5 15.5zM1057 1669q24 0 40.5 -17.5t16.5 -39.5q0 -25 -15.5 -41.5t-41.5 -16.5q-25 0 -41 17t-16 41q0 21 17 39t40 18z
" />
    <glyph glyph-name="Udieresis" unicode="&#xfc;" horiz-adv-x="1772" 
d="M971 25v-13q118 7 204 38.5t142.5 88t84.5 141.5t28 197v950h-70v-948q0 -200 -92 -316t-297 -138zM840 12v13q-141 8 -246.5 56.5t-165 144t-59.5 233.5v968h-70v-1003q0 -185 129.5 -292.5t411.5 -119.5zM270 424v557q0 186 -24 440l-209 33v10h729v-10l-264 -33
q-10 -70 -16 -168t-10.5 -209t-4.5 -178v-411q0 -147 59.5 -236.5t157 -126.5t215.5 -37q201 0 315.5 102t114.5 330v428q0 114 -8 269.5t-20 236.5l-263 33v10h725v-10l-204 -33q-14 -65 -21.5 -216.5t-7.5 -254.5v-485q0 -113 -27 -192t-84 -136q-39 -39 -82 -66t-109 -47
t-144 -29t-193 -9q-188 0 -327 42t-218.5 140t-79.5 256zM701 1669q22 0 39.5 -16.5t17.5 -40.5t-17 -41t-40 -17q-26 0 -42 16t-16 42t16.5 41.5t41.5 15.5zM1057 1669q24 0 40.5 -17.5t16.5 -39.5q0 -25 -15.5 -41.5t-41.5 -16.5q-25 0 -41 17t-16 41q0 21 17 39t40 18z
" />
    <glyph glyph-name="dagger" unicode="&#x2020;" horiz-adv-x="874" 
d="M449 -489h-50v444q0 219 -12 403q-10 183 -10 215q0 77 16 195q6 59 6 82v10l-16 -2q-59 -8 -88 -20l-47 -19q-54 -22 -90 -22q-42 0 -69.5 23.5t-27.5 60.5q0 35 27.5 59.5t67.5 24.5q32 0 86 -23q77 -32 143 -37h14q-3 56 -14.5 103.5t-36.5 113.5q-22 64 -22 117
t26.5 85t71.5 32q46 0 73 -33.5t27 -87.5q0 -49 -24 -109q-48 -128 -51 -221q41 0 67.5 6t101.5 35q52 21 87 21q45 0 72.5 -23t27.5 -61q0 -39 -27 -63.5t-71 -24.5t-84 20l-43 23q-46 20 -131 22q3 -50 4 -59q0 -5 6 -41q12 -79 12 -187q0 -69 -2 -104l-6 -115l-6 -129
l-4 -151l-4 -115v-448z" />
    <glyph glyph-name="degree" unicode="&#xb0;" horiz-adv-x="819" 
d="M717 1096q0 -83 -42 -154.5t-112.5 -112.5t-152.5 -41q-83 0 -154 41.5t-112.5 112.5t-41.5 154q0 64 23 119t67 98t100 66.5t118 23.5q61 0 117.5 -23.5t99.5 -66.5t66.5 -99.5t23.5 -117.5zM635 1096q0 60 -31 112t-83 82.5t-113 30.5q-93 0 -159 -66t-65 -159
q0 -94 66 -160t160 -66q61 0 113 31t82 82.5t30 112.5z" />
    <glyph glyph-name="cent" unicode="&#xa2;" horiz-adv-x="874" 
d="M809 1124l-127 -354q37 -22 61 -47.5t38 -58t14 -62.5q0 -43 -28 -73.5t-71 -30.5q-65 0 -92 55l-184 -516q39 -14 82 -14q68 0 129 35.5t96 93.5q27 41 53 120h41q-18 -91 -63 -159t-113 -103t-153 -35q-43 0 -91 11l-127 -359h-45l133 371q-119 44 -195.5 153.5
t-76.5 237.5q0 85 31.5 161.5t90 136t135.5 92t161 32.5q72 0 137 -25l121 338h43zM383 57l244 676q-44 35 -115 35q-52 0 -94 -16q-45 -15 -68.5 -49t-33 -103.5t-9.5 -206.5q0 -166 16 -232.5t60 -103.5z" />
    <glyph glyph-name="sterling" unicode="&#xa3;" horiz-adv-x="981" 
d="M209 43l76 920q7 105 23 179.5t40 126.5t55 85q92 91 287 98v8h-41q-114 0 -191.5 -31.5t-127 -99.5t-78.5 -178.5t-43 -273.5l-68 -834h68zM70 817h104l16 137q18 153 48.5 249t84.5 158t137.5 92t209.5 30q55 0 105 -4.5t63 -3.5q43 0 82 6h16l-23 -326h-12l-43 211
q-110 47 -188 47q-103 0 -176 -70q-41 -41 -64.5 -114.5t-36.5 -220.5l-14 -191h262l-8 -78h-260q-12 -118 -21.5 -283t-9.5 -233v-117q172 -43 322 -43q108 0 194 23l84 225h14l-20 -309h-856q11 39 20.5 90.5t19 115t13.5 114.5l37 417h-109z" />
    <glyph glyph-name="section" unicode="&#xa7;" horiz-adv-x="897" 
d="M467 12l-90 105q-110 122 -168 201t-82.5 141t-24.5 129q0 70 33 141t123 158q-49 68 -49 145q0 84 42.5 163.5t118 130t165.5 50.5q35 0 94 -14t59 -53q0 -29 -16 -56.5t-45 -27.5q-9 0 -87.5 25.5t-93.5 25.5q-47 0 -82 -20.5t-54 -54t-19 -66.5q0 -57 46.5 -125.5
t178.5 -225.5q152 -173 215.5 -281t63.5 -210q0 -104 -39.5 -167t-108.5 -132q70 -101 70 -201q0 -88 -60.5 -174t-147.5 -138t-159 -52q-75 0 -145 33t-70 61q0 22 27 56t59 34q26 0 55 -23q63 -42 93.5 -55.5t64.5 -13.5q53 0 93.5 28t61.5 74t21 101q0 59 -29 126
t-114 162zM395 303l74 -86q8 -10 37.5 -45.5t70 -85t44.5 -55.5q40 42 57.5 73t17.5 97q0 76 -29.5 144.5t-90.5 149.5t-183 228q-94 105 -108 129q-45 -45 -72 -87.5t-27 -105.5q0 -51 24 -103.5t72.5 -115t112.5 -137.5z" />
    <glyph glyph-name="bullet" unicode="&#x2022;" horiz-adv-x="725" 
d="M362 928q70 0 127 -34t90 -91.5t33 -124.5t-33 -125.5t-90 -92.5t-127 -34q-68 0 -125 34t-90.5 91t-33.5 125q0 67 33 125.5t90 92.5t126 34z" />
    <glyph glyph-name="paragraph" unicode="&#xb6;" horiz-adv-x="928" 
d="M803 1300v-1742h-72v1742h-186v-1742h-74v1044h-29q-163 7 -259 52t-146 137q-45 83 -45 186q0 118 53 203t155 130.5t242 45.5h494v-56h-133z" />
    <glyph glyph-name="registered" unicode="&#xae;" horiz-adv-x="1556" 
d="M387 1114h385q88 0 155.5 -28t104.5 -78.5t37 -116.5q0 -165 -221 -223l209 -297q37 -51 61.5 -69t59.5 -19v-35h-185l-295 405h-75v-235v-74q8 -37 32 -49t86 -12v-35h-366v35q64 0 86 26q10 14 13 21.5t4 24.5t1 65v524q0 49 -1 66.5t-4.5 25.5t-12.5 19q-20 21 -74 24
v35zM623 696h30q121 0 188.5 48.5t67.5 134.5q0 55 -26 98t-72.5 67.5t-103.5 24.5q-42 0 -84 -14v-359zM778 1386q193 0 357 -95.5t259 -258.5t95 -354q0 -192 -95.5 -355t-259 -258.5t-356.5 -95.5q-191 0 -354 95t-258.5 258.5t-95.5 355.5q0 191 95 354.5t258.5 258.5
t354.5 95zM778 1325q-175 0 -324 -87t-236 -236t-87 -324q0 -133 48.5 -249t141 -208.5t208.5 -141t249 -48.5q134 0 251 49t208.5 140.5t140.5 208t49 249.5q0 175 -87 324t-236.5 236t-325.5 87z" />
    <glyph glyph-name="copyright" unicode="&#xa9;" horiz-adv-x="1556" 
d="M1128 1135l21 -281h-39q-71 236 -303 236q-96 0 -170 -47.5t-113 -136.5t-39 -206q0 -234 117 -335q87 -76 215 -76q199 0 311 162l39 -21q-71 -102 -165.5 -152.5t-219.5 -50.5q-129 0 -235.5 59t-167 160.5t-60.5 225.5q0 129 66 236t180.5 167t253.5 60q49 0 81 -7
t104 -30q24 -8 36 -8q17 0 28.5 10t21.5 35h38zM778 1386q193 0 357 -95.5t259 -258.5t95 -354q0 -192 -95.5 -355t-259 -258.5t-356.5 -95.5q-191 0 -354 95t-258.5 258.5t-95.5 355.5q0 191 95 354.5t258.5 258.5t354.5 95zM778 1325q-175 0 -324 -87t-236 -236t-87 -324
q0 -133 48.5 -249t141 -208.5t208.5 -141t249 -48.5q134 0 251 49t208.5 140.5t140.5 208t49 249.5q0 175 -87 324t-236.5 236t-325.5 87z" />
    <glyph glyph-name="trademark" unicode="&#x2122;" horiz-adv-x="2005" 
d="M51 1356h727l23 -201h-35q-8 53 -29 83.5t-60.5 44t-103.5 13.5h-75v-579q0 -55 7.5 -82.5t29 -37.5t69.5 -13v-35h-375v35q46 5 67 15t27.5 34t6.5 82v581h-76q-94 0 -134 -30t-57 -111h-34zM1155 1356l275 -572l264 572h278v-37q-52 -2 -73.5 -11t-29 -37.5t-7.5 -86.5
v-467q0 -42 4 -67.5t15 -39t31 -18.5t60 -8v-35h-397v35q52 2 76.5 12t33.5 36.5t9 82.5v491h-4l-304 -657h-32l-303 649h-4v-481q0 -84 18 -108.5t76 -24.5h35v-35h-306v35q50 0 73 9t31.5 36t8.5 86v467q0 62 -8 91t-31.5 37.5t-73.5 8.5v37h285z" />
    <glyph glyph-name="acute" unicode="&#xb4;" horiz-adv-x="682" 
d="M385 1737h209l-434 -181h-25z" />
    <glyph glyph-name="dieresis" unicode="&#xa8;" horiz-adv-x="682" 
d="M156 1669q22 0 39.5 -16.5t17.5 -40.5t-17 -41t-40 -17q-26 0 -42 16t-16 42t16.5 41.5t41.5 15.5zM512 1669q24 0 40.5 -17.5t16.5 -39.5q0 -25 -15.5 -41.5t-41.5 -16.5q-25 0 -41 17t-16 41q0 21 17 39t40 18z" />
    <glyph glyph-name="notequal" unicode="&#x2260;" horiz-adv-x="1124" 
d="M823 1124l101 -57l-156 -279h338v-112h-399l-160 -285h559v-112h-621l-184 -330l-100 57l151 273h-321v112h385l157 285h-542v112h606z" />
    <glyph glyph-name="AE" unicode="&#xc6;" horiz-adv-x="1962" 
d="M942 1106l-219 -354q-69 -104 -123 -215q18 -5 61 -9.5t102 -6.5t89 -1q113 0 231 12q9 117 9 277q0 62 -1 148.5t-5.5 185.5t-14.5 139q-21 -23 -63 -81.5t-66 -94.5zM1118 1427v-1388h72v1388h-72zM375 299l565 924q100 169 129 258q49 -3 121 -11q62 -6 119 -6h573
l21 -305h-13l-73 242q-43 4 -84 5t-91 1q-91 0 -186 -8.5t-141 -22.5q-8 -67 -11.5 -114t-6.5 -106.5t-3 -129.5q0 -166 11 -227q29 0 58 -2t60.5 -4t60.5 -3.5t56 -1.5q17 0 58 1.5t80.5 4t56.5 3.5l49 176h12v-428h-12l-49 184q-116 8 -207 8q-34 0 -107 -3t-121 -7
q-3 -30 -4.5 -101.5t-1.5 -166.5q0 -202 19 -353q47 -18 139 -30.5t172 -12.5q40 0 110 5t91 8l78 241h12l-21 -317h-1081v10l240 35q18 46 27.5 133.5t9.5 165.5q0 74 -7 121h-524q-37 -46 -85.5 -122.5t-94 -160t-68.5 -137.5l264 -35v-10h-544v10l168 35q76 95 176 254z
" />
    <glyph glyph-name="AE" unicode="&#xe6;" horiz-adv-x="1962" 
d="M942 1106l-219 -354q-69 -104 -123 -215q18 -5 61 -9.5t102 -6.5t89 -1q113 0 231 12q9 117 9 277q0 62 -1 148.5t-5.5 185.5t-14.5 139q-21 -23 -63 -81.5t-66 -94.5zM1118 1427v-1388h72v1388h-72zM375 299l565 924q100 169 129 258q49 -3 121 -11q62 -6 119 -6h573
l21 -305h-13l-73 242q-43 4 -84 5t-91 1q-91 0 -186 -8.5t-141 -22.5q-8 -67 -11.5 -114t-6.5 -106.5t-3 -129.5q0 -166 11 -227q29 0 58 -2t60.5 -4t60.5 -3.5t56 -1.5q17 0 58 1.5t80.5 4t56.5 3.5l49 176h12v-428h-12l-49 184q-116 8 -207 8q-34 0 -107 -3t-121 -7
q-3 -30 -4.5 -101.5t-1.5 -166.5q0 -202 19 -353q47 -18 139 -30.5t172 -12.5q40 0 110 5t91 8l78 241h12l-21 -317h-1081v10l240 35q18 46 27.5 133.5t9.5 165.5q0 74 -7 121h-524q-37 -46 -85.5 -122.5t-94 -160t-68.5 -137.5l264 -35v-10h-544v10l168 35q76 95 176 254z
" />
    <glyph glyph-name="Oslash" unicode="&#xd8;" horiz-adv-x="1772" 
d="M420 131l-131 -143h-82l164 182q-81 66 -141 156t-94 194.5t-34 208.5q0 141 55.5 275.5t162 243t257.5 172t332 63.5q159 0 280.5 -42t203.5 -102l123 142h83l-157 -183q139 -118 203.5 -268.5t64.5 -296.5q0 -181 -94 -354.5t-275.5 -283t-425.5 -109.5
q-98 0 -191.5 18.5t-170.5 52t-133 74.5zM963 1448v-10q92 -3 188 -41t180 -119.5t135.5 -216t51.5 -328.5q0 -180 -61 -336.5t-187 -254.5t-305 -111v-8q105 0 214 42.5t204 131t152.5 223.5t57.5 313q0 234 -94.5 395.5t-239.5 240.5t-296 79zM1350 1194l-846 -965
q90 -88 192 -132t217 -44q87 0 185 35.5t183.5 113.5t140.5 212t55 321q0 153 -36 268t-91 191zM864 1446v10q-140 -3 -269.5 -61.5t-232.5 -160.5t-161 -231.5t-58 -269.5q0 -175 92.5 -339t257.5 -268.5t365 -113.5v13q-196 23 -342 126.5t-221.5 256.5t-75.5 319
q0 135 45.5 258.5t131.5 223.5t206 162t262 75zM465 279l842 960q-72 88 -179.5 132t-214.5 44q-147 0 -278.5 -75.5t-214 -229.5t-82.5 -375q0 -150 34.5 -264t92.5 -192z" />
    <glyph glyph-name="Oslash" unicode="&#xf8;" horiz-adv-x="1772" 
d="M420 131l-131 -143h-82l164 182q-81 66 -141 156t-94 194.5t-34 208.5q0 141 55.5 275.5t162 243t257.5 172t332 63.5q159 0 280.5 -42t203.5 -102l123 142h83l-157 -183q139 -118 203.5 -268.5t64.5 -296.5q0 -181 -94 -354.5t-275.5 -283t-425.5 -109.5
q-98 0 -191.5 18.5t-170.5 52t-133 74.5zM963 1448v-10q92 -3 188 -41t180 -119.5t135.5 -216t51.5 -328.5q0 -180 -61 -336.5t-187 -254.5t-305 -111v-8q105 0 214 42.5t204 131t152.5 223.5t57.5 313q0 234 -94.5 395.5t-239.5 240.5t-296 79zM1350 1194l-846 -965
q90 -88 192 -132t217 -44q87 0 185 35.5t183.5 113.5t140.5 212t55 321q0 153 -36 268t-91 191zM864 1446v10q-140 -3 -269.5 -61.5t-232.5 -160.5t-161 -231.5t-58 -269.5q0 -175 92.5 -339t257.5 -268.5t365 -113.5v13q-196 23 -342 126.5t-221.5 256.5t-75.5 319
q0 135 45.5 258.5t131.5 223.5t206 162t262 75zM465 279l842 960q-72 88 -179.5 132t-214.5 44q-147 0 -278.5 -75.5t-214 -229.5t-82.5 -375q0 -150 34.5 -264t92.5 -192z" />
    <glyph glyph-name="infinity" unicode="&#x221e;" horiz-adv-x="1460" 
d="M738 608q75 67 110.5 97t72 53t81.5 43q72 32 143 27.5t131 -41t97 -93.5t43 -123q8 -78 -29.5 -154.5t-110 -123t-161.5 -37.5q-70 7 -134 34.5t-109 61t-87.5 76t-46.5 45.5q-24 -24 -56.5 -56t-76.5 -65.5t-108 -61t-136 -34.5q-89 -9 -161.5 37.5t-110 123
t-29.5 154.5q7 67 44 124t97 93t131 40.5t142 -27.5q45 -20 81.5 -43t72 -53t110.5 -97zM671 541q-88 75 -141.5 112t-102.5 54q-61 22 -110.5 12.5t-84.5 -40.5t-52 -71.5t-17 -77.5q1 -56 37 -101.5t91 -64.5t109 -6q81 19 124 50.5t147 132.5zM806 541q68 -67 105 -99.5
t73 -51.5t92 -32q55 -13 110 6t91 64.5t37 101.5q2 49 -29.5 102.5t-92 78t-143.5 -3.5q-50 -18 -103 -55.5t-140 -110.5z" />
    <glyph glyph-name="plusminus" unicode="&#xb1;" horiz-adv-x="1124" 
d="M20 836h486v485h112v-485h486v-113h-486v-485h-112v485h-486v113zM1104 0h-1084v113h1084v-113z" />
    <glyph glyph-name="lessequal" unicode="&#x2264;" horiz-adv-x="1124" 
d="M59 0v113h1018v-113h-1018zM59 711v127l1018 471v-127l-887 -408l887 -407v-127z" />
    <glyph glyph-name="greaterequal" unicode="&#x2265;" horiz-adv-x="1124" 
d="M1077 113v-113h-1018v113h1018zM1077 838v-127l-1018 -471v127l887 407l-887 408v127z" />
    <glyph glyph-name="yen" unicode="&#xa5;" 
d="M1159 1079h-471q111 -179 223 -325q94 107 248 325zM725 649h-700v47h680q-45 79 -110.5 184t-125.5 199h-444v47l413 -2q-32 50 -92.5 136.5t-118.5 158.5l-202 35v10h778v-10l-299 -35q39 -83 74.5 -149.5t83.5 -143.5h530q128 195 180 293l-293 35v10h582v-12
l-172 -33q-70 -84 -223 -293h395v-47h-426q-124 -177 -260 -383h686v-45h-713q-5 -42 -7.5 -119t-2.5 -155q0 -206 31 -332l248 -35v-10h-758v10l243 35q16 63 25.5 172t9.5 205q0 131 -12 227zM766 39h68v625l-476 763h-73l481 -770v-618z" />
    <glyph glyph-name="mu" unicode="&#xb5;" horiz-adv-x="1180" 
d="M136 1024h176v-682q0 -169 107 -217q47 -20 85.5 -20.5t81.5 18.5q40 18 85.5 56.5t64.5 82.5v762h176v-786q0 -95 47 -144q49 -49 109 -16q25 15 35.5 35.5t17.5 53t10 40.5h41q-18 -77 -42.5 -77h-96.5q-66 -35 -122.5 -28.5t-88.5 30.5q-25 20 -38.5 37.5t-22 37.5
t-13 42.5l-10.5 52.5q-49 -73 -143 -141q-81 -60 -193 -60q-42 0 -79 17.5t-68 43.5t-45 37v-47q3 -68 28 -148t33 -124q17 -94 -15 -147.5t-79 -53.5t-78.5 53t-15.5 148q8 46 25 104t22.5 88.5t5.5 79.5v872z" />
    <glyph glyph-name="partialdiff" unicode="&#x2202;" horiz-adv-x="1012" 
d="M220 1366l-80 102q76 34 177 52t194 -4q102 -24 188.5 -89t155.5 -186q42 -73 64 -164t28 -160.5t6 -111.5q0 -47 -10 -143t-34.5 -205.5t-61.5 -188.5q-48 -102 -91.5 -160t-121.5 -102q-102 -56 -208.5 -48.5t-191.5 65.5q-45 31 -80 70.5t-60.5 96.5t-31.5 129
q-9 111 27 204t86 155q58 71 128 109.5t163 35.5q88 -3 147 -31t160 -108q18 99 22 238q3 65 -19.5 168.5t-45.5 156.5q-24 59 -84.5 117.5t-144.5 65.5q-56 5 -89.5 3t-56.5 -9t-64 -26t-71 -32zM757 612q-59 67 -101 99.5t-121 31.5q-117 -3 -196 -110
q-41 -58 -62.5 -110.5t-31 -107t-9.5 -112.5q0 -74 17.5 -144.5t77.5 -111.5q44 -28 83.5 -29t86.5 19q103 45 165 190q36 88 57.5 186.5t33.5 198.5z" />
    <glyph glyph-name="summation" unicode="&#x2211;" horiz-adv-x="1460" 
d="M1264 1526l12 -326h-41q-32 102 -50.5 139t-79 66t-183.5 29h-539l559 -734l-602 -694h760q83 0 128 19.5t77 66t71 146.5h47q-45 -185 -56 -245t-32 -214q-39 7 -80 14.5t-77 7.5h-1031q-14 0 -36.5 -1.5l-45 -3t-36.5 -1.5l714 815l-710 930q32 -2 105 -8t108 -6h1018z
" />
    <glyph glyph-name="product" unicode="&#x220f;" horiz-adv-x="1573" 
d="M1339 1182l2 -1014q0 -55 22 -83.5t61 -38t102 -9.5v-37h-582v37q94 0 139 26.5t45 104.5v1126h-682l3 -1126q0 -54 21.5 -83t61 -38.5t101.5 -9.5v-37h-582v37q94 0 139.5 26.5t45.5 104.5v1014q0 159 -181 159v37h1465v-37q-181 0 -181 -159z" />
    <glyph glyph-name="pi" unicode="&#x3c0;" horiz-adv-x="1124" 
d="M686 821h-231q-17 -201 -33 -329.5t-31 -221t-31 -168.5q-13 -59 -38 -92.5t-74 -46.5q-40 -10 -79.5 16t-47.5 62q-6 27 -3 45.5t11 34.5t18 29t21 26q3 4 34.5 41t47.5 67.5t20 67.5l60 469h-97q-41 0 -78 -19.5t-57 -45.5l-43 -64h-35q14 39 35 93.5t58 105.5
q29 43 78 74.5t114 31.5h764v-176h-258q-25 -239 -25 -481q0 -44 15 -86t37 -64q28 -26 68.5 -33.5t82.5 25.5q23 18 33.5 41t13.5 44l6 42h43q-1 -83 -25 -149.5t-57 -107t-65 -58.5q-36 -22 -84 -26.5t-88 22.5q-66 48 -100 151q-19 60 -21.5 158.5t6.5 192.5z" />
    <glyph glyph-name="integral" unicode="&#x222b;" horiz-adv-x="561" 
d="M395 999l-2 -442q-2 -364 -70 -600q-21 -76 -59 -125q-17 -22 -75.5 -42t-104.5 1q-22 11 -41.5 36t-26.5 44q-12 35 0 65t49 48q34 17 60.5 5t56.5 -46q29 -30 48.5 -4t27.5 82.5t6 130.5q-2 76 -4 141t-4 119.5t-3 163t-1 219.5v295q0 90 2 192t7.5 181.5t16 139.5
t27.5 121q10 34 37.5 75.5t54.5 58.5q26 16 56.5 17.5t59.5 -8.5t44 -20q27 -17 40.5 -60t-13.5 -77q-15 -18 -43 -29.5t-56 -8.5t-47 24q-22 22 -40.5 24t-29 -11.5t-12.5 -33.5q-1 -26 2 -62.5t14 -173t17 -243t6 -197.5z" />
    <glyph glyph-name="ordfeminine" unicode="&#xaa;" horiz-adv-x="662" 
d="M418 1270v63q0 82 -13.5 102.5t-72.5 20.5q-47 0 -75 -11t-28 -28q0 -10 4 -16l9 -19q4 -8 4 -18q0 -23 -16 -37t-42 -14q-25 0 -42 15t-17 42q0 50 63 80.5t164 30.5q78 0 119 -12t56.5 -42t15.5 -90v-219q0 -45 5 -59.5t23 -14.5q25 0 46 31h16q-15 -88 -111 -88
q-86 0 -108 94q-44 -50 -83.5 -72t-92.5 -22q-65 0 -107.5 33t-42.5 84q0 29 15.5 57t39.5 45q47 31 108.5 45.5t162.5 18.5zM418 1178v65q-109 -4 -153 -30t-44 -85q0 -38 21.5 -63t56.5 -25q54 0 86.5 38.5t32.5 99.5z" />
    <glyph glyph-name="ordmasculine" unicode="&#xba;" horiz-adv-x="641" 
d="M336 1481q76 0 140 -32t99 -88.5t35 -125.5q0 -68 -37 -127.5t-100 -94t-135 -34.5q-109 0 -186.5 74.5t-77.5 177.5q0 66 34.5 124t94.5 92t133 34zM461 1231v106q-1 66 -27.5 91.5t-93.5 25.5q-66 0 -91.5 -25t-25.5 -90l-2 -110v-27q0 -87 9 -126.5t33.5 -53.5
t76.5 -14q50 0 75.5 15.5t35.5 56.5t10 118v33z" />
    <glyph glyph-name="Omega" unicode="&#x2126;" horiz-adv-x="1573" 
d="M641 311l33 -311h-604v332h30q20 -78 45.5 -101.5t90.5 -23.5h323l-4 57q-89 27 -145.5 53.5t-106.5 68.5t-90 101q-69 103 -90.5 212.5t-4 212t61.5 180.5q52 95 106.5 140t127.5 87q69 41 169.5 65.5t204.5 24.5q105 0 205.5 -24.5t169.5 -65.5q73 -42 127 -86
t107 -141q44 -78 61.5 -180.5t-4 -212t-90.5 -212.5q-60 -87 -137.5 -135.5t-204.5 -87.5l-4 -57h323q65 0 91.5 24.5t44.5 100.5h30v-332h-604l33 311q25 11 55.5 24.5t61.5 35.5t64 65.5t61 108.5q37 86 47.5 215.5t-22.5 261t-118 215.5q-106 106 -297 106t-296 -106
q-85 -84 -118 -215.5t-22.5 -261t47.5 -215.5q28 -65 60.5 -108t64.5 -66t61 -36t56 -24z" />
    <glyph glyph-name="questiondown" unicode="&#xbf;" horiz-adv-x="598" 
d="M510 76l12 -10q-93 -76 -188 -76q-63 0 -123 33.5t-97.5 97t-37.5 147.5q0 85 44.5 170.5t130.5 200t127.5 184.5t41.5 142q0 70 -37 116t-104 58v12q71 -1 126.5 -41t84 -104.5t28.5 -137.5q0 -105 -32.5 -186.5t-95 -179t-91.5 -157t-29 -128.5q0 -82 47 -125t105 -43
q16 0 45 8t43 19zM240 29l6 16q-32 15 -56.5 44t-37.5 68t-13 76q0 68 38 135.5t121.5 181t125 189.5t41.5 152q0 29 -6.5 61.5t-15 56.5t-11.5 29l-8 -2q0 -1 6 -28t6 -56q0 -80 -44 -157t-129 -189t-126 -186.5t-41 -159.5q0 -148 144 -231zM365 1485q50 0 86 -36t36 -87
t-36 -87t-86 -36q-51 0 -87 36t-36 87t36 87t87 36zM365 1274v180q-41 -5 -66 -30.5t-25 -65.5q0 -30 25.5 -57t65.5 -27z" />
    <glyph glyph-name="exclamdown" unicode="&#xa1;" horiz-adv-x="492" 
d="M256 29v870h-10l-76 -723q-9 -83 13.5 -115t72.5 -32zM244 1147h20q0 -97 20.5 -257.5t60.5 -446.5t40 -328q0 -56 -38 -91.5t-87 -35.5t-88 32t-39 95q0 22 34 295.5t55 463t22 273.5zM252 1268v180q-35 -2 -61.5 -26.5t-26.5 -67.5q0 -30 26 -57.5t62 -28.5zM254 1481
q50 0 85.5 -36.5t35.5 -86.5q0 -51 -35 -86t-86 -35q-52 0 -87.5 35.5t-35.5 85.5q0 49 36 86t87 37z" />
    <glyph glyph-name="logicalnot" unicode="&#xac;" horiz-adv-x="1460" 
d="M31 477v113h1362v-590h-113v477h-1249z" />
    <glyph glyph-name="radical" unicode="&#x221a;" horiz-adv-x="1124" 
d="M53 854l-33 68l299 147l404 -825l260 1634l72 -10l-307 -1946l-498 1028z" />
    <glyph glyph-name="florin" unicode="&#x192;" horiz-adv-x="1217" 
d="M961 866l-9 -57h-143l-104 -598q-22 -125 -47 -207.5t-58 -142.5q-59 -114 -151.5 -173t-212.5 -59q-147 0 -236 47l31 152h35q23 -84 66 -123t114 -39q47 0 102.5 23.5t87.5 58.5q32 36 63 99.5t42 117.5l28 129l6 35l121 680h-141l8 57h142l24 131q26 134 45 195.5
t49 112.5q46 75 117 116t156 41q62 0 139 -24l14 22h37l-37 -184h-39q-18 82 -47 114.5t-84 32.5q-48 0 -91.5 -32.5t-69.5 -90.5q-33 -73 -60 -217l-39 -217h142z" />
    <glyph glyph-name="approxequal" unicode="&#x2248;" horiz-adv-x="1124" 
d="M1004 807l75 -49q-58 -97 -163.5 -138t-200.5 -14l-307 88q-66 19 -118 11.5t-86.5 -30t-54.5 -48.5t-32 -41l-88 55q79 105 182.5 142t216.5 5l309 -86q68 -20 162 19q66 28 105 86zM1004 498l75 -49q-58 -99 -163.5 -139t-200.5 -13l-307 88q-66 19 -118 11.5
t-86.5 -30t-56 -50.5t-30.5 -40l-88 56q79 105 182.5 142t216.5 5l309 -86q68 -20 162 19q66 28 105 86z" />
    <glyph glyph-name="Delta" unicode="&#x2206;" horiz-adv-x="1253" 
d="M668 1409l577 -1409h-1233zM594 1059l-447 -959h844z" />
    <glyph glyph-name="guillemotleft" unicode="&#xab;" horiz-adv-x="788" 
d="M766 1233v-133q-134 -85 -225 -246q22 -98 68 -184.5t122 -169.5l-121 -181l-233 459zM426 741l180 -354l35 53l-176 346zM436 1235v-133q-133 -84 -225 -248q27 -104 72 -188.5t118 -163.5l-118 -183l-234 459zM98 741l181 -354l36 55l-178 346z" />
    <glyph glyph-name="guillemotright" unicode="&#xbb;" horiz-adv-x="788" 
d="M528 1237l234 -461l-385 -454v133q131 80 225 247q-35 116 -78.5 199t-111.5 158zM467 1071l176 -344l37 47l-178 350zM201 1235l233 -459l-385 -457v134q126 77 225 247q-35 116 -78.5 199t-111.5 158zM139 1067l176 -342l37 45l-178 352z" />
    <glyph glyph-name="ellipsis" unicode="&#x2026;" horiz-adv-x="1985" 
d="M993 18v183q-43 -4 -66.5 -29t-23.5 -61q0 -35 23 -62t67 -31zM1550 231q51 0 87 -36t36 -86q0 -51 -36 -87t-87 -36q-49 0 -86 36t-37 87q0 50 37 86t86 36zM993 231q51 0 87 -36t36 -86t-35.5 -85.5t-87.5 -35.5t-87.5 35.5t-35.5 85.5t37 86t86 36zM1550 18v183
q-42 -4 -65 -29.5t-23 -60.5t23 -62t65 -31zM434 18v183q-41 -4 -64.5 -29t-23.5 -61q0 -35 23 -62t65 -31zM434 231q51 0 88 -36t37 -86q0 -52 -37.5 -87.5t-87.5 -35.5q-49 0 -86 36t-37 87q0 50 37 86t86 36z" />
    <glyph glyph-name="nonbreakingspace" unicode="&#xa0;" horiz-adv-x="737" 
 />
    <glyph glyph-name="Agrave" unicode="&#xc0;" 
d="M784 1282l519 -1243h67l-553 1327zM768 1198q-27 -53 -71.5 -155t-80.5 -191t-75 -189.5t-52 -132.5q59 -8 137.5 -11t149.5 -3q175 0 287 14q-38 113 -129 321.5t-166 346.5zM874 1479l433 -1033q84 -202 196 -401l166 -35v-10h-706v10l272 35q-15 99 -55.5 215.5
t-89.5 202.5h-627q-40 -101 -64.5 -166t-47 -135t-29.5 -117l262 -35v-10h-559v10l184 35q67 116 123 256l463 1178h79zM603 1737h200l254 -181h-22z" />
    <glyph glyph-name="Agrave" unicode="&#xe0;" 
d="M784 1282l519 -1243h67l-553 1327zM768 1198q-27 -53 -71.5 -155t-80.5 -191t-75 -189.5t-52 -132.5q59 -8 137.5 -11t149.5 -3q175 0 287 14q-38 113 -129 321.5t-166 346.5zM874 1479l433 -1033q84 -202 196 -401l166 -35v-10h-706v10l272 35q-15 99 -55.5 215.5
t-89.5 202.5h-627q-40 -101 -64.5 -166t-47 -135t-29.5 -117l262 -35v-10h-559v10l184 35q67 116 123 256l463 1178h79zM603 1737h200l254 -181h-22z" />
    <glyph glyph-name="Atilde" unicode="&#xc3;" 
d="M784 1282l519 -1243h67l-553 1327zM768 1198q-27 -53 -71.5 -155t-80.5 -191t-75 -189.5t-52 -132.5q59 -8 137.5 -11t149.5 -3q175 0 287 14q-38 113 -129 321.5t-166 346.5zM874 1479l433 -1033q84 -202 196 -401l166 -35v-10h-706v10l272 35q-15 99 -55.5 215.5
t-89.5 202.5h-627q-40 -101 -64.5 -166t-47 -135t-29.5 -117l262 -35v-10h-559v10l184 35q67 116 123 256l463 1178h79zM342 1536l-10 10q56 92 159.5 141.5t193.5 49.5q63 0 206 -51q95 -31 132.5 -41.5t78.5 -10.5q67 0 114 20.5t83 78.5l20 -11q-61 -86 -151.5 -134
t-190.5 -48q-43 0 -86.5 13t-117.5 40q-70 26 -119 39t-99 13q-72 0 -122.5 -25.5t-90.5 -83.5z" />
    <glyph glyph-name="Atilde" unicode="&#xe3;" 
d="M784 1282l519 -1243h67l-553 1327zM768 1198q-27 -53 -71.5 -155t-80.5 -191t-75 -189.5t-52 -132.5q59 -8 137.5 -11t149.5 -3q175 0 287 14q-38 113 -129 321.5t-166 346.5zM874 1479l433 -1033q84 -202 196 -401l166 -35v-10h-706v10l272 35q-15 99 -55.5 215.5
t-89.5 202.5h-627q-40 -101 -64.5 -166t-47 -135t-29.5 -117l262 -35v-10h-559v10l184 35q67 116 123 256l463 1178h79zM342 1536l-10 10q56 92 159.5 141.5t193.5 49.5q63 0 206 -51q95 -31 132.5 -41.5t78.5 -10.5q67 0 114 20.5t83 78.5l20 -11q-61 -86 -151.5 -134
t-190.5 -48q-43 0 -86.5 13t-117.5 40q-70 26 -119 39t-99 13q-72 0 -122.5 -25.5t-90.5 -83.5z" />
    <glyph glyph-name="Otilde" unicode="&#xd5;" horiz-adv-x="1772" 
d="M893 1485q213 0 369 -71t255.5 -186t146 -244.5t46.5 -248.5q0 -136 -52.5 -267t-155 -239.5t-254 -173.5t-337.5 -65q-269 0 -456 116.5t-276 288.5t-89 336q0 145 56.5 281t164 243.5t257.5 168.5t325 61zM899 1415q-155 0 -286.5 -81t-209 -234t-77.5 -361
q0 -224 84.5 -378.5t217 -229t273.5 -74.5q115 0 218 44t184 128.5t126.5 208t45.5 275.5q0 208 -48 332t-141 217q-79 79 -179.5 116t-207.5 37zM950 1456v-10q97 -7 195 -45.5t183.5 -120t137.5 -219.5t52 -332q0 -127 -30.5 -243t-98 -214t-176.5 -162t-261 -79v-11
q128 6 243 55t204.5 140.5t141.5 223.5t52 294q0 177 -54 312.5t-147 225.5t-206.5 136t-235.5 49zM852 1446v10q-140 -1 -273 -60t-234 -160t-157.5 -230t-56.5 -271q0 -174 94.5 -338.5t261.5 -267.5t367 -109v11q-194 17 -343 121t-226.5 258t-77.5 319q0 136 45 261
t130 223t205.5 159t264.5 74zM395 1536l-10 10q56 92 159.5 141.5t193.5 49.5q63 0 206 -51q95 -31 132.5 -41.5t78.5 -10.5q67 0 114 20.5t83 78.5l20 -11q-61 -86 -151.5 -134t-190.5 -48q-43 0 -86.5 13t-117.5 40q-70 26 -119 39t-99 13q-72 0 -122.5 -25.5t-90.5 -83.5
z" />
    <glyph glyph-name="Otilde" unicode="&#xf5;" horiz-adv-x="1772" 
d="M893 1485q213 0 369 -71t255.5 -186t146 -244.5t46.5 -248.5q0 -136 -52.5 -267t-155 -239.5t-254 -173.5t-337.5 -65q-269 0 -456 116.5t-276 288.5t-89 336q0 145 56.5 281t164 243.5t257.5 168.5t325 61zM899 1415q-155 0 -286.5 -81t-209 -234t-77.5 -361
q0 -224 84.5 -378.5t217 -229t273.5 -74.5q115 0 218 44t184 128.5t126.5 208t45.5 275.5q0 208 -48 332t-141 217q-79 79 -179.5 116t-207.5 37zM950 1456v-10q97 -7 195 -45.5t183.5 -120t137.5 -219.5t52 -332q0 -127 -30.5 -243t-98 -214t-176.5 -162t-261 -79v-11
q128 6 243 55t204.5 140.5t141.5 223.5t52 294q0 177 -54 312.5t-147 225.5t-206.5 136t-235.5 49zM852 1446v10q-140 -1 -273 -60t-234 -160t-157.5 -230t-56.5 -271q0 -174 94.5 -338.5t261.5 -267.5t367 -109v11q-194 17 -343 121t-226.5 258t-77.5 319q0 136 45 261
t130 223t205.5 159t264.5 74zM395 1536l-10 10q56 92 159.5 141.5t193.5 49.5q63 0 206 -51q95 -31 132.5 -41.5t78.5 -10.5q67 0 114 20.5t83 78.5l20 -11q-61 -86 -151.5 -134t-190.5 -48q-43 0 -86.5 13t-117.5 40q-70 26 -119 39t-99 13q-72 0 -122.5 -25.5t-90.5 -83.5
z" />
    <glyph glyph-name="OE" unicode="&#x152;" horiz-adv-x="2068" 
d="M1149 119q8 96 14 210.5t9.5 237.5t3.5 240q0 353 -19 541q-51 22 -118 35.5t-128 13.5q-153 0 -265.5 -59t-183 -158t-102.5 -217t-32 -236q0 -136 54 -287.5t182.5 -261.5t336.5 -110q58 0 128 13.5t120 37.5zM930 1464h1059l18 -309h-10l-74 244q-54 8 -197 8
q-87 0 -178 -7t-151 -22q-11 -88 -16 -177.5t-5 -186.5q0 -126 8 -215q52 -11 222 -11q9 0 106 3.5t129 5.5l47 174l15 -2v-424h-15l-49 180q-142 10 -215 10q-76 0 -137.5 -3.5t-102.5 -8.5q-8 -59 -8 -246q0 -77 4.5 -189.5t14.5 -181.5q48 -18 143 -30.5t213 -12.5
q92 0 176 13l80 239h14l-20 -315h-1118q-196 0 -347.5 67t-249.5 176t-145 235.5t-47 248.5q0 101 37.5 222.5t130.5 240.5t259 196.5t409 77.5zM1202 1425v-1386h70v1386h-70zM899 1430v10q-164 0 -304 -55t-243.5 -154.5t-159 -230.5t-55.5 -279q0 -187 96.5 -347
t261.5 -253.5t357 -93.5h53v8q-204 0 -363 99t-244 257.5t-85 331.5q0 207 99 370t258 250t329 87z" />
    <glyph glyph-name="OE" unicode="&#x153;" horiz-adv-x="2068" 
d="M1149 119q8 96 14 210.5t9.5 237.5t3.5 240q0 353 -19 541q-51 22 -118 35.5t-128 13.5q-153 0 -265.5 -59t-183 -158t-102.5 -217t-32 -236q0 -136 54 -287.5t182.5 -261.5t336.5 -110q58 0 128 13.5t120 37.5zM930 1464h1059l18 -309h-10l-74 244q-54 8 -197 8
q-87 0 -178 -7t-151 -22q-11 -88 -16 -177.5t-5 -186.5q0 -126 8 -215q52 -11 222 -11q9 0 106 3.5t129 5.5l47 174l15 -2v-424h-15l-49 180q-142 10 -215 10q-76 0 -137.5 -3.5t-102.5 -8.5q-8 -59 -8 -246q0 -77 4.5 -189.5t14.5 -181.5q48 -18 143 -30.5t213 -12.5
q92 0 176 13l80 239h14l-20 -315h-1118q-196 0 -347.5 67t-249.5 176t-145 235.5t-47 248.5q0 101 37.5 222.5t130.5 240.5t259 196.5t409 77.5zM1202 1425v-1386h70v1386h-70zM899 1430v10q-164 0 -304 -55t-243.5 -154.5t-159 -230.5t-55.5 -279q0 -187 96.5 -347
t261.5 -253.5t357 -93.5h53v8q-204 0 -363 99t-244 257.5t-85 331.5q0 207 99 370t258 250t329 87z" />
    <glyph glyph-name="endash" unicode="&#x2013;" horiz-adv-x="1174" 
d="M139 770h836q62 0 108 35h17l-49 -100h-813q-89 0 -129 -35h-17z" />
    <glyph glyph-name="emdash" unicode="&#x2014;" horiz-adv-x="2347" 
d="M139 770h1997q62 0 109 35h14l-47 -100h-1974q-89 0 -129 -35h-17z" />
    <glyph glyph-name="quotedblleft" unicode="&#x201c;" horiz-adv-x="897" 
d="M698 1485l13 -12q-32 -25 -53.5 -71.5t-26.5 -88.5q60 0 93.5 -38t33.5 -83q0 -53 -36 -89t-91 -36q-46 0 -82.5 38.5t-36.5 106.5q0 166 186 273zM633 1100v182q-45 -7 -64.5 -32t-19.5 -58t20.5 -59.5t63.5 -32.5zM326 1485l12 -12q-31 -26 -54 -73.5t-26 -88.5
q58 0 91.5 -37.5t33.5 -83.5q0 -53 -36 -88t-89 -35q-47 0 -83 38t-36 107q0 88 54 158t133 115zM260 1100v182q-42 -7 -63 -32.5t-21 -57.5q0 -33 21 -59.5t63 -32.5z" />
    <glyph glyph-name="quotedblright" unicode="&#x201d;" horiz-adv-x="897" 
d="M256 1272v180q-88 -8 -88 -92q0 -35 23 -59.5t65 -28.5zM186 1069l-10 10q71 74 80 162q-55 1 -88 36.5t-33 82.5q0 52 32.5 88.5t88.5 36.5q63 0 92 -45.5t29 -96.5q0 -101 -61.5 -170.5t-129.5 -103.5zM637 1272v180q-88 -8 -88 -92q0 -34 21.5 -59t66.5 -29zM567 1069
l-12 10q74 77 80 162q-54 1 -87.5 36.5t-33.5 82.5q0 53 33 89t90 36q62 0 91.5 -45.5t29.5 -96.5q0 -101 -61.5 -170.5t-129.5 -103.5z" />
    <glyph glyph-name="quoteleft" unicode="&#x2018;" horiz-adv-x="492" 
d="M326 1485l12 -12q-31 -26 -54 -73.5t-26 -88.5q58 0 91.5 -37.5t33.5 -83.5q0 -53 -36 -88t-89 -35q-47 0 -83 38t-36 107q0 88 54 158t133 115zM260 1100v182q-42 -7 -63 -32.5t-21 -57.5q0 -33 21 -59.5t63 -32.5z" />
    <glyph glyph-name="quoteright" unicode="&#x2019;" horiz-adv-x="492" 
d="M256 1272v180q-88 -8 -88 -92q0 -35 23 -59.5t65 -28.5zM186 1069l-10 10q71 74 80 162q-55 1 -88 36.5t-33 82.5q0 52 32.5 88.5t88.5 36.5q63 0 92 -45.5t29 -96.5q0 -101 -61.5 -170.5t-129.5 -103.5z" />
    <glyph glyph-name="divide" unicode="&#xf7;" horiz-adv-x="1124" 
d="M20 483v113h1078v-113h-1078zM434 819q0 48 33.5 81.5t81.5 33.5q30 0 56.5 -15t42.5 -42t16 -58q0 -47 -34.5 -80.5t-80.5 -33.5q-47 0 -81 34t-34 80zM434 260q0 48 33.5 81.5t81.5 33.5q30 0 56.5 -15t42.5 -42t16 -58q0 -47 -34 -81t-81 -34q-48 0 -81.5 34.5
t-33.5 80.5z" />
    <glyph glyph-name="lozenge" unicode="&#x25ca;" horiz-adv-x="1012" 
d="M557 0h-123l-397 772l397 754h123l397 -754zM831 772l-335 643l-336 -643l336 -661z" />
    <glyph glyph-name="Ydieresis" unicode="&#xff;" 
d="M766 39h68v625l-476 763h-73l481 -770v-618zM227 1419l-202 35v10h778v-10l-299 -35q67 -148 189 -345t218 -320q105 116 248 325t213 340l-293 35v10h582v-12l-172 -33q-59 -70 -114 -144t-142 -198t-137 -198.5t-150 -227.5q-8 -123 -8 -274q0 -206 31 -332l248 -35
v-10h-758v10l243 35q16 63 25.5 172t9.5 205q0 72 -6 225q-58 106 -147.5 251.5t-184.5 285t-172 235.5zM648 1669q22 0 39.5 -16.5t17.5 -40.5t-17 -41t-40 -17q-26 0 -42 16t-16 42t16.5 41.5t41.5 15.5zM1004 1669q24 0 40.5 -17.5t16.5 -39.5q0 -25 -15.5 -41.5
t-41.5 -16.5q-25 0 -41 17t-16 41q0 21 17 39t40 18z" />
    <glyph glyph-name="Ydieresis" unicode="&#x178;" 
d="M766 39h68v625l-476 763h-73l481 -770v-618zM227 1419l-202 35v10h778v-10l-299 -35q67 -148 189 -345t218 -320q105 116 248 325t213 340l-293 35v10h582v-12l-172 -33q-59 -70 -114 -144t-142 -198t-137 -198.5t-150 -227.5q-8 -123 -8 -274q0 -206 31 -332l248 -35
v-10h-758v10l243 35q16 63 25.5 172t9.5 205q0 72 -6 225q-58 106 -147.5 251.5t-184.5 285t-172 235.5zM648 1669q22 0 39.5 -16.5t17.5 -40.5t-17 -41t-40 -17q-26 0 -42 16t-16 42t16.5 41.5t41.5 15.5zM1004 1669q24 0 40.5 -17.5t16.5 -39.5q0 -25 -15.5 -41.5
t-41.5 -16.5q-25 0 -41 17t-16 41q0 21 17 39t40 18z" />
    <glyph glyph-name="fraction" unicode="&#x2215;" horiz-adv-x="342" 
d="M582 1386h114l-950 -1411h-115z" />
    <glyph glyph-name="Euro" unicode="&#x20ac;" horiz-adv-x="1473" 
d="M1392 270l-148 -274q-48 4 -80 4q-9 0 -93 -6t-139 -6q-304 0 -524 156q-228 162 -277 435h-112l9 78h93q-2 28 -2 58q0 46 5 94h-105l9 78h108q54 270 258.5 433t490.5 163q71 0 173 -7.5t130 -7.5q120 0 169 9l12 -336h-12l-67 223q-150 49 -286 49q-272 0 -439 -143
q-161 -138 -198 -383h472l-9 -78h-471q-2 -33 -2 -61q0 -48 5 -91h477l-9 -78h-455q52 -232 231 -374t425 -142q132 0 202 48q49 33 148 163zM999 16v13q-338 -7 -545 175q-216 190 -216 525q0 328 213 526q205 191 528 191h20v14h-67q-337 0 -553.5 -206t-216.5 -535
q0 -321 239 -520q223 -185 546 -185q30 0 52 2z" />
    <glyph glyph-name="guilsinglleft" unicode="&#x2039;" horiz-adv-x="492" 
d="M471 1231v-133q-139 -93 -225 -248q44 -194 190 -352l-121 -183l-231 459zM131 737l180 -354l35 53l-176 346z" />
    <glyph glyph-name="guilsinglright" unicode="&#x203a;" horiz-adv-x="492" 
d="M244 1231l233 -461l-385 -455v134q126 77 225 247q-35 116 -78.5 199t-111.5 158zM182 1065l176 -344l37 47l-178 350z" />
    <glyph glyph-name="fi" unicode="&#xf001;" horiz-adv-x="2036" 
d="M326 1425v-1388h69v1388h-69zM23 1464h1069l20 -317h-14l-72 252q-111 6 -186 6q-189 0 -318 -29q-8 -69 -15 -190t-7 -185q0 -70 8 -204q93 -11 217 -11q131 0 217 11l49 172h13v-428h-13l-49 182q-57 6 -109.5 8t-109.5 2q-54 0 -217 -10q-6 -105 -6 -215
q0 -77 8 -228.5t20 -234.5l250 -35v-10h-755v10l241 35q15 105 24 283t9 299v278q0 52 -3.5 153.5t-9 198t-16.5 160.5l-245 37v10zM1520 1425v-1386h70v1386h-70zM1971 0h-756v10l244 37q17 125 25.5 301.5t8.5 345.5v168q0 343 -30 557l-248 35v10h756v-10l-250 -35
q-11 -97 -16 -175.5t-9 -190t-4 -209.5v-221q0 -61 4.5 -199.5t12 -234.5t14.5 -144l248 -35v-10z" />
    <glyph glyph-name="fl" unicode="&#xf002;" horiz-adv-x="2496" 
d="M326 1425v-1388h69v1388h-69zM23 1464h1069l20 -317h-14l-72 252q-111 6 -186 6q-189 0 -318 -29q-8 -69 -15 -190t-7 -185q0 -70 8 -204q93 -11 217 -11q131 0 217 11l49 172h13v-428h-13l-49 182q-57 6 -109.5 8t-109.5 2q-54 0 -217 -10q-6 -105 -6 -215
q0 -77 8 -228.5t20 -234.5l250 -35v-10h-755v10l241 35q15 105 24 283t9 299v278q0 52 -3.5 153.5t-9 198t-16.5 160.5l-245 37v10zM1540 1423v-1388h70v1388h-70zM1237 1450v10h756v-10l-248 -35q-13 -97 -22 -261.5t-9 -287.5v-430q0 -155 16 -323q171 -54 353 -54
q88 0 162 10t104 19l104 273h15l-47 -365h-1186v10l239 35q12 48 20.5 171t13.5 254t5 185v252q0 83 -4 190.5t-9.5 188.5t-14.5 133z" />
    <glyph glyph-name="daggerdbl" unicode="&#x2021;" horiz-adv-x="874" 
d="M455 526h-41q0 15 -2 41t-2 31l-7 37q-10 65 -10 115q0 87 17 170l4 20l-17 -2q-63 -11 -98 -25l-29 -10q-61 -24 -102 -24t-68.5 22t-27.5 57q0 37 26.5 60.5t69.5 23.5q30 0 74 -14l32 -14q78 -29 140 -31q0 58 -41 166q-27 76 -27 115q0 43 24.5 72.5t59.5 29.5
q24 0 44 -13.5t32 -36.5t12 -54q0 -37 -29 -119q-30 -92 -38 -160q54 0 133 31q62 22 106 22q98 0 98 -80q0 -33 -26.5 -54t-69.5 -21q-35 0 -96 22l-35 15q-64 22 -110 22q20 -90 20 -168q0 -82 -6 -141l-4 -41l-2 -25q-3 -33 -4 -39zM414 356h41q1 -14 4 -98q3 -38 6 -57
l6 -49q4 -54 4 -84q0 -77 -20 -131q54 7 123 32l45 15q51 18 79 18q38 0 64.5 -22.5t26.5 -55.5t-28.5 -55.5t-72.5 -22.5q-34 0 -112 29q-69 23 -125 25q1 -14 14 -66q5 -18 9 -34.5t5 -20.5l21 -58q18 -61 18 -102q0 -45 -24.5 -75.5t-61.5 -30.5q-39 0 -66.5 31.5
t-27.5 78.5q0 35 23 96q31 83 40 116t9 65q-32 0 -62 -9q-10 -5 -57 -18l-49 -16q-45 -15 -76 -15q-45 0 -71.5 21t-26.5 57q0 34 27.5 56t70.5 22q33 0 86 -21q109 -37 158 -40q-21 50 -21 126q0 34 6 76l7 51q8 47 8 152v14z" />
    <glyph glyph-name="periodcentered" unicode="&#x2219;" horiz-adv-x="426" 
d="M209 643v182q-43 -4 -66.5 -29t-23.5 -61q0 -35 23.5 -62t66.5 -30zM209 856q49 0 86 -36t37 -87q0 -49 -37 -86t-86 -37q-52 0 -87.5 36.5t-35.5 86.5q0 51 36 87t87 36z" />
    <glyph glyph-name="quotesinglbase" unicode="&#x201a;" horiz-adv-x="492" 
d="M260 23v180q-90 -9 -90 -94q0 -33 23 -57.5t67 -28.5zM188 -180l-10 10q74 74 80 162q-54 0 -87.5 35.5t-33.5 81.5q0 53 32 90t91 37q61 0 91 -46t30 -96q0 -102 -64.5 -173t-128.5 -101z" />
    <glyph glyph-name="quotedblbase" unicode="&#x201e;" horiz-adv-x="897" 
d="M631 23v180q-88 -8 -88 -94q0 -32 21.5 -57t66.5 -29zM561 -180l-12 10q74 74 80 162q-54 0 -87.5 35.5t-33.5 81.5q0 52 33.5 89.5t89.5 37.5q61 0 91 -46t30 -96q0 -101 -64 -173t-127 -101zM260 23v180q-90 -9 -90 -94q0 -33 23 -57.5t67 -28.5zM188 -180l-10 10
q74 74 80 162q-54 0 -87.5 35.5t-33.5 81.5q0 53 32 90t91 37q61 0 91 -46t30 -96q0 -102 -64.5 -173t-128.5 -101z" />
    <glyph glyph-name="perthousand" unicode="&#x2030;" horiz-adv-x="2418" 
d="M1128 661q-87 0 -138 -86t-51 -237q0 -160 48.5 -242t131.5 -82q63 0 107 41t66.5 114t22.5 173q0 170 -51.5 244.5t-135.5 74.5zM1154 694v-16q76 -24 128.5 -103.5t52.5 -224.5q0 -149 -49 -243.5t-147 -106.5v-21q79 12 136.5 62t88.5 132t31 181q0 78 -29 149.5
t-84 122.5t-128 68zM1093 -21v17q-103 25 -161 113.5t-58 236.5q-1 138 62.5 229.5t173.5 110.5v16q-48 -3 -100 -25.5t-96 -65t-72.5 -111t-28.5 -162.5q0 -148 78.5 -245t201.5 -114zM1131 714q81 0 144.5 -30t106 -81t65.5 -117t23 -136q0 -96 -42 -185t-121.5 -144.5
t-180.5 -55.5q-94 0 -170 47.5t-120.5 133t-44.5 194.5q0 108 43 193.5t120 133t177 47.5zM426 1443q-85 0 -136 -87.5t-51 -235.5q0 -159 48.5 -241.5t131.5 -82.5q95 0 145.5 88.5t50.5 239.5q0 172 -51.5 245.5t-137.5 73.5zM454 1474v-14q74 -24 126.5 -105t52.5 -223
q0 -147 -49 -243t-146 -109v-19q119 18 187 119.5t68 253.5q0 78 -29 150t-83 122.5t-127 67.5zM393 761v15q-105 27 -162.5 115t-58.5 237q0 136 64 227.5t174 112.5v16q-108 -8 -203.5 -98.5t-95.5 -265.5q1 -148 79.5 -246t202.5 -113zM431 1497q103 0 180.5 -52.5
t117.5 -136.5t40 -176q0 -96 -42.5 -186t-120.5 -145.5t-180 -55.5q-142 0 -238.5 107t-96.5 270q0 109 43 194t120 133t177 48zM1168 1493h56l-853 -1534h-56zM1950 651q-87 0 -138 -86t-51 -237q0 -160 48.5 -242t131.5 -82q63 0 107 41t66.5 114t22.5 173
q0 170 -51.5 244.5t-135.5 74.5zM1976 684v-16q76 -24 128.5 -103.5t52.5 -224.5q0 -149 -49 -243.5t-147 -106.5v-21q79 12 136.5 62t88.5 132t31 181q0 78 -29 149.5t-84 122.5t-128 68zM1915 -31v17q-103 25 -161 113.5t-58 236.5q-1 138 62.5 229.5t173.5 110.5v16
q-48 -3 -100 -25.5t-96 -65t-72.5 -111t-28.5 -162.5q0 -148 78.5 -245t201.5 -114zM1953 704q81 0 144.5 -30t106 -81t65.5 -117t23 -136q0 -96 -42 -185t-121.5 -144.5t-180.5 -55.5q-94 0 -170 47.5t-120.5 133t-44.5 194.5q0 108 43 193.5t120 133t177 47.5z" />
    <glyph glyph-name="Acircumflex" unicode="&#xc2;" 
d="M784 1282l519 -1243h67l-553 1327zM768 1198q-27 -53 -71.5 -155t-80.5 -191t-75 -189.5t-52 -132.5q59 -8 137.5 -11t149.5 -3q175 0 287 14q-38 113 -129 321.5t-166 346.5zM874 1479l433 -1033q84 -202 196 -401l166 -35v-10h-706v10l272 35q-15 99 -55.5 215.5
t-89.5 202.5h-627q-40 -101 -64.5 -166t-47 -135t-29.5 -117l262 -35v-10h-559v10l184 35q67 116 123 256l463 1178h79zM834 1743l313 -187h-26l-285 101l-287 -98h-28z" />
    <glyph glyph-name="Acircumflex" unicode="&#xe2;" 
d="M784 1282l519 -1243h67l-553 1327zM768 1198q-27 -53 -71.5 -155t-80.5 -191t-75 -189.5t-52 -132.5q59 -8 137.5 -11t149.5 -3q175 0 287 14q-38 113 -129 321.5t-166 346.5zM874 1479l433 -1033q84 -202 196 -401l166 -35v-10h-706v10l272 35q-15 99 -55.5 215.5
t-89.5 202.5h-627q-40 -101 -64.5 -166t-47 -135t-29.5 -117l262 -35v-10h-559v10l184 35q67 116 123 256l463 1178h79zM834 1743l313 -187h-26l-285 101l-287 -98h-28z" />
    <glyph glyph-name="Ecircumflex" unicode="&#xca;" horiz-adv-x="1174" 
d="M324 1425v-1386h69v1386h-69zM20 1454v10h1065l25 -311h-16l-72 244q-85 6 -191 6q-193 0 -311 -27q-20 -162 -20 -370q0 -130 8 -211q158 -9 201 -9q113 0 233 13l45 170h17v-426h-17l-47 180q-87 10 -192 10q-132 0 -240 -12q-13 -116 -8 -227q2 -142 5 -234.5
t11 -159.5q122 -37 320 -37q114 0 192 9l80 241h14l-22 -313h-1077v10l239 35q8 41 14.5 125t11.5 188.5t7 175t2 123.5v252q0 48 -3 136.5t-9 183.5t-17 190zM588 1743l313 -187h-26l-285 101l-287 -98h-28z" />
    <glyph glyph-name="Ecircumflex" unicode="&#xea;" horiz-adv-x="1174" 
d="M324 1425v-1386h69v1386h-69zM20 1454v10h1065l25 -311h-16l-72 244q-85 6 -191 6q-193 0 -311 -27q-20 -162 -20 -370q0 -130 8 -211q158 -9 201 -9q113 0 233 13l45 170h17v-426h-17l-47 180q-87 10 -192 10q-132 0 -240 -12q-13 -116 -8 -227q2 -142 5 -234.5
t11 -159.5q122 -37 320 -37q114 0 192 9l80 241h14l-22 -313h-1077v10l239 35q8 41 14.5 125t11.5 188.5t7 175t2 123.5v252q0 48 -3 136.5t-9 183.5t-17 190zM588 1743l313 -187h-26l-285 101l-287 -98h-28z" />
    <glyph glyph-name="Aacute" unicode="&#xc1;" 
d="M784 1282l519 -1243h67l-553 1327zM768 1198q-27 -53 -71.5 -155t-80.5 -191t-75 -189.5t-52 -132.5q59 -8 137.5 -11t149.5 -3q175 0 287 14q-38 113 -129 321.5t-166 346.5zM874 1479l433 -1033q84 -202 196 -401l166 -35v-10h-706v10l272 35q-15 99 -55.5 215.5
t-89.5 202.5h-627q-40 -101 -64.5 -166t-47 -135t-29.5 -117l262 -35v-10h-559v10l184 35q67 116 123 256l463 1178h79zM877 1737h209l-434 -181h-25z" />
    <glyph glyph-name="Aacute" unicode="&#xe1;" 
d="M784 1282l519 -1243h67l-553 1327zM768 1198q-27 -53 -71.5 -155t-80.5 -191t-75 -189.5t-52 -132.5q59 -8 137.5 -11t149.5 -3q175 0 287 14q-38 113 -129 321.5t-166 346.5zM874 1479l433 -1033q84 -202 196 -401l166 -35v-10h-706v10l272 35q-15 99 -55.5 215.5
t-89.5 202.5h-627q-40 -101 -64.5 -166t-47 -135t-29.5 -117l262 -35v-10h-559v10l184 35q67 116 123 256l463 1178h79zM877 1737h209l-434 -181h-25z" />
    <glyph glyph-name="Edieresis" unicode="&#xcb;" horiz-adv-x="1174" 
d="M324 1425v-1386h69v1386h-69zM20 1454v10h1065l25 -311h-16l-72 244q-85 6 -191 6q-193 0 -311 -27q-20 -162 -20 -370q0 -130 8 -211q158 -9 201 -9q113 0 233 13l45 170h17v-426h-17l-47 180q-87 10 -192 10q-132 0 -240 -12q-13 -116 -8 -227q2 -142 5 -234.5
t11 -159.5q122 -37 320 -37q114 0 192 9l80 241h14l-22 -313h-1077v10l239 35q8 41 14.5 125t11.5 188.5t7 175t2 123.5v252q0 48 -3 136.5t-9 183.5t-17 190zM402 1669q22 0 39.5 -16.5t17.5 -40.5t-17 -41t-40 -17q-26 0 -42 16t-16 42t16.5 41.5t41.5 15.5zM758 1669
q24 0 40.5 -17.5t16.5 -39.5q0 -25 -15.5 -41.5t-41.5 -16.5q-25 0 -41 17t-16 41q0 21 17 39t40 18z" />
    <glyph glyph-name="Edieresis" unicode="&#xeb;" horiz-adv-x="1174" 
d="M324 1425v-1386h69v1386h-69zM20 1454v10h1065l25 -311h-16l-72 244q-85 6 -191 6q-193 0 -311 -27q-20 -162 -20 -370q0 -130 8 -211q158 -9 201 -9q113 0 233 13l45 170h17v-426h-17l-47 180q-87 10 -192 10q-132 0 -240 -12q-13 -116 -8 -227q2 -142 5 -234.5
t11 -159.5q122 -37 320 -37q114 0 192 9l80 241h14l-22 -313h-1077v10l239 35q8 41 14.5 125t11.5 188.5t7 175t2 123.5v252q0 48 -3 136.5t-9 183.5t-17 190zM402 1669q22 0 39.5 -16.5t17.5 -40.5t-17 -41t-40 -17q-26 0 -42 16t-16 42t16.5 41.5t41.5 15.5zM758 1669
q24 0 40.5 -17.5t16.5 -39.5q0 -25 -15.5 -41.5t-41.5 -16.5q-25 0 -41 17t-16 41q0 21 17 39t40 18z" />
    <glyph glyph-name="Egrave" unicode="&#xc8;" horiz-adv-x="1174" 
d="M324 1425v-1386h69v1386h-69zM20 1454v10h1065l25 -311h-16l-72 244q-85 6 -191 6q-193 0 -311 -27q-20 -162 -20 -370q0 -130 8 -211q158 -9 201 -9q113 0 233 13l45 170h17v-426h-17l-47 180q-87 10 -192 10q-132 0 -240 -12q-13 -116 -8 -227q2 -142 5 -234.5
t11 -159.5q122 -37 320 -37q114 0 192 9l80 241h14l-22 -313h-1077v10l239 35q8 41 14.5 125t11.5 188.5t7 175t2 123.5v252q0 48 -3 136.5t-9 183.5t-17 190zM357 1737h200l254 -181h-22z" />
    <glyph glyph-name="Egrave" unicode="&#xe8;" horiz-adv-x="1174" 
d="M324 1425v-1386h69v1386h-69zM20 1454v10h1065l25 -311h-16l-72 244q-85 6 -191 6q-193 0 -311 -27q-20 -162 -20 -370q0 -130 8 -211q158 -9 201 -9q113 0 233 13l45 170h17v-426h-17l-47 180q-87 10 -192 10q-132 0 -240 -12q-13 -116 -8 -227q2 -142 5 -234.5
t11 -159.5q122 -37 320 -37q114 0 192 9l80 241h14l-22 -313h-1077v10l239 35q8 41 14.5 125t11.5 188.5t7 175t2 123.5v252q0 48 -3 136.5t-9 183.5t-17 190zM357 1737h200l254 -181h-22z" />
    <glyph glyph-name="Iacute" unicode="&#xcd;" horiz-adv-x="788" 
d="M340 1425v-1386h70v1386h-70zM791 0h-756v10l244 37q17 125 25.5 301.5t8.5 345.5v168q0 343 -30 557l-248 35v10h756v-10l-250 -35q-11 -97 -16 -175.5t-9 -190t-4 -209.5v-221q0 -61 4.5 -199.5t12 -234.5t14.5 -144l248 -35v-10zM438 1737h209l-434 -181h-25z" />
    <glyph glyph-name="Iacute" unicode="&#xed;" horiz-adv-x="788" 
d="M340 1425v-1386h70v1386h-70zM791 0h-756v10l244 37q17 125 25.5 301.5t8.5 345.5v168q0 343 -30 557l-248 35v10h756v-10l-250 -35q-11 -97 -16 -175.5t-9 -190t-4 -209.5v-221q0 -61 4.5 -199.5t12 -234.5t14.5 -144l248 -35v-10zM438 1737h209l-434 -181h-25z" />
    <glyph glyph-name="Icircumflex" unicode="&#xce;" horiz-adv-x="788" 
d="M340 1425v-1386h70v1386h-70zM791 0h-756v10l244 37q17 125 25.5 301.5t8.5 345.5v168q0 343 -30 557l-248 35v10h756v-10l-250 -35q-11 -97 -16 -175.5t-9 -190t-4 -209.5v-221q0 -61 4.5 -199.5t12 -234.5t14.5 -144l248 -35v-10zM395 1743l313 -187h-26l-285 101
l-287 -98h-28z" />
    <glyph glyph-name="Icircumflex" unicode="&#xee;" horiz-adv-x="788" 
d="M340 1425v-1386h70v1386h-70zM791 0h-756v10l244 37q17 125 25.5 301.5t8.5 345.5v168q0 343 -30 557l-248 35v10h756v-10l-250 -35q-11 -97 -16 -175.5t-9 -190t-4 -209.5v-221q0 -61 4.5 -199.5t12 -234.5t14.5 -144l248 -35v-10zM395 1743l313 -187h-26l-285 101
l-287 -98h-28z" />
    <glyph glyph-name="Idieresis" unicode="&#xcf;" horiz-adv-x="788" 
d="M340 1425v-1386h70v1386h-70zM791 0h-756v10l244 37q17 125 25.5 301.5t8.5 345.5v168q0 343 -30 557l-248 35v10h756v-10l-250 -35q-11 -97 -16 -175.5t-9 -190t-4 -209.5v-221q0 -61 4.5 -199.5t12 -234.5t14.5 -144l248 -35v-10zM209 1669q22 0 39.5 -16.5t17.5 -40.5
t-17 -41t-40 -17q-26 0 -42 16t-16 42t16.5 41.5t41.5 15.5zM565 1669q24 0 40.5 -17.5t16.5 -39.5q0 -25 -15.5 -41.5t-41.5 -16.5q-25 0 -41 17t-16 41q0 21 17 39t40 18z" />
    <glyph glyph-name="Idieresis" unicode="&#xef;" horiz-adv-x="788" 
d="M340 1425v-1386h70v1386h-70zM791 0h-756v10l244 37q17 125 25.5 301.5t8.5 345.5v168q0 343 -30 557l-248 35v10h756v-10l-250 -35q-11 -97 -16 -175.5t-9 -190t-4 -209.5v-221q0 -61 4.5 -199.5t12 -234.5t14.5 -144l248 -35v-10zM209 1669q22 0 39.5 -16.5t17.5 -40.5
t-17 -41t-40 -17q-26 0 -42 16t-16 42t16.5 41.5t41.5 15.5zM565 1669q24 0 40.5 -17.5t16.5 -39.5q0 -25 -15.5 -41.5t-41.5 -16.5q-25 0 -41 17t-16 41q0 21 17 39t40 18z" />
    <glyph glyph-name="Igrave" unicode="&#xcc;" horiz-adv-x="788" 
d="M340 1425v-1386h70v1386h-70zM791 0h-756v10l244 37q17 125 25.5 301.5t8.5 345.5v168q0 343 -30 557l-248 35v10h756v-10l-250 -35q-11 -97 -16 -175.5t-9 -190t-4 -209.5v-221q0 -61 4.5 -199.5t12 -234.5t14.5 -144l248 -35v-10zM164 1737h200l254 -181h-22z" />
    <glyph glyph-name="Igrave" unicode="&#xec;" horiz-adv-x="788" 
d="M340 1425v-1386h70v1386h-70zM791 0h-756v10l244 37q17 125 25.5 301.5t8.5 345.5v168q0 343 -30 557l-248 35v10h756v-10l-250 -35q-11 -97 -16 -175.5t-9 -190t-4 -209.5v-221q0 -61 4.5 -199.5t12 -234.5t14.5 -144l248 -35v-10zM164 1737h200l254 -181h-22z" />
    <glyph glyph-name="Oacute" unicode="&#xd3;" horiz-adv-x="1772" 
d="M893 1485q213 0 369 -71t255.5 -186t146 -244.5t46.5 -248.5q0 -136 -52.5 -267t-155 -239.5t-254 -173.5t-337.5 -65q-269 0 -456 116.5t-276 288.5t-89 336q0 145 56.5 281t164 243.5t257.5 168.5t325 61zM899 1415q-155 0 -286.5 -81t-209 -234t-77.5 -361
q0 -224 84.5 -378.5t217 -229t273.5 -74.5q115 0 218 44t184 128.5t126.5 208t45.5 275.5q0 208 -48 332t-141 217q-79 79 -179.5 116t-207.5 37zM950 1456v-10q97 -7 195 -45.5t183.5 -120t137.5 -219.5t52 -332q0 -127 -30.5 -243t-98 -214t-176.5 -162t-261 -79v-11
q128 6 243 55t204.5 140.5t141.5 223.5t52 294q0 177 -54 312.5t-147 225.5t-206.5 136t-235.5 49zM852 1446v10q-140 -1 -273 -60t-234 -160t-157.5 -230t-56.5 -271q0 -174 94.5 -338.5t261.5 -267.5t367 -109v11q-194 17 -343 121t-226.5 258t-77.5 319q0 136 45 261
t130 223t205.5 159t264.5 74zM930 1737h209l-434 -181h-25z" />
    <glyph glyph-name="Oacute" unicode="&#xf3;" horiz-adv-x="1772" 
d="M893 1485q213 0 369 -71t255.5 -186t146 -244.5t46.5 -248.5q0 -136 -52.5 -267t-155 -239.5t-254 -173.5t-337.5 -65q-269 0 -456 116.5t-276 288.5t-89 336q0 145 56.5 281t164 243.5t257.5 168.5t325 61zM899 1415q-155 0 -286.5 -81t-209 -234t-77.5 -361
q0 -224 84.5 -378.5t217 -229t273.5 -74.5q115 0 218 44t184 128.5t126.5 208t45.5 275.5q0 208 -48 332t-141 217q-79 79 -179.5 116t-207.5 37zM950 1456v-10q97 -7 195 -45.5t183.5 -120t137.5 -219.5t52 -332q0 -127 -30.5 -243t-98 -214t-176.5 -162t-261 -79v-11
q128 6 243 55t204.5 140.5t141.5 223.5t52 294q0 177 -54 312.5t-147 225.5t-206.5 136t-235.5 49zM852 1446v10q-140 -1 -273 -60t-234 -160t-157.5 -230t-56.5 -271q0 -174 94.5 -338.5t261.5 -267.5t367 -109v11q-194 17 -343 121t-226.5 258t-77.5 319q0 136 45 261
t130 223t205.5 159t264.5 74zM930 1737h209l-434 -181h-25z" />
    <glyph glyph-name="Ocircumflex" unicode="&#xd4;" horiz-adv-x="1772" 
d="M893 1485q213 0 369 -71t255.5 -186t146 -244.5t46.5 -248.5q0 -136 -52.5 -267t-155 -239.5t-254 -173.5t-337.5 -65q-269 0 -456 116.5t-276 288.5t-89 336q0 145 56.5 281t164 243.5t257.5 168.5t325 61zM899 1415q-155 0 -286.5 -81t-209 -234t-77.5 -361
q0 -224 84.5 -378.5t217 -229t273.5 -74.5q115 0 218 44t184 128.5t126.5 208t45.5 275.5q0 208 -48 332t-141 217q-79 79 -179.5 116t-207.5 37zM950 1456v-10q97 -7 195 -45.5t183.5 -120t137.5 -219.5t52 -332q0 -127 -30.5 -243t-98 -214t-176.5 -162t-261 -79v-11
q128 6 243 55t204.5 140.5t141.5 223.5t52 294q0 177 -54 312.5t-147 225.5t-206.5 136t-235.5 49zM852 1446v10q-140 -1 -273 -60t-234 -160t-157.5 -230t-56.5 -271q0 -174 94.5 -338.5t261.5 -267.5t367 -109v11q-194 17 -343 121t-226.5 258t-77.5 319q0 136 45 261
t130 223t205.5 159t264.5 74zM887 1743l313 -187h-26l-285 101l-287 -98h-28z" />
    <glyph glyph-name="Ocircumflex" unicode="&#xf4;" horiz-adv-x="1772" 
d="M893 1485q213 0 369 -71t255.5 -186t146 -244.5t46.5 -248.5q0 -136 -52.5 -267t-155 -239.5t-254 -173.5t-337.5 -65q-269 0 -456 116.5t-276 288.5t-89 336q0 145 56.5 281t164 243.5t257.5 168.5t325 61zM899 1415q-155 0 -286.5 -81t-209 -234t-77.5 -361
q0 -224 84.5 -378.5t217 -229t273.5 -74.5q115 0 218 44t184 128.5t126.5 208t45.5 275.5q0 208 -48 332t-141 217q-79 79 -179.5 116t-207.5 37zM950 1456v-10q97 -7 195 -45.5t183.5 -120t137.5 -219.5t52 -332q0 -127 -30.5 -243t-98 -214t-176.5 -162t-261 -79v-11
q128 6 243 55t204.5 140.5t141.5 223.5t52 294q0 177 -54 312.5t-147 225.5t-206.5 136t-235.5 49zM852 1446v10q-140 -1 -273 -60t-234 -160t-157.5 -230t-56.5 -271q0 -174 94.5 -338.5t261.5 -267.5t367 -109v11q-194 17 -343 121t-226.5 258t-77.5 319q0 136 45 261
t130 223t205.5 159t264.5 74zM887 1743l313 -187h-26l-285 101l-287 -98h-28z" />
    <glyph glyph-name="apple" unicode="&#xf000;" horiz-adv-x="1618" 
d="M849 61q-52 0 -142 -41q-71 -35 -145 -22q-77 13 -129 61q-75 69 -119.5 136t-103.5 192q-43 97 -69.5 236.5t-8.5 236.5q42 226 176 328q75 58 181 74.5t177 -2.5q15 -4 77 -30t106 -26q45 0 105 26t77 30q74 18 180.5 2t179.5 -74q27 -20 78 -78q-51 -38 -69.5 -54.5
t-34.5 -36.5t-33 -48q-56 -91 -53 -205q1 -52 20 -107.5t47 -93.5q32 -43 59 -66t66 -42.5l41 -20.5q-54 -115 -84 -171t-63.5 -101t-75.5 -84q-23 -21 -40 -37.5t-42 -27.5t-70 -17q-71 -13 -147 22q-87 41 -141 41zM1170 1655q1 -32 1 -67t-5 -60q-7 -37 -26 -76.5
t-44 -62.5q-60 -60 -139 -109q-14 -9 -115 -18q-7 62 11 104q39 100 71 141q33 41 61 64.5t50 34.5q83 40 135 49z" />
    <glyph glyph-name="Ograve" unicode="&#xd2;" horiz-adv-x="1772" 
d="M893 1485q213 0 369 -71t255.5 -186t146 -244.5t46.5 -248.5q0 -136 -52.5 -267t-155 -239.5t-254 -173.5t-337.5 -65q-269 0 -456 116.5t-276 288.5t-89 336q0 145 56.5 281t164 243.5t257.5 168.5t325 61zM899 1415q-155 0 -286.5 -81t-209 -234t-77.5 -361
q0 -224 84.5 -378.5t217 -229t273.5 -74.5q115 0 218 44t184 128.5t126.5 208t45.5 275.5q0 208 -48 332t-141 217q-79 79 -179.5 116t-207.5 37zM950 1456v-10q97 -7 195 -45.5t183.5 -120t137.5 -219.5t52 -332q0 -127 -30.5 -243t-98 -214t-176.5 -162t-261 -79v-11
q128 6 243 55t204.5 140.5t141.5 223.5t52 294q0 177 -54 312.5t-147 225.5t-206.5 136t-235.5 49zM852 1446v10q-140 -1 -273 -60t-234 -160t-157.5 -230t-56.5 -271q0 -174 94.5 -338.5t261.5 -267.5t367 -109v11q-194 17 -343 121t-226.5 258t-77.5 319q0 136 45 261
t130 223t205.5 159t264.5 74zM656 1737h200l254 -181h-22z" />
    <glyph glyph-name="Ograve" unicode="&#xf2;" horiz-adv-x="1772" 
d="M893 1485q213 0 369 -71t255.5 -186t146 -244.5t46.5 -248.5q0 -136 -52.5 -267t-155 -239.5t-254 -173.5t-337.5 -65q-269 0 -456 116.5t-276 288.5t-89 336q0 145 56.5 281t164 243.5t257.5 168.5t325 61zM899 1415q-155 0 -286.5 -81t-209 -234t-77.5 -361
q0 -224 84.5 -378.5t217 -229t273.5 -74.5q115 0 218 44t184 128.5t126.5 208t45.5 275.5q0 208 -48 332t-141 217q-79 79 -179.5 116t-207.5 37zM950 1456v-10q97 -7 195 -45.5t183.5 -120t137.5 -219.5t52 -332q0 -127 -30.5 -243t-98 -214t-176.5 -162t-261 -79v-11
q128 6 243 55t204.5 140.5t141.5 223.5t52 294q0 177 -54 312.5t-147 225.5t-206.5 136t-235.5 49zM852 1446v10q-140 -1 -273 -60t-234 -160t-157.5 -230t-56.5 -271q0 -174 94.5 -338.5t261.5 -267.5t367 -109v11q-194 17 -343 121t-226.5 258t-77.5 319q0 136 45 261
t130 223t205.5 159t264.5 74zM656 1737h200l254 -181h-22z" />
    <glyph glyph-name="Uacute" unicode="&#xda;" horiz-adv-x="1772" 
d="M971 25v-13q118 7 204 38.5t142.5 88t84.5 141.5t28 197v950h-70v-948q0 -200 -92 -316t-297 -138zM840 12v13q-141 8 -246.5 56.5t-165 144t-59.5 233.5v968h-70v-1003q0 -185 129.5 -292.5t411.5 -119.5zM270 424v557q0 186 -24 440l-209 33v10h729v-10l-264 -33
q-10 -70 -16 -168t-10.5 -209t-4.5 -178v-411q0 -147 59.5 -236.5t157 -126.5t215.5 -37q201 0 315.5 102t114.5 330v428q0 114 -8 269.5t-20 236.5l-263 33v10h725v-10l-204 -33q-14 -65 -21.5 -216.5t-7.5 -254.5v-485q0 -113 -27 -192t-84 -136q-39 -39 -82 -66t-109 -47
t-144 -29t-193 -9q-188 0 -327 42t-218.5 140t-79.5 256zM930 1737h209l-434 -181h-25z" />
    <glyph glyph-name="Uacute" unicode="&#xfa;" horiz-adv-x="1772" 
d="M971 25v-13q118 7 204 38.5t142.5 88t84.5 141.5t28 197v950h-70v-948q0 -200 -92 -316t-297 -138zM840 12v13q-141 8 -246.5 56.5t-165 144t-59.5 233.5v968h-70v-1003q0 -185 129.5 -292.5t411.5 -119.5zM270 424v557q0 186 -24 440l-209 33v10h729v-10l-264 -33
q-10 -70 -16 -168t-10.5 -209t-4.5 -178v-411q0 -147 59.5 -236.5t157 -126.5t215.5 -37q201 0 315.5 102t114.5 330v428q0 114 -8 269.5t-20 236.5l-263 33v10h725v-10l-204 -33q-14 -65 -21.5 -216.5t-7.5 -254.5v-485q0 -113 -27 -192t-84 -136q-39 -39 -82 -66t-109 -47
t-144 -29t-193 -9q-188 0 -327 42t-218.5 140t-79.5 256zM930 1737h209l-434 -181h-25z" />
    <glyph glyph-name="Ucircumflex" unicode="&#xdb;" horiz-adv-x="1772" 
d="M971 25v-13q118 7 204 38.5t142.5 88t84.5 141.5t28 197v950h-70v-948q0 -200 -92 -316t-297 -138zM840 12v13q-141 8 -246.5 56.5t-165 144t-59.5 233.5v968h-70v-1003q0 -185 129.5 -292.5t411.5 -119.5zM270 424v557q0 186 -24 440l-209 33v10h729v-10l-264 -33
q-10 -70 -16 -168t-10.5 -209t-4.5 -178v-411q0 -147 59.5 -236.5t157 -126.5t215.5 -37q201 0 315.5 102t114.5 330v428q0 114 -8 269.5t-20 236.5l-263 33v10h725v-10l-204 -33q-14 -65 -21.5 -216.5t-7.5 -254.5v-485q0 -113 -27 -192t-84 -136q-39 -39 -82 -66t-109 -47
t-144 -29t-193 -9q-188 0 -327 42t-218.5 140t-79.5 256zM887 1743l313 -187h-26l-285 101l-287 -98h-28z" />
    <glyph glyph-name="Ucircumflex" unicode="&#xfb;" horiz-adv-x="1772" 
d="M971 25v-13q118 7 204 38.5t142.5 88t84.5 141.5t28 197v950h-70v-948q0 -200 -92 -316t-297 -138zM840 12v13q-141 8 -246.5 56.5t-165 144t-59.5 233.5v968h-70v-1003q0 -185 129.5 -292.5t411.5 -119.5zM270 424v557q0 186 -24 440l-209 33v10h729v-10l-264 -33
q-10 -70 -16 -168t-10.5 -209t-4.5 -178v-411q0 -147 59.5 -236.5t157 -126.5t215.5 -37q201 0 315.5 102t114.5 330v428q0 114 -8 269.5t-20 236.5l-263 33v10h725v-10l-204 -33q-14 -65 -21.5 -216.5t-7.5 -254.5v-485q0 -113 -27 -192t-84 -136q-39 -39 -82 -66t-109 -47
t-144 -29t-193 -9q-188 0 -327 42t-218.5 140t-79.5 256zM887 1743l313 -187h-26l-285 101l-287 -98h-28z" />
    <glyph glyph-name="Ugrave" unicode="&#xd9;" horiz-adv-x="1772" 
d="M971 25v-13q118 7 204 38.5t142.5 88t84.5 141.5t28 197v950h-70v-948q0 -200 -92 -316t-297 -138zM840 12v13q-141 8 -246.5 56.5t-165 144t-59.5 233.5v968h-70v-1003q0 -185 129.5 -292.5t411.5 -119.5zM270 424v557q0 186 -24 440l-209 33v10h729v-10l-264 -33
q-10 -70 -16 -168t-10.5 -209t-4.5 -178v-411q0 -147 59.5 -236.5t157 -126.5t215.5 -37q201 0 315.5 102t114.5 330v428q0 114 -8 269.5t-20 236.5l-263 33v10h725v-10l-204 -33q-14 -65 -21.5 -216.5t-7.5 -254.5v-485q0 -113 -27 -192t-84 -136q-39 -39 -82 -66t-109 -47
t-144 -29t-193 -9q-188 0 -327 42t-218.5 140t-79.5 256zM656 1737h200l254 -181h-22z" />
    <glyph glyph-name="Ugrave" unicode="&#xf9;" horiz-adv-x="1772" 
d="M971 25v-13q118 7 204 38.5t142.5 88t84.5 141.5t28 197v950h-70v-948q0 -200 -92 -316t-297 -138zM840 12v13q-141 8 -246.5 56.5t-165 144t-59.5 233.5v968h-70v-1003q0 -185 129.5 -292.5t411.5 -119.5zM270 424v557q0 186 -24 440l-209 33v10h729v-10l-264 -33
q-10 -70 -16 -168t-10.5 -209t-4.5 -178v-411q0 -147 59.5 -236.5t157 -126.5t215.5 -37q201 0 315.5 102t114.5 330v428q0 114 -8 269.5t-20 236.5l-263 33v10h725v-10l-204 -33q-14 -65 -21.5 -216.5t-7.5 -254.5v-485q0 -113 -27 -192t-84 -136q-39 -39 -82 -66t-109 -47
t-144 -29t-193 -9q-188 0 -327 42t-218.5 140t-79.5 256zM656 1737h200l254 -181h-22z" />
    <glyph glyph-name="circumflex" unicode="&#x2c6;" horiz-adv-x="682" 
d="M342 1743l313 -187h-26l-285 101l-287 -98h-28z" />
    <glyph glyph-name="tilde" unicode="&#x2dc;" horiz-adv-x="682" 
d="M-150 1536l-10 10q56 92 159.5 141.5t193.5 49.5q63 0 206 -51q95 -31 132.5 -41.5t78.5 -10.5q67 0 114 20.5t83 78.5l20 -11q-61 -86 -151.5 -134t-190.5 -48q-43 0 -86.5 13t-117.5 40q-70 26 -119 39t-99 13q-72 0 -122.5 -25.5t-90.5 -83.5z" />
    <glyph glyph-name="macron" unicode="&#x2c9;" horiz-adv-x="682" 
d="M25 1675h637v-129h-637v129z" />
    <glyph glyph-name="breve" unicode="&#x2d8;" horiz-adv-x="682" 
d="M25 1720h16q94 -104 307 -104q200 0 295 102h16q-47 -91 -132.5 -135.5t-192.5 -44.5q-96 0 -180 48t-129 134z" />
    <glyph glyph-name="dotaccent" unicode="&#x2d9;" horiz-adv-x="682" 
d="M344 1671q25 0 41 -17t16 -42q0 -24 -17 -41t-40 -17t-41 18t-18 40q0 23 17 41t42 18z" />
    <glyph glyph-name="ring" unicode="&#x2da;" horiz-adv-x="682" 
d="M346 1782q57 0 96 -40t39 -95q0 -57 -39.5 -97.5t-95.5 -40.5t-96.5 40.5t-40.5 97.5q0 55 40 95t97 40zM344 1757q-46 0 -78.5 -32.5t-32.5 -79.5q0 -46 32.5 -78.5t78.5 -32.5q48 0 80.5 31.5t32.5 79.5q0 49 -32.5 80.5t-80.5 31.5z" />
    <glyph glyph-name="cedilla" unicode="&#xb8;" horiz-adv-x="682" 
d="M352 14l-12 -61h35q25 0 43 -18t18 -41q0 -78 -153 -78q-20 0 -80 6l2 12h55q37 0 71 14t34 41q0 42 -62 35l21 90h28z" />
    <glyph glyph-name="hungarumlaut" unicode="&#x2dd;" horiz-adv-x="682" 
d="M528 1737h209l-434 -181h-27zM229 1737h209l-434 -181h-27z" />
    <glyph glyph-name="ogonek" unicode="&#x2db;" horiz-adv-x="682" 
d="M229 16h52q-27 -50 -27 -100q0 -90 63 -139q69 -56 150 -56q50 0 121 23l20 -31q-87 -48 -129.5 -61.5t-101.5 -13.5q-103 0 -166.5 51t-63.5 135q0 53 21.5 104.5t60.5 87.5z" />
    <glyph glyph-name="caron" unicode="&#x2c7;" horiz-adv-x="682" 
d="M29 1741h37l278 -96l279 94h28l-309 -180z" />
    <glyph glyph-name="Scaron" unicode="&#x160;" horiz-adv-x="981" 
d="M571 1462h-32q-110 0 -203 -44t-147 -125t-54 -183q0 -127 111 -238q49 -47 91.5 -79t128.5 -90.5t137.5 -96t84.5 -71.5q90 -90 90 -201q0 -76 -41.5 -146.5t-120 -115t-184.5 -45.5v-11q122 -4 217.5 43t146 124t50.5 159q0 71 -23 129t-84 119q-35 35 -126 97.5
t-184 126t-136 104.5q-105 104 -105 229q0 110 95.5 205t287.5 100v10zM82 350l76 -246q57 -26 133.5 -42t132.5 -15q75 0 137.5 26t102 66t60.5 90.5t21 98.5q0 99 -67 167t-224.5 174t-228.5 177q-61 63 -91 126.5t-30 141.5q0 86 47 171t145 141.5t241 56.5
q65 0 138 -6.5t101 -6.5q24 1 45 1.5t33.5 2t26.5 3.5l6 -342h-13l-63 231q-139 61 -242 61q-86 0 -154.5 -32.5t-106.5 -89t-38 -127.5q0 -74 51 -135.5t139.5 -120.5t190 -125t162.5 -127q119 -119 119 -275q0 -88 -46 -181.5t-155 -158.5t-282 -65q-61 0 -148.5 7
t-128.5 7q-19 0 -29.5 -1t-32.5 -3t-26 -2l-16 352h14zM179 1741h37l278 -96l279 94h28l-309 -180z" />
    <glyph glyph-name="Scaron" unicode="&#x161;" horiz-adv-x="981" 
d="M571 1462h-32q-110 0 -203 -44t-147 -125t-54 -183q0 -127 111 -238q49 -47 91.5 -79t128.5 -90.5t137.5 -96t84.5 -71.5q90 -90 90 -201q0 -76 -41.5 -146.5t-120 -115t-184.5 -45.5v-11q122 -4 217.5 43t146 124t50.5 159q0 71 -23 129t-84 119q-35 35 -126 97.5
t-184 126t-136 104.5q-105 104 -105 229q0 110 95.5 205t287.5 100v10zM82 350l76 -246q57 -26 133.5 -42t132.5 -15q75 0 137.5 26t102 66t60.5 90.5t21 98.5q0 99 -67 167t-224.5 174t-228.5 177q-61 63 -91 126.5t-30 141.5q0 86 47 171t145 141.5t241 56.5
q65 0 138 -6.5t101 -6.5q24 1 45 1.5t33.5 2t26.5 3.5l6 -342h-13l-63 231q-139 61 -242 61q-86 0 -154.5 -32.5t-106.5 -89t-38 -127.5q0 -74 51 -135.5t139.5 -120.5t190 -125t162.5 -127q119 -119 119 -275q0 -88 -46 -181.5t-155 -158.5t-282 -65q-61 0 -148.5 7
t-128.5 7q-19 0 -29.5 -1t-32.5 -3t-26 -2l-16 352h14zM179 1741h37l278 -96l279 94h28l-309 -180z" />
    <glyph glyph-name="brokenbar" unicode="&#xa6;" horiz-adv-x="410" 
d="M276 1378v-781h-143v781h143zM276 406v-778h-143v778h143z" />
    <glyph glyph-name="Eth" unicode="&#xd0;" horiz-adv-x="1772" 
d="M309 772v125q0 291 -26 520l-248 37v10h823q230 0 391.5 -66.5t255 -173.5t134 -233t40.5 -256q0 -158 -52.5 -293.5t-151 -235t-232 -153t-293.5 -53.5h-921v10l243 35q17 85 27 281.5t10 308.5v57h-274v80h274zM512 692v-313q0 -148 12 -262q64 -30 145 -44t162 -14
q112 0 221 42.5t196.5 125.5t140.5 211.5t53 294.5q0 174 -56 301.5t-154.5 209t-225.5 120.5t-267 39q-113 0 -204 -25q-9 -67 -16.5 -203t-6.5 -212v-191h268v-80h-268zM700 1440v-10q145 0 260.5 -25t194 -68t135.5 -100q59 -59 101.5 -136t67 -171t24.5 -199
q0 -233 -100 -391t-246 -231.5t-277 -73.5h-76v-10h76q218 0 377.5 95.5t241.5 257t82 349.5q0 168 -58.5 299.5t-146.5 218.5q-189 195 -596 195h-60zM408 692v733h-70v-653v-733h70v653z" />
    <glyph glyph-name="Eth" unicode="&#xf0;" horiz-adv-x="1772" 
d="M309 772v125q0 291 -26 520l-248 37v10h823q230 0 391.5 -66.5t255 -173.5t134 -233t40.5 -256q0 -158 -52.5 -293.5t-151 -235t-232 -153t-293.5 -53.5h-921v10l243 35q17 85 27 281.5t10 308.5v57h-274v80h274zM512 692v-313q0 -148 12 -262q64 -30 145 -44t162 -14
q112 0 221 42.5t196.5 125.5t140.5 211.5t53 294.5q0 174 -56 301.5t-154.5 209t-225.5 120.5t-267 39q-113 0 -204 -25q-9 -67 -16.5 -203t-6.5 -212v-191h268v-80h-268zM700 1440v-10q145 0 260.5 -25t194 -68t135.5 -100q59 -59 101.5 -136t67 -171t24.5 -199
q0 -233 -100 -391t-246 -231.5t-277 -73.5h-76v-10h76q218 0 377.5 95.5t241.5 257t82 349.5q0 168 -58.5 299.5t-146.5 218.5q-189 195 -596 195h-60zM408 692v733h-70v-653v-733h70v653z" />
    <glyph glyph-name="Yacute" unicode="&#xdd;" 
d="M766 39h68v625l-476 763h-73l481 -770v-618zM227 1419l-202 35v10h778v-10l-299 -35q67 -148 189 -345t218 -320q105 116 248 325t213 340l-293 35v10h582v-12l-172 -33q-59 -70 -114 -144t-142 -198t-137 -198.5t-150 -227.5q-8 -123 -8 -274q0 -206 31 -332l248 -35
v-10h-758v10l243 35q16 63 25.5 172t9.5 205q0 72 -6 225q-58 106 -147.5 251.5t-184.5 285t-172 235.5zM877 1737h209l-434 -181h-25z" />
    <glyph glyph-name="Yacute" unicode="&#xfd;" 
d="M766 39h68v625l-476 763h-73l481 -770v-618zM227 1419l-202 35v10h778v-10l-299 -35q67 -148 189 -345t218 -320q105 116 248 325t213 340l-293 35v10h582v-12l-172 -33q-59 -70 -114 -144t-142 -198t-137 -198.5t-150 -227.5q-8 -123 -8 -274q0 -206 31 -332l248 -35
v-10h-758v10l243 35q16 63 25.5 172t9.5 205q0 72 -6 225q-58 106 -147.5 251.5t-184.5 285t-172 235.5zM877 1737h209l-434 -181h-25z" />
    <glyph glyph-name="Thorn" unicode="&#xde;" horiz-adv-x="1280" 
d="M516 809v-383q38 -12 105 -12q115 0 209.5 38t152 119t57.5 203q0 63 -19.5 132t-61.5 128.5t-111 97t-160 37.5q-82 0 -149 -14q-8 -48 -15.5 -159.5t-7.5 -186.5zM752 385h-234q-2 -41 2 -107t10.5 -129t14.5 -100l250 -37v-12h-752l-4 14l242 35q11 84 17 178
t10.5 226.5t4.5 197.5v240q0 127 -8 284.5t-20 245.5l-248 35l-2 12h837v-12l-305 -35q-30 -78 -32 -196h192q167 0 261 -28.5t157 -90.5q36 -36 59.5 -81t35 -97t11.5 -101q0 -117 -64 -219t-178 -162.5t-257 -60.5zM741 1202h-36v-8q90 -4 159 -39.5t115.5 -94t70 -131
t23.5 -153.5q0 -123 -52 -202.5t-125.5 -115t-141.5 -40.5v-12h18q56 0 142.5 30.5t158.5 117t72 239.5q0 96 -39.5 190.5t-131 156.5t-233.5 62zM340 1430v-1389h70v1389h-70z" />
    <glyph glyph-name="Thorn" unicode="&#xfe;" horiz-adv-x="1280" 
d="M516 809v-383q38 -12 105 -12q115 0 209.5 38t152 119t57.5 203q0 63 -19.5 132t-61.5 128.5t-111 97t-160 37.5q-82 0 -149 -14q-8 -48 -15.5 -159.5t-7.5 -186.5zM752 385h-234q-2 -41 2 -107t10.5 -129t14.5 -100l250 -37v-12h-752l-4 14l242 35q11 84 17 178
t10.5 226.5t4.5 197.5v240q0 127 -8 284.5t-20 245.5l-248 35l-2 12h837v-12l-305 -35q-30 -78 -32 -196h192q167 0 261 -28.5t157 -90.5q36 -36 59.5 -81t35 -97t11.5 -101q0 -117 -64 -219t-178 -162.5t-257 -60.5zM741 1202h-36v-8q90 -4 159 -39.5t115.5 -94t70 -131
t23.5 -153.5q0 -123 -52 -202.5t-125.5 -115t-141.5 -40.5v-12h18q56 0 142.5 30.5t158.5 117t72 239.5q0 96 -39.5 190.5t-131 156.5t-233.5 62zM340 1430v-1389h70v1389h-70z" />
    <glyph glyph-name="a" unicode="&#x100;" 
d="M820 1282l519 -1243h67l-553 1327zM804 1198q-27 -53 -71.5 -155t-80.5 -191t-75 -189.5t-52 -132.5q59 -8 137.5 -11t149.5 -3q175 0 287 14q-38 113 -129 321.5t-166 346.5zM910 1479l433 -1033q84 -202 196 -401l166 -35v-10h-706v10l272 35q-15 99 -55.5 215.5
t-89.5 202.5h-627q-40 -101 -64.5 -166t-47 -135t-29.5 -117l262 -35v-10h-559v10l184 35q67 116 123 256l463 1178h79z" />
    <glyph glyph-name="b" unicode="&#x101;" horiz-adv-x="1366" 
d="M14 10l251 37q17 82 27 281.5t10 310.5v322q0 136 -7 260.5t-19 197.5l-260 35v10h743q160 0 254 -51.5t132 -128.5t38 -162q0 -152 -101.5 -240.5t-246.5 -101.5v-4q150 -7 255.5 -62t159.5 -141.5t54 -185.5q0 -84 -41.5 -172t-151 -151.5t-293.5 -63.5h-804v10z
M646 1409q-77 0 -116 -12q-25 -160 -25 -379q0 -160 6 -205q44 -18 119 -18q100 0 178 36.5t123 108t45 176.5q0 81 -34 147.5t-108 106t-188 39.5zM648 741q-98 0 -137 -14q-8 -73 -8 -238q0 -196 14 -376q57 -32 102.5 -44t112.5 -12q106 0 185 36.5t123.5 109.5t44.5 178
t-50.5 186t-149 127.5t-237.5 46.5zM331 1427v-1388h70v1388h-70zM673 1440v-8q109 -3 185.5 -44.5t114.5 -113t38 -164.5q0 -88 -33.5 -154.5t-85.5 -104.5t-108 -52v-11q139 19 216.5 110.5t77.5 217.5q0 78 -25.5 139t-73 103.5t-108.5 64t-139 21.5q-19 0 -59 -4z
M784 760v-8q88 -16 165 -62.5t123.5 -125t46.5 -187.5q0 -89 -38.5 -166.5t-125 -127.5t-216.5 -50v-8q16 -5 59 -5q126 0 216 50.5t134.5 132.5t44.5 174q0 110 -47 195t-139.5 134.5t-222.5 53.5z" />
    <glyph glyph-name="c" unicode="&#x102;" horiz-adv-x="1579" 
d="M991 1460h-117q-174 0 -319.5 -57.5t-246 -160t-152.5 -236.5t-52 -287q0 -140 53.5 -267.5t158 -227t249.5 -155t324 -55.5q80 0 102 2v13q-199 -4 -354.5 52.5t-256.5 158t-150.5 229.5t-49.5 260q0 130 43 256t132.5 231t231.5 167.5t334 62.5h70v14zM1444 270
l-148 -274q-96 8 -139 8q-53 0 -143 -8t-140 -8q-202 0 -357.5 62.5t-256.5 169t-150 235t-49 260.5q0 169 57.5 311.5t162.5 245t245 157t301 54.5q42 0 53 -0.5t48 -2t75 -3.5q135 -9 207 -9q160 0 209 9l12 -336h-12l-67 223q-30 7 -106 20t-148.5 21t-151.5 8
q-206 0 -352.5 -82.5t-220.5 -234t-74 -348.5q0 -153 53 -281.5t148 -219t216.5 -137.5t256.5 -47q134 0 251 45.5t209 165.5z" />
    <glyph glyph-name="d" unicode="&#x103;" horiz-adv-x="1772" 
d="M67 1464h823q230 0 391.5 -66.5t255 -173.5t134 -233t40.5 -256q0 -158 -52.5 -293.5t-151 -235t-232 -153t-293.5 -53.5h-921v10l243 35q17 85 27 281.5t10 308.5v262q0 291 -26 520l-248 37v10zM542 963v-584q0 -129 14 -262q64 -30 145 -44t162 -14q112 0 221 42.5
t196.5 125.5t140.5 211.5t53 294.5q0 174 -56 301.5t-154.5 209t-225.5 120.5t-267 39q-113 0 -204 -25q-6 -38 -11.5 -108.5t-9.5 -165.5t-4 -141zM370 1425v-1386h70v1386h-70zM732 1440v-10q145 0 260.5 -25t194 -68t135.5 -100q59 -59 101.5 -136t67 -171t24.5 -199
q0 -233 -100 -391t-246 -231.5t-277 -73.5h-76v-10h76q218 0 377.5 95.5t241.5 257t82 349.5q0 168 -58.5 299.5t-146.5 218.5q-189 195 -596 195h-60z" />
    <glyph glyph-name="e" unicode="&#x104;" horiz-adv-x="1174" 
d="M365 1425v-1386h69v1386h-69zM61 1454v10h1065l25 -311h-16l-72 244q-85 6 -191 6q-193 0 -311 -27q-20 -162 -20 -370q0 -130 8 -211q158 -9 201 -9q113 0 233 13l45 170h17v-426h-17l-47 180q-87 10 -192 10q-132 0 -240 -12q-13 -116 -8 -227q2 -142 5 -234.5
t11 -159.5q122 -37 320 -37q114 0 192 9l80 241h14l-22 -313h-1077v10l239 35q8 41 14.5 125t11.5 188.5t7 175t2 123.5v252q0 48 -3 136.5t-9 183.5t-17 190z" />
    <glyph glyph-name="f" unicode="&#x105;" horiz-adv-x="1174" 
d="M330 1425v-1388h69v1388h-69zM27 1464h1069l20 -317h-14l-72 252q-111 6 -186 6q-189 0 -318 -29q-8 -69 -15 -190t-7 -185q0 -70 8 -204q93 -11 217 -11q131 0 217 11l49 172h13v-428h-13l-49 182q-57 6 -109.5 8t-109.5 2q-54 0 -217 -10q-6 -105 -6 -215
q0 -77 8 -228.5t20 -234.5l250 -35v-10h-755v10l241 35q15 105 24 283t9 299v278q0 52 -3.5 153.5t-9 198t-16.5 160.5l-245 37v10z" />
    <glyph glyph-name="g" unicode="&#x106;" 
d="M1221 522v-391l67 25v366h-67zM1581 551l-160 -37q-13 -73 -21 -187t-7 -204q-115 -45 -187.5 -69t-173 -43t-219.5 -19q-197 0 -347 62t-247.5 166.5t-144.5 232.5t-47 258q0 153 52 292.5t153 249t247.5 172t331.5 62.5q29 0 45.5 -1t41.5 -2t67 -3q122 -8 231 -8
q101 0 164 6l14 -334h-14l-64 223q-38 10 -95 20.5t-128.5 18.5t-154.5 8q-175 0 -304 -56.5t-207.5 -152t-114.5 -211.5t-36 -237q0 -137 50.5 -259t143 -216t215.5 -146.5t261 -52.5q36 0 74 4t78.5 10.5t92.5 14.5q21 89 21 188q0 137 -21 215l-258 35v12h668v-12z
M932 1450v8q-67 6 -121 6q-162 0 -298.5 -56t-236 -157.5t-154 -241t-54.5 -298.5q0 -186 93 -345.5t267 -253.5t410 -94q44 0 120 9v8q-220 -1 -378 60t-255 166t-140.5 230t-43.5 250q0 154 49.5 284t144.5 225t238.5 147.5t323.5 52.5h35z" />
    <glyph glyph-name="h" unicode="&#x107;" horiz-adv-x="1855" 
d="M1448 1427v-1388h70v1388h-70zM291 1425v-1386h69v1386h-69zM29 1464h727v-10l-265 -35q-11 -55 -18.5 -194t-7.5 -236q0 -84 6 -207q146 -28 438 -28q145 0 272 6t232 22q8 97 8 232q0 80 -4.5 160.5t-9.5 129.5t-14 117l-265 33v10h727v-10l-204 -33
q-16 -74 -23.5 -249.5t-7.5 -340.5v-335q0 -301 31 -451l206 -35v-10h-729v10l260 35q28 170 33 373q2 52 0 126.5t-8 155.5h-944q-4 -75 -4 -235q0 -95 6.5 -221.5t22.5 -198.5l262 -35v-10h-729v10l202 35q7 40 15 143.5t13 233t5 217.5v369q0 16 -3 105.5t-10.5 178
t-15.5 129.5l-204 33v10z" />
    <glyph glyph-name="i" unicode="&#x108;" horiz-adv-x="788" 
d="M332 1425v-1386h70v1386h-70zM783 0h-756v10l244 37q17 125 25.5 301.5t8.5 345.5v168q0 343 -30 557l-248 35v10h756v-10l-250 -35q-11 -97 -16 -175.5t-9 -190t-4 -209.5v-221q0 -61 4.5 -199.5t12 -234.5t14.5 -144l248 -35v-10z" />
    <glyph glyph-name="j" unicode="&#x109;" horiz-adv-x="1087" 
d="M434 1425v-1046q0 -72 -27 -153.5t-94.5 -140.5t-179.5 -60l4 -11q136 7 217 62t115.5 149t34.5 226v974h-70zM608 946v-452q0 -249 -123.5 -378.5t-329.5 -129.5q-34 0 -88 5.5t-109.5 15.5t-107.5 28l-41 327h15l102 -251q97 -64 199 -64q108 0 195 83.5t87 287.5v489
q0 109 -8 269t-20 243l-265 35v10h727v-10l-208 -37q-25 -228 -25 -471z" />
    <glyph glyph-name="k" unicode="&#x10a;" 
d="M317 1425v-1388h72v1388h-72zM653 844l-45 -45l627 -762h84zM776 10v-10h-749v10l227 31q12 83 20 200t12.5 227t4.5 200v282q0 119 -8.5 255.5t-20.5 211.5l-235 37v10h751v-10l-260 -37q-10 -72 -17 -193t-7 -175v-258q68 47 153 121.5t191 174.5q215 205 319 330
l-235 37v10h571v-10l-197 -35q-25 -17 -84 -70t-142 -131t-180 -168t-147 -135q59 -100 181 -243l221 -271q196 -236 338 -356l184 -35v-10h-700v10l190 35q-61 102 -159.5 233t-209 262.5t-202.5 229.5l-95 -88v-219q0 -58 8 -204.5t19 -213.5z" />
    <glyph glyph-name="l" unicode="&#x10b;" horiz-adv-x="1280" 
d="M332 1427v-1388h70v1388h-70zM29 1454v10h756v-10l-248 -35q-13 -97 -22 -261.5t-9 -287.5v-430q0 -155 16 -323q171 -54 353 -54q88 0 162 10t104 19l104 273h15l-47 -365h-1186v10l239 35q12 48 20.5 171t13.5 254t5 185v252q0 83 -4 190.5t-9.5 188.5t-14.5 133z" />
    <glyph glyph-name="m" unicode="&#x10c;" horiz-adv-x="2154" 
d="M278 1425l723 -1335l35 68l-688 1267h-70zM1735 1360l-58 -117l88 -1204h72l-98 1321h-4zM29 1464h430q54 -120 92 -196t92 -178l281 -521q104 -188 174 -282q58 94 184 336l256 481q110 209 168 360h428v-10l-266 -37q-6 -88 -6 -176q0 -92 17.5 -376.5t42.5 -530
t46 -289.5l184 -35v-10h-686v10l238 35q8 76 8 205q0 71 -5 185.5t-15.5 263t-25.5 274.5t-28 170q-47 -75 -98 -172l-389 -729q-92 -179 -123 -256h-14q-21 46 -72 147t-82 158l-326 604q-83 154 -137 246q-7 -40 -21 -182t-26.5 -308t-19 -283t-6.5 -184q0 -47 4 -137
l190 -37v-10h-491v10l190 37q14 42 38 277t42 483.5t18 359.5q0 39 -4 121q-29 60 -112 129l-170 37v10z" />
    <glyph glyph-name="n" unicode="&#x10d;" horiz-adv-x="1855" 
d="M27 1454v10h505q50 -68 129.5 -164t141.5 -165l448 -498q89 -97 138.5 -150t128.5 -129q6 69 8 129t2 113v432q0 233 -23 385l-243 37v10h595v-10l-243 -39q-19 -140 -19 -358v-1096h-10q-153 194 -303 363l-612 682q-136 145 -232 231q-14 -136 -14 -254v-633
q0 -127 20 -303l254 -37v-10h-608v10l246 35q12 72 17 205t5 237v490q0 87 -3 172.5t-11 169.5l-133 98zM326 1427l1208 -1343v94l-1124 1249h-84z" />
    <glyph glyph-name="o" unicode="&#x10e;" horiz-adv-x="1772" 
d="M864 1485q213 0 369 -71t255.5 -186t146 -244.5t46.5 -248.5q0 -136 -52.5 -267t-155 -239.5t-254 -173.5t-337.5 -65q-269 0 -456 116.5t-276 288.5t-89 336q0 145 56.5 281t164 243.5t257.5 168.5t325 61zM870 1415q-155 0 -286.5 -81t-209 -234t-77.5 -361
q0 -224 84.5 -378.5t217 -229t273.5 -74.5q115 0 218 44t184 128.5t126.5 208t45.5 275.5q0 208 -48 332t-141 217q-79 79 -179.5 116t-207.5 37zM921 1456v-10q97 -7 195 -45.5t183.5 -120t137.5 -219.5t52 -332q0 -127 -30.5 -243t-98 -214t-176.5 -162t-261 -79v-11
q128 6 243 55t204.5 140.5t141.5 223.5t52 294q0 177 -54 312.5t-147 225.5t-206.5 136t-235.5 49zM823 1446v10q-140 -1 -273 -60t-234 -160t-157.5 -230t-56.5 -271q0 -174 94.5 -338.5t261.5 -267.5t367 -109v11q-194 17 -343 121t-226.5 258t-77.5 319q0 136 45 261
t130 223t205.5 159t264.5 74z" />
    <glyph glyph-name="p" unicode="&#x10f;" horiz-adv-x="1280" 
d="M27 1468h694q167 0 261 -30.5t155 -91.5q51 -51 78.5 -125.5t27.5 -153.5q0 -118 -61.5 -218.5t-173 -161t-254.5 -60.5q-113 0 -205 18v10q21 -2 64 -2q112 0 207.5 38.5t153.5 120t58 204.5q0 143 -89 269t-263 126q-84 0 -149 -16q-7 -40 -15 -199t-8 -223v-477
q0 -30 4.5 -135.5t9.5 -182.5t15 -129l250 -37l-11 -12h-749l4 14l242 35q11 84 17 178t10.5 226.5t4.5 197.5v240q0 127 -8 284.5t-20 245.5l-248 35zM332 1430v-1389h70v1389h-70zM733 1444h-36v-10q113 -6 197.5 -64.5t127.5 -151.5t43 -200q0 -122 -52 -202t-124 -116
t-143 -43v-12h18q56 0 142.5 30.5t158.5 117.5t72 241q0 95 -39 190t-130.5 157.5t-234.5 62.5z" />
    <glyph glyph-name="q" unicode="&#x110;" horiz-adv-x="1855" 
d="M1814 242l14 -6q-39 -111 -118.5 -177.5t-202.5 -66.5q-68 0 -131.5 16.5t-155.5 50.5q-85 -37 -176 -52t-166 -15q-204 0 -361.5 69t-259 182.5t-149 241.5t-47.5 246q0 144 56 280t163 244t256 169t326 61q213 0 370 -71.5t255 -184t146 -244t48 -250.5
q0 -148 -66.5 -293.5t-183.5 -251.5q88 -40 176 -40q70 0 126 25.5t81 66.5zM1286 248q37 39 74 107t61 160.5t24 197.5q0 144 -23 245t-64 171.5t-103 132.5q-154 153 -387 153q-155 0 -286 -81t-209.5 -235.5t-78.5 -359.5q0 -151 37.5 -264t90.5 -184t104 -109
q81 93 158.5 136.5t185.5 43.5q151 0 416 -114zM921 1456v-10q105 -13 203 -53t179.5 -119t132 -215.5t50.5 -329.5q0 -270 -140.5 -473.5t-432.5 -222.5v-13q107 0 220.5 43t211.5 131.5t158.5 224.5t60.5 314q0 179 -56 315.5t-150.5 225t-209 133t-227.5 49.5zM823 1446
v10q-137 -1 -270 -60.5t-234.5 -160t-160 -230.5t-58.5 -270q0 -132 53.5 -258.5t153 -228.5t233.5 -163t291 -65v13q-152 13 -275.5 76t-208 162t-127 217t-42.5 241q0 181 79.5 338.5t226.5 258.5t339 120zM1140 129l72 47q-85 38 -129.5 57t-78.5 31t-77.5 20.5
t-87.5 8.5q-111 0 -198 -47l2 -10q53 18 112 18q68 0 150.5 -28t234.5 -97zM538 170q158 -111 340 -111q117 0 213 47q-253 119 -379 119q-107 0 -174 -55zM1347 125l-76 -43q117 -55 246 -55q150 0 242 110h-13q-68 -58 -176 -61q-91 0 -223 49z" />
    <glyph glyph-name="r" unicode="&#x111;" horiz-adv-x="1579" 
d="M295 596v309q0 119 -8 272.5t-20 241.5l-240 35v10h657q187 0 298.5 -74.5t154.5 -170t43 -164.5q0 -95 -43 -169.5t-112.5 -118.5t-141.5 -52v-4q68 -27 113 -72q35 -35 80 -98.5t119 -173.5t119 -172t83 -101q84 -84 166 -84v-10h-174q-146 0 -232 88
q-34 34 -67.5 80.5t-106 152.5t-122 175t-78.5 98q-43 43 -78.5 57.5t-104.5 14.5q-63 0 -98 -7q-6 -54 -6 -120v-185q0 -117 25 -309l249 -35v-10h-743v10l235 35q15 101 24 284t9 267zM494 1053v-164q0 -87 6 -162q39 -6 113 -6q128 0 206.5 44t112 114.5t33.5 154.5
q0 83 -32.5 153t-84 118.5t-115 75t-124.5 26.5q-58 0 -91 -8q-9 -58 -16.5 -166t-7.5 -180zM854 557l217 -315q78 -111 139 -158.5t144 -48.5v10q-79 23 -203 203l-174 250q-56 82 -105 124t-120 56l-4 -8q56 -36 106 -113zM320 1425v-1386h72v1386h-72zM594 1442v-10
q137 -3 229.5 -66.5t134.5 -155.5t42 -182q0 -200 -174 -289l6 -4q102 26 168.5 111t66.5 203q0 92 -36 166.5t-97.5 124.5t-137.5 76t-153 26h-49z" />
    <glyph glyph-name="s" unicode="&#x112;" horiz-adv-x="981" 
d="M599 1462h-32q-110 0 -203 -44t-147 -125t-54 -183q0 -127 111 -238q49 -47 91.5 -79t128.5 -90.5t137.5 -96t84.5 -71.5q90 -90 90 -201q0 -76 -41.5 -146.5t-120 -115t-184.5 -45.5v-11q122 -4 217.5 43t146 124t50.5 159q0 71 -23 129t-84 119q-35 35 -126 97.5
t-184 126t-136 104.5q-105 104 -105 229q0 110 95.5 205t287.5 100v10zM110 350l76 -246q57 -26 133.5 -42t132.5 -15q75 0 137.5 26t102 66t60.5 90.5t21 98.5q0 99 -67 167t-224.5 174t-228.5 177q-61 63 -91 126.5t-30 141.5q0 86 47 171t145 141.5t241 56.5
q65 0 138 -6.5t101 -6.5q24 1 45 1.5t33.5 2t26.5 3.5l6 -342h-13l-63 231q-139 61 -242 61q-86 0 -154.5 -32.5t-106.5 -89t-38 -127.5q0 -74 51 -135.5t139.5 -120.5t190 -125t162.5 -127q119 -119 119 -275q0 -88 -46 -181.5t-155 -158.5t-282 -65q-61 0 -148.5 7
t-128.5 7q-19 0 -29.5 -1t-32.5 -3t-26 -2l-16 352h14z" />
    <glyph glyph-name="t" unicode="&#x113;" horiz-adv-x="1473" 
d="M662 1427v-1388h67v1388h-67zM230 1464h868q79 0 145 4.5t170 14.5l23 -324h-12l-74 236q-91 16 -190 16q-85 0 -155 -9t-151 -30q-8 -93 -12 -179.5t-6 -160t-2 -100.5v-332q0 -131 9 -293.5t22 -259.5l247 -37v-10h-755v10l243 37q31 221 31 535v362q0 112 -5 221
t-17 207q-58 16 -135 25.5t-146 11.5q-109 0 -215 -18l-72 -238h-14l22 328q30 -2 87 -9.5t94 -7.5z" />
    <glyph glyph-name="u" unicode="&#x114;" horiz-adv-x="1772" 
d="M954 25v-13q118 7 204 38.5t142.5 88t84.5 141.5t28 197v950h-70v-948q0 -200 -92 -316t-297 -138zM823 12v13q-141 8 -246.5 56.5t-165 144t-59.5 233.5v968h-70v-1003q0 -185 129.5 -292.5t411.5 -119.5zM253 424v557q0 186 -24 440l-209 33v10h729v-10l-264 -33
q-10 -70 -16 -168t-10.5 -209t-4.5 -178v-411q0 -147 59.5 -236.5t157 -126.5t215.5 -37q201 0 315.5 102t114.5 330v428q0 114 -8 269.5t-20 236.5l-263 33v10h725v-10l-204 -33q-14 -65 -21.5 -216.5t-7.5 -254.5v-485q0 -113 -27 -192t-84 -136q-39 -39 -82 -66t-109 -47
t-144 -29t-193 -9q-188 0 -327 42t-218.5 140t-79.5 256z" />
    <glyph glyph-name="v" unicode="&#x115;" 
d="M215 1425l573 -1339l35 82l-536 1257h-72zM684 1454l-262 -37q56 -198 176 -477l139 -324q46 -111 137 -284q36 63 85.5 168t86.5 196l156 371q91 223 127 350l-303 37v10h594v-8l-182 -39q-59 -91 -172 -360l-340 -807q-72 -169 -109 -291h-14q-58 165 -123 313
l-318 742q-89 209 -200 405l-176 35v10h698v-10z" />
    <glyph glyph-name="w" unicode="&#x116;" horiz-adv-x="2261" 
d="M209 1425l373 -1308h4l33 96l-344 1212h-66zM1110 1264l-30 -82l485 -1073l29 90zM711 1454l-285 -37q0 -72 24.5 -207t55.5 -243l96 -330q32 -114 80 -238q92 195 146 330l172 428q91 235 114 322h19q12 -28 48 -120t66 -163l242 -530q56 -129 141 -291q32 80 99 299
l114 403q24 80 42 172t26 172l-291 33v10h588v-10l-178 -35q-33 -77 -64 -166t-61 -196l-178 -615q-44 -154 -79.5 -285.5t-47.5 -195.5h-17q-10 29 -29 80t-30 80t-29 71.5t-37 81.5l-280 625q-86 177 -111 223q-21 -32 -60.5 -125t-45.5 -112l-234 -578
q-24 -59 -42.5 -109.5t-39 -107t-45.5 -129.5h-16q-18 101 -92 369l-189 665q-66 232 -147 424l-174 35v10h729v-10z" />
    <glyph glyph-name="x" unicode="&#x117;" horiz-adv-x="1855" 
d="M304 1430l1133 -1391h81l-1130 1391h-84zM28 1464h837v-10l-319 -33q54 -84 100.5 -150t102 -135.5t121.5 -146.5t136 -158q78 80 180.5 196.5t182.5 218.5t125 175l-305 33v10h669v-10l-235 -31q-63 -58 -143.5 -147.5t-170.5 -198t-156 -194t-89 -123.5
q60 -80 157 -202.5t175 -216t149 -172t125 -126.5l186 -33v-10h-813v10l318 35q-82 139 -215.5 306t-259.5 304q-102 -105 -199 -218t-177 -216.5t-128 -175.5l305 -35v-10h-664v10l230 35q143 140 309.5 340.5t267.5 341.5q-97 129 -198.5 256.5t-206.5 250.5t-174 187
l-223 33v10z" />
    <glyph glyph-name="y" unicode="&#x118;" 
d="M738 39h68v625l-476 763h-73l481 -770v-618zM199 1419l-202 35v10h778v-10l-299 -35q67 -148 189 -345t218 -320q105 116 248 325t213 340l-293 35v10h582v-12l-172 -33q-59 -70 -114 -144t-142 -198t-137 -198.5t-150 -227.5q-8 -123 -8 -274q0 -206 31 -332l248 -35
v-10h-758v10l243 35q16 63 25.5 172t9.5 205q0 72 -6 225q-58 106 -147.5 251.5t-184.5 285t-172 235.5z" />
    <glyph glyph-name="z" unicode="&#x119;" horiz-adv-x="1366" 
d="M1088 1423l-1026 -1382h80l1024 1382h-78zM77 1135l45 346q89 -9 112 -11q56 -6 103 -6h950v-41l-649 -874q-63 -87 -151 -216t-138 -222q50 -15 178 -31.5t207 -16.5h143q34 0 127 8t152 19l106 256h15l-51 -346h-1199v39l674 911q156 210 269 404q-38 15 -145 33
t-212 18h-155q-54 0 -150 -9t-131 -18l-86 -243h-14z" />
    <glyph glyph-name="multiply" unicode="&#xd7;" horiz-adv-x="1368" 
d="M199 1081l59 62l428 -426l424 426l61 -62l-423 -428l419 -420l-61 -63l-420 422l-426 -422l-61 63l424 420z" />
    <glyph glyph-name="onesuperior" unicode="&#xb9;" horiz-adv-x="662" 
d="M266 713v528l-94 -41l-18 37l215 82v-606h77v-45h-266v45h86z" />
    <glyph glyph-name="twosuperior" unicode="&#xb2;" horiz-adv-x="662" 
d="M549 770v-102h-443q6 9 10 16.5t5 9.5q9 16 88 109q72 81 116 171.5t44 155.5q0 59 -33 94.5t-88 35.5q-75 0 -135 -72l-43 22q71 109 202 109q94 0 152.5 -47t58.5 -123q0 -65 -37 -129q-27 -48 -66.5 -100.5t-148.5 -186.5h240q13 0 17 4t6 23q0 6 2 10h53z" />
    <glyph glyph-name="threesuperior" unicode="&#xb3;" horiz-adv-x="662" 
d="M63 770l46 25q45 -48 80 -68t77 -20q37 0 67 17t47 47t17 67q0 44 -22.5 75.5t-64.5 48.5t-99 17h-31v37q96 19 147.5 58.5t51.5 94.5q0 41 -31 63.5t-84 22.5q-81 0 -127 -69l-45 24q69 109 201 109q85 0 137.5 -38.5t52.5 -100.5q0 -50 -35 -87t-112 -69v-4
q92 -19 134 -61t42 -109q0 -85 -67 -144t-164 -59q-153 0 -218 123z" />
    <glyph glyph-name="onehalf" unicode="&#xbd;" horiz-adv-x="1228" 
d="M202 729v528l-94 -41l-18 37l215 82v-606h77v-45h-266v45h86zM1008 1394h114l-950 -1411h-115zM1131 120v-102h-443q6 9 10 16.5t5 9.5q9 16 88 109q72 81 116 171.5t44 155.5q0 59 -33 94.5t-88 35.5q-75 0 -135 -72l-43 22q71 109 202 109q94 0 152.5 -47t58.5 -123
q0 -65 -37 -129q-27 -48 -66.5 -100.5t-148.5 -186.5h240q13 0 17 4t6 23q0 6 2 10h53z" />
    <glyph glyph-name="onequarter" unicode="&#xbc;" horiz-adv-x="1228" 
d="M202 729v528l-94 -41l-18 37l215 82v-606h77v-45h-266v45h86zM1008 1394h114l-950 -1411h-115zM753 259h-273v19l460 389h62q0 -12 -1.5 -31.5t-2.5 -34.5t-1 -38v-184q0 -38 2 -90q16 -3 51 -3q70 0 105 16h4l-18 -44h-71q-37 0 -69 -3q-5 -31 -5 -85q0 -72 18 -132
l144 -13v-6h-447v6l143 13q23 72 23 152q0 27 -4 65q-78 4 -120 4zM877 374q0 137 -12 191q-59 -41 -162 -130.5t-155 -144.5q67 -4 180 -4q73 0 145 3q4 32 4 85z" />
    <glyph glyph-name="threequarters" unicode="&#xbe;" horiz-adv-x="1228" 
d="M1008 1394h114l-950 -1411h-115zM753 259h-273v19l460 389h62q0 -12 -1.5 -31.5t-2.5 -34.5t-1 -38v-184q0 -38 2 -90q16 -3 51 -3q70 0 105 16h4l-18 -44h-71q-37 0 -69 -3q-5 -31 -5 -85q0 -72 18 -132l144 -13v-6h-447v6l143 13q23 72 23 152q0 27 -4 65q-78 4 -120 4
zM877 374q0 137 -12 191q-59 -41 -162 -130.5t-155 -144.5q67 -4 180 -4q73 0 145 3q4 32 4 85zM57 788l46 25q45 -48 80 -68t77 -20q37 0 67 17t47 47t17 67q0 44 -22.5 75.5t-64.5 48.5t-99 17h-31v37q96 19 147.5 58.5t51.5 94.5q0 41 -31 63.5t-84 22.5q-81 0 -127 -69
l-45 24q69 109 201 109q85 0 137.5 -38.5t52.5 -100.5q0 -50 -35 -87t-112 -69v-4q92 -19 134 -61t42 -109q0 -85 -67 -144t-164 -59q-153 0 -218 123z" />
    <glyph glyph-name="sfthyphen" unicode="&#xad;" horiz-adv-x="1174" 
d="M1059 825l-60 -141h-727q-71 0 -139 -35l62 139h708q105 0 156 37z" />
    <glyph glyph-name="currency" unicode="&#xa4;" horiz-adv-x="1366" 
d="M213 1061l63 63l125 -125q82 62 138.5 81.5t156.5 19.5q58 0 98 -8.5t80.5 -30.5t90.5 -62l125 125l61 -63l-125 -123q62 -78 81 -134.5t19 -156.5q0 -95 -19.5 -148t-80.5 -124l125 -125l-61 -62l-125 125q-77 -61 -134.5 -80.5t-148.5 -19.5q-93 0 -148.5 19t-132.5 81
l-125 -125l-63 62l127 125q-61 90 -80.5 146.5t-19.5 142.5q0 85 20 139.5t80 134.5zM330 655q0 -97 46.5 -178t127.5 -128.5t176 -47.5q99 0 181 47.5t129.5 129.5t47.5 177q0 98 -47 179t-128 128.5t-177 47.5q-98 0 -179.5 -47.5t-129 -129.5t-47.5 -178z" />
    </font>
</defs>
</svg>
